<?xml version="1.0" standalone="no"?>
<!DOCTYPE svg PUBLIC "-//W3C//DTD SVG 1.1//EN" "http://www.w3.org/Graphics/SVG/1.1/DTD/svg11.dtd" >
<svg xmlns="http://www.w3.org/2000/svg">
<metadata>
This is a custom SVG webfont generated by Font Squirrel.
Copyright   : Copyright c 2008 by Optimo All rights reserved
Designer    : JeanFranois Rappo
Foundry     : JeanFranois Rappo published by Optimo
Foundry URL : httpwwwoptimoch
</metadata>
<defs>
<font id="TheinhardtBold" horiz-adv-x="1208" >
<font-face units-per-em="2048" ascent="1393" descent="-655" />
<missing-glyph horiz-adv-x="512" />
<glyph unicode=" "  horiz-adv-x="512" />
<glyph unicode="&#x09;" horiz-adv-x="512" />
<glyph unicode="&#xa0;" horiz-adv-x="512" />
<glyph unicode="!" horiz-adv-x="575" d="M139 0v324h299v-324h-299zM141 836v557h295v-557l-24 -400h-242z" />
<glyph unicode="&#x22;" horiz-adv-x="894" d="M90 1196v197h303v-197l-59 -448h-191zM502 1196v197h303v-197l-60 -448h-190z" />
<glyph unicode="#" d="M-47 301v270h266l31 191h-240v270h283l59 361h271l-60 -361h180l60 361h270l-59 -361h221v-270h-264l-31 -191h238v-270h-281l-49 -301h-273l50 301h-179l-49 -301h-272l49 301h-221zM489 571h181l30 191h-180z" />
<glyph unicode="$" d="M0 274l211 183q160 -213 414 -213q119 0 184 43t65 119q0 66 -49 95t-155 48l-176 33q-213 41 -326 131t-113 274q0 156 114 266.5t298 139.5v174h272v-178q242 -41 394 -201l-193 -184q-156 150 -354 149q-96 0 -155.5 -38t-59.5 -101.5t45 -97t141 -52.5l221 -43 q205 -41 308.5 -131t103.5 -260q0 -178 -124 -291.5t-327 -140.5v-186h-272v190q-162 29 -284 107.5t-183 164.5z" />
<glyph unicode="%" horiz-adv-x="2062" d="M82 965q0 119 29.5 215t113.5 166.5t213 70.5q82 0 145.5 -28.5t101.5 -72.5t62.5 -106.5t32.5 -121t8 -123.5q0 -178 -90 -303t-264 -125q-178 0 -265 125t-87 303zM319 977q0 -236 117 -236q123 0 123 222q0 115 -31.5 181t-91.5 66q-57 0 -87 -65.5t-30 -167.5zM535 0 l725 1393h260l-721 -1393h-264zM1270 403q0 119 29.5 215.5t113.5 167t213 70.5q82 0 145.5 -28.5t101.5 -72.5t62.5 -106.5t32.5 -121t8 -124.5q0 -178 -90 -303t-264 -125q-178 0 -265 125t-87 303zM1507 416q0 -236 117 -236q123 0 123 221q0 115 -32 181.5t-91 66.5 q-57 0 -87 -65.5t-30 -167.5z" />
<glyph unicode="&#x26;" horiz-adv-x="1343" d="M70 393q0 242 290 393q-129 158 -129 306q0 135 99.5 229t267.5 94q174 0 268.5 -88t94.5 -225q0 -207 -224 -359q145 -168 146 -170q20 68 37 181l237 -52q-35 -217 -90 -348l303 -354h-348l-117 133q-150 -156 -381 -156q-209 0 -331.5 109.5t-122.5 306.5zM334 399 q0 -84 59.5 -129t149.5 -45q145 0 209 88l-248 303q-82 -47 -126 -97t-44 -120zM494 1098q0 -76 92 -176q51 33 80.5 81t29.5 93q0 47 -28.5 73.5t-71.5 26.5q-47 0 -74.5 -26.5t-27.5 -71.5z" />
<glyph unicode="'" horiz-adv-x="483" d="M90 1196v197h303v-197l-59 -448h-191z" />
<glyph unicode="(" horiz-adv-x="679" d="M123 518q0 436 258 875h268q-233 -416 -233 -850q0 -432 229 -867h-266q-256 404 -256 842z" />
<glyph unicode=")" horiz-adv-x="679" d="M31 1393h268q258 -438 258 -875q0 -438 -256 -842h-266q229 434 229 867q0 434 -233 850z" />
<glyph unicode="*" horiz-adv-x="954" d="M41 979l76 221l250 -92l-7 285h234l-6 -285l250 92l75 -221l-254 -80l175 -205l-193 -147l-164 219l-164 -219l-192 147l174 205z" />
<glyph unicode="+" horiz-adv-x="1583" d="M184 467v283h465v475h285v-475h463v-283h-463v-467h-285v467h-465z" />
<glyph unicode="," horiz-adv-x="591" d="M133 0v362h326v-221q0 -166 -23 -243q-31 -104 -100.5 -154.5t-202.5 -52.5v157q74 4 111 40t37 112h-148z" />
<glyph unicode="-" horiz-adv-x="745" d="M82 461v282h582v-282h-582z" />
<glyph unicode="." horiz-adv-x="591" d="M133 0v365h326v-365h-326z" />
<glyph unicode="/" horiz-adv-x="985" d="M-41 0l735 1393h312l-734 -1393h-313z" />
<glyph unicode="0" d="M80 688q0 139 24.5 259t81 230.5t163 175t255.5 64.5q145 0 251 -62.5t162 -171t82.5 -229t28.5 -266.5q0 -135 -22.5 -250.5t-77.5 -225.5t-162.5 -173.5t-261.5 -63.5q-141 0 -246.5 61.5t-164 166t-86 225.5t-27.5 260zM389 688q0 -88 7 -153.5t27.5 -135t67 -107.5 t113.5 -38q70 0 116 38t65.5 107.5t26.5 135t7 153.5q0 451 -215 451t-215 -451z" />
<glyph unicode="1" d="M174 852v244h70q156 0 237 59q100 74 107 238h274v-1393h-303v852h-385z" />
<glyph unicode="2" d="M94 0v209q184 129 428 350q59 53 91 86t77 89.5t66.5 113.5t21.5 119q0 92 -51 144t-141 52q-98 0 -146.5 -63.5t-48.5 -159.5q0 -68 19 -129l-291 25q-25 78 -25 149q0 188 138.5 310t373.5 122q227 0 356.5 -117.5t129.5 -318.5q0 -174 -89.5 -303t-254.5 -266 q-88 -72 -205 -152h544v-260h-993z" />
<glyph unicode="3" d="M61 412l283 34q35 -217 234 -217q111 0 163 56.5t52 138.5q0 143 -150 172q-45 10 -113 10h-129v236h117q84 0 123 12q123 33 123 162q0 74 -51 113.5t-135 39.5q-184 0 -216 -182l-268 29q6 172 137 286.5t355 114.5q227 0 350 -99t123 -261q0 -207 -197 -312 q240 -96 240 -342q0 -186 -136.5 -307t-387.5 -121q-242 0 -373.5 115t-143.5 322z" />
<glyph unicode="4" d="M51 305v223l619 865h284v-836h203v-252h-203v-305h-268v305h-635zM356 555q90 2 172 2h158v231l4 242h-4q-43 -76 -100 -156l-125 -176l-105 -141v-2z" />
<glyph unicode="5" d="M92 336l275 80q12 -78 66 -131.5t147 -53.5q106 0 159.5 64.5t53.5 181.5t-59.5 175.5t-155.5 58.5q-160 0 -203 -158l-262 59l104 781h821l-24 -260h-570l-41 -250q106 76 250 75q195 0 321 -128t126 -338q0 -236 -134.5 -376.5t-379.5 -140.5q-221 0 -341 103.5 t-153 257.5z" />
<glyph unicode="6" d="M94 676q0 348 144.5 544.5t404.5 196.5q117 0 206 -34.5t140 -94t80 -121t43 -133.5l-272 -55q-43 186 -201 186q-119 0 -181.5 -95t-64.5 -247q109 109 293 109q188 0 315 -123t127 -334q0 -225 -138 -362.5t-365 -137.5q-531 1 -531 701zM395 532q0 -123 54.5 -214 t175.5 -91q100 0 155.5 59.5t55.5 170.5q0 113 -60.5 170t-148.5 57q-66 0 -130.5 -30.5t-99.5 -82.5q0 -6 -1 -19.5t-1 -19.5z" />
<glyph unicode="7" d="M98 938v455h1055v-238q-115 -137 -201 -295q-221 -406 -264 -860h-323q16 197 112 477q137 387 340 656h-428v-195h-291z" />
<glyph unicode="8" d="M82 389q0 117 63.5 201t165.5 129q-190 102 -190 311q0 176 130 281.5t353 105.5t353 -105.5t130 -281.5q0 -209 -190 -311q102 -45 165.5 -129t63.5 -201q0 -205 -145 -309.5t-377 -104.5q-143 0 -257 39t-189.5 135.5t-75.5 239.5zM379 414q0 -84 59.5 -131t166 -47 t165.5 47t59 131q0 82 -58 131t-166.5 49t-167 -49t-58.5 -131zM401 1001q0 -72 49.5 -123t153.5 -51q102 0 152.5 52.5t50.5 122t-50 119.5t-152.5 50t-153 -50t-50.5 -120z" />
<glyph unicode="9" d="M74 918q0 225 138 362t366 137q266 0 398 -171t132 -529q0 -348 -144.5 -545t-404.5 -197q-117 0 -206 35t-140 94.5t-80 121t-43 132.5l272 56q41 -184 201 -185q119 0 181.5 94.5t64.5 245.5q-109 -109 -293 -108q-188 0 -315 123t-127 334zM367 938q0 -113 60 -170 t148 -57q66 0 130.5 30.5t99.5 81.5q0 6 1 19.5t1 19.5q0 123 -54.5 214t-174.5 91q-100 0 -155.5 -59t-55.5 -170z" />
<glyph unicode=":" horiz-adv-x="591" d="M133 0v365h326v-365h-326zM133 610v365h326v-365h-326z" />
<glyph unicode=";" horiz-adv-x="591" d="M133 0v362h326v-221q0 -166 -23 -243q-31 -104 -100.5 -154.5t-202.5 -52.5v157q74 4 111 40t37 112h-148zM133 610v365h326v-365h-326z" />
<glyph unicode="&#x3c;" horiz-adv-x="1583" d="M90 565v230l1391 614v-299l-1000 -426l1000 -438v-299z" />
<glyph unicode="=" horiz-adv-x="1583" d="M102 262v258h1381v-258h-1381zM102 680v258h1381v-258h-1381z" />
<glyph unicode="&#x3e;" horiz-adv-x="1583" d="M102 -53v299l1000 438l-1000 426v299l1391 -614v-230z" />
<glyph unicode="?" horiz-adv-x="1038" d="M51 1004q0 178 123 295.5t334 117.5q240 0 354.5 -117.5t114.5 -291.5q0 -223 -178 -363l-76 -59q-66 -51 -88.5 -84t-22.5 -92v-39h-278v51q0 106 31.5 173t128.5 148l77 66q102 82 103 195q0 78 -43 118.5t-123 40.5q-86 0 -127 -51t-41 -131q0 -74 33 -143l-303 26 q-19 70 -19 140zM319 0v295h312v-295h-312z" />
<glyph unicode="@" horiz-adv-x="1736" d="M113 614q0 346 230 574.5t572 228.5q180 0 322.5 -59.5t226.5 -159.5t127 -222t43 -255q0 -272 -108.5 -405.5t-290.5 -133.5q-152 0 -182 88q-88 -80 -254 -80q-139 0 -220 70t-81 201q0 121 73.5 178t225.5 86l174 33q33 6 42 13t9 28v6q0 98 -123 98 q-74 0 -106.5 -29.5t-32.5 -97.5l-234 10q-2 147 102.5 220t284.5 73q170 0 259.5 -58t89.5 -194v-401q0 -61 38 -61q49 0 88 99t39 228q0 229 -134 380t-373 151q-250 0 -418 -169q-168 -170 -168 -436q0 -285 174 -452.5t432 -167.5q307 0 514 201l94 -158 q-242 -231 -624 -231q-356 0 -583.5 208.5t-227.5 595.5zM750 465q0 -104 122 -105q147 0 148 140v102l-66 -14l-61 -13q-72 -16 -107.5 -39.5t-35.5 -70.5z" />
<glyph unicode="A" horiz-adv-x="1288" d="M-10 0l469 1393h375l464 -1393h-331l-82 276h-490l-80 -276h-325zM471 530h334l-115 394l-47 180h-2l-51 -182z" />
<glyph unicode="B" horiz-adv-x="1349" d="M141 0v1393h594q215 0 318 -54q180 -98 180 -307q0 -113 -62.5 -187.5t-156.5 -107.5v-2q121 -35 195.5 -121t74.5 -223q0 -227 -188 -332q-109 -59 -334 -59h-621zM446 602v-342h259q154 0 198 31q66 39 66 145q0 119 -101 152q-51 14 -163 14h-259zM446 838h250 q86 0 123 7t66 32q43 39 43 114q0 78 -54 113q-47 31 -176 31h-252v-297z" />
<glyph unicode="C" horiz-adv-x="1349" d="M78 696.5q0 323.5 182 522t483 198.5q217 0 361.5 -100t214.5 -256l-258 -109q-88 211 -313 211q-172 0 -266.5 -124t-94.5 -343t93 -339.5t268 -120.5q219 0 307 190l254 -121q-168 -330 -566 -330q-307 0 -486 199t-179 522.5z" />
<glyph unicode="D" horiz-adv-x="1400" d="M141 0v1393h512q244 0 371 -64q156 -76 237.5 -245t81.5 -384q0 -354 -206 -555q-70 -70 -164 -102.5t-171 -37.5t-239 -5h-422zM449 289h141q88 0 135 3t101.5 19.5t86.5 48.5q111 111 111 332q0 227 -125 336q-51 43 -125 57.5t-207 14.5h-118v-811z" />
<glyph unicode="E" horiz-adv-x="1239" d="M141 0v1393h979v-273h-671v-274h606v-271h-606v-301h718v-274h-1026z" />
<glyph unicode="F" horiz-adv-x="1075" d="M141 0v1393h903v-273h-593v-274h567v-277h-567v-569h-310z" />
<glyph unicode="G" horiz-adv-x="1460" d="M78 696.5q0 323.5 182 522t483 198.5q217 0 361.5 -100t214.5 -256l-258 -109q-88 211 -313 211q-172 0 -267.5 -124t-95.5 -343q0 -223 94 -348t271 -125q145 0 222 81t89 214h-395v273h661v-791h-270v123q-51 -61 -146.5 -104.5t-216.5 -43.5q-283 0 -449.5 199 t-166.5 522.5z" />
<glyph unicode="H" horiz-adv-x="1417" d="M141 0v1393h310v-537h516v537h309v-1393h-309v578h-516v-578h-310z" />
<glyph unicode="I" horiz-adv-x="591" d="M141 0v1393h310v-1393h-310z" />
<glyph unicode="J" horiz-adv-x="806" d="M16 -4v274q84 -23 162 -22q109 0 146 43q43 49 43 211v891h309v-957q0 -209 -64 -311q-106 -150 -407 -150q-87 1 -189 21z" />
<glyph unicode="K" horiz-adv-x="1374" d="M141 0v1393h310v-559l540 559h402l-566 -568l568 -825h-387l-410 598l-147 -149v-449h-310z" />
<glyph unicode="L" horiz-adv-x="1048" d="M141 0v1393h310v-1114h557v-279h-867z" />
<glyph unicode="M" horiz-adv-x="1708" d="M141 0v1393h461l180 -691q18 -68 37 -151.5t29 -134.5l8 -51h2q33 186 76 337l190 691h443v-1393h-295v451q0 328 26 682q-43 -217 -84 -357l-223 -776h-295l-204 815l-74 320q18 -332 18 -680v-455h-295z" />
<glyph unicode="N" horiz-adv-x="1429" d="M141 0v1393h314l333 -545q111 -182 205 -356h2q-12 274 -12 436v465h305v-1393h-311l-330 537l-211 374h-2q14 -231 15 -454v-457h-308z" />
<glyph unicode="O" horiz-adv-x="1503" d="M78 696.5q0 323.5 183 522t490.5 198.5t490.5 -198.5t183 -522.5q0 -326 -178 -523.5t-495 -197.5q-313 0 -493.5 199t-180.5 522.5zM387 696q0 -219 94 -339.5t270.5 -120.5t270.5 120.5t94 339.5t-96 343t-268 124q-174 0 -269.5 -124t-95.5 -343z" />
<glyph unicode="P" horiz-adv-x="1300" d="M141 0v1393h533q209 0 325 -45q123 -49 194 -152.5t71 -251.5q0 -248 -195 -364q-131 -76 -412 -76h-206v-504h-310zM451 776h243q117 0 168 25q90 37 90 147q0 115 -92 154q-53 20 -168 20h-241v-346z" />
<glyph unicode="Q" horiz-adv-x="1505" d="M78 696.5q0 323.5 183 522t490.5 198.5t490.5 -198.5t183 -522.5q0 -217 -79 -377l172 -159l-228 -219l-141 147q-168 -113 -397 -113q-313 0 -493.5 199t-180.5 522.5zM387 696q0 -219 94 -339.5t270.5 -120.5t270.5 120.5t94 339.5t-96 343t-268 124 q-174 0 -269.5 -124t-95.5 -343z" />
<glyph unicode="R" horiz-adv-x="1337" d="M141 0v1393h523q221 0 331 -43q268 -109 269 -400q0 -158 -78 -260t-215 -139l346 -551h-350l-312 512h-206v-512h-308zM449 778h243q145 0 201 37q66 43 65.5 135t-65.5 135q-55 37 -201 37h-243v-344z" />
<glyph unicode="S" horiz-adv-x="1320" d="M31 266l215 185q164 -217 422 -218q121 0 188.5 44.5t67.5 121.5q0 68 -50.5 97.5t-158.5 48.5l-180 35q-215 41 -331 133t-116 280q0 186 152.5 305t384.5 119q178 0 322.5 -59.5t238.5 -159.5l-197 -188q-158 152 -360 151q-98 0 -158.5 -38t-60.5 -103.5t45 -99 t145 -52.5l225 -45q207 -41 313.5 -133t106.5 -266q0 -211 -165 -330t-421 -119q-217 0 -382.5 90t-245.5 201z" />
<glyph unicode="T" horiz-adv-x="1093" d="M10 1116v277h1073v-277h-381v-1116h-309v1116h-383z" />
<glyph unicode="U" horiz-adv-x="1384" d="M133 567v826h309v-820q0 -143 27 -215q51 -117 223 -116q174 0 226 116q25 55 24 215v820h309v-826q0 -152 -15 -233.5t-56 -149.5q-119 -209 -487.5 -209t-487.5 209q-41 68 -56.5 149.5t-15.5 233.5z" />
<glyph unicode="V" horiz-adv-x="1204" d="M-10 1393h323l236 -867l51 -192h2l47 190l236 869h329l-419 -1393h-394z" />
<glyph unicode="W" horiz-adv-x="1886" d="M0 1393h324l94 -428l114 -609h3q59 276 135 572l118 465h299l132 -480l135 -542h4q57 324 121 616l86 406h321l-340 -1393h-358l-123 449q-27 98 -57.5 226t-46.5 206l-17 80h-2q-47 -223 -121 -502l-123 -459h-360z" />
<glyph unicode="X" horiz-adv-x="1404" d="M-10 0l526 725l-477 668h385l289 -424l278 424h375l-481 -650l530 -743h-383l-338 508l-348 -508h-356z" />
<glyph unicode="Y" horiz-adv-x="1300" d="M-16 1393h356l307 -535l316 535h354l-529 -838v-555h-309v557z" />
<glyph unicode="Z" horiz-adv-x="1191" d="M61 0v250l660 866h-635v277h1038v-228l-665 -886h667v-279h-1065z" />
<glyph unicode="[" horiz-adv-x="679" d="M141 -324v1717h488v-222h-193v-1273h193v-222h-488z" />
<glyph unicode="\" horiz-adv-x="1089" d="M31 1393h311l737 -1393h-313z" />
<glyph unicode="]" horiz-adv-x="679" d="M51 -102h193v1273h-193v222h488v-1717h-488v222z" />
<glyph unicode="^" horiz-adv-x="1583" d="M299 627l385 766h231l369 -766h-330l-159 342l-160 -342h-336z" />
<glyph unicode="_" horiz-adv-x="1060" d="M-8 -111h1077v-282h-1077v282z" />
<glyph unicode="`" horiz-adv-x="1024" d="M252 1393h362l136 -297h-256z" />
<glyph unicode="a" horiz-adv-x="1079" d="M61 289q0 131 90.5 198.5t258.5 94.5l202 32q39 6 50.5 14.5t11.5 30.5v17q0 115 -144 115q-162 0 -161 -142l-277 2q-2 164 120 254t331 90q408 0 407 -299v-452q0 -47 10.5 -64.5t40.5 -17.5h15v-172q-68 -12 -139 -13q-162 0 -187 89h-2q-82 -90 -274 -91 q-164 0 -258.5 82t-94.5 232zM358 285q0 -115 146 -115q78 0 123 37t45 110v125q-61 -23 -146 -39q-88 -16 -128 -38.5t-40 -79.5z" />
<glyph unicode="b" horiz-adv-x="1232" d="M131 0v1393h299v-508q41 45 117 79.5t168 34.5q207 0 330.5 -140t123.5 -372q0 -225 -125.5 -368.5t-328.5 -143.5q-188 0 -285 113v-88h-299zM422 487q0 -127 61.5 -205.5t161.5 -78.5q104 0 162.5 76.5t58.5 207.5q0 135 -56 211t-165 76q-100 0 -161.5 -80t-61.5 -207 z" />
<glyph unicode="c" horiz-adv-x="1048" d="M63 483q0 244 140.5 380t376.5 136q188 0 302.5 -86t155.5 -217l-258 -88q-45 166 -200 166q-104 0 -158.5 -74.5t-54.5 -212.5q0 -135 55 -209.5t158 -74.5q147 0 194 143l254 -104q-45 -115 -156.5 -191t-291.5 -76q-236 0 -376.5 133t-140.5 375z" />
<glyph unicode="d" horiz-adv-x="1232" d="M63 487q0 225 126 368.5t329 143.5q190 0 285 -112v506h299v-1393h-299v90q-41 -45 -117 -80t-170 -35q-207 0 -330 140.5t-123 371.5zM367 487q0 -135 56 -210.5t165 -75.5q100 0 161.5 79.5t61.5 206.5t-61.5 206t-161.5 79q-104 0 -162.5 -77t-58.5 -208z" />
<glyph unicode="e" horiz-adv-x="1107" d="M63 492q0 227 140.5 367t359.5 140q233 0 359.5 -147t126.5 -381q0 -43 -2 -61h-695q8 -86 69.5 -142.5t166.5 -56.5q164 0 241 135l207 -139q-162 -231 -467 -232q-221 0 -363.5 138.5t-142.5 378.5zM352 602h408q-4 86 -57.5 138.5t-141.5 52.5q-86 0 -145.5 -56.5 t-63.5 -134.5z" />
<glyph unicode="f" horiz-adv-x="704" d="M18 772v203h162v106q0 143 60 226q72 98 280 98q94 0 180 -12v-226q-37 4 -82 4q-78 0 -110 -26q-29 -25 -29 -88v-82h221v-203h-221v-772h-299v772h-162z" />
<glyph unicode="g" horiz-adv-x="1224" d="M61 508q0 207 127 349t324 142q188 0 287 -108v84h299v-875q0 -264 -120 -378.5t-407 -114.5q-457 0 -485 356l279 21q29 -154 213 -154q119 0 169 52t50 167v70q-90 -106 -289 -107q-201 0 -324 137.5t-123 358.5zM362 504q0 -125 57.5 -198t162.5 -73q98 0 160.5 75 t62.5 196q0 119 -63.5 193.5t-159.5 74.5q-100 0 -160 -73.5t-60 -194.5z" />
<glyph unicode="h" horiz-adv-x="1183" d="M131 0v1393h299v-533q37 61 112.5 100t176.5 39q170 0 256 -94q49 -55 67.5 -125.5t18.5 -226.5v-553h-299v492q0 53 -2 84.5t-10.5 68.5t-23.5 55.5t-45 31.5t-73 13q-90 0 -134 -63.5t-44 -167.5v-514h-299z" />
<glyph unicode="i" horiz-adv-x="563" d="M131 0v975h301v-975h-301zM131 1100v293h301v-293h-301z" />
<glyph unicode="j" horiz-adv-x="565" d="M-29 -135h19q74 0 107.5 24.5t33.5 104.5v981h303v-1026q0 -111 -26 -176q-33 -80 -107 -113t-213 -33q-63 0 -117 4v234zM131 1100v293h303v-293h-303z" />
<glyph unicode="k" horiz-adv-x="1157" d="M131 0v1393h299v-740l311 322h396l-398 -379l426 -596h-368l-273 397l-94 -88v-309h-299z" />
<glyph unicode="l" horiz-adv-x="561" d="M131 0v1393h299v-1393h-299z" />
<glyph unicode="m" horiz-adv-x="1785" d="M131 0v975h295v-121q37 63 112.5 104t172.5 41q225 0 303 -176q39 72 122 124t191 52q164 0 250 -94q49 -55 67.5 -125.5t18.5 -226.5v-553h-299v492q0 57 -1 84.5t-8 67.5t-22.5 57.5t-44 30.5t-71.5 13q-170 0 -170 -231v-514h-299v492q0 57 -1.5 85.5t-9.5 66.5 t-23.5 56.5t-44 31.5t-71.5 13q-168 0 -168 -231v-514h-299z" />
<glyph unicode="n" horiz-adv-x="1183" d="M131 0v975h295v-121q37 63 114.5 104t178.5 41q170 0 256 -94q49 -55 67.5 -125.5t18.5 -226.5v-553h-299v492q0 53 -2 84.5t-10.5 68.5t-23.5 55.5t-45 31.5t-73 13q-90 0 -134 -63.5t-44 -167.5v-514h-299z" />
<glyph unicode="o" horiz-adv-x="1161" d="M63 483q0 244 140.5 380t376 136t377 -136t141.5 -380q0 -242 -141.5 -375t-377 -133t-376 133t-140.5 375zM367 487q0 -135 55 -209.5t157.5 -74.5t159 74.5t56.5 209.5q0 137 -55.5 212t-160 75t-158.5 -75t-54 -212z" />
<glyph unicode="p" horiz-adv-x="1232" d="M131 -369v1344h299v-90q41 45 117 79.5t168 34.5q207 0 330.5 -140t123.5 -372q0 -225 -125.5 -368.5t-328.5 -143.5q-188 0 -285 113v-457h-299zM422 487q0 -127 61.5 -205.5t161.5 -78.5q104 0 162.5 76.5t58.5 207.5q0 135 -56 211t-165 76q-100 0 -161.5 -80 t-61.5 -207z" />
<glyph unicode="q" horiz-adv-x="1232" d="M63 487q0 225 126 368.5t329 143.5q188 0 285 -112v88h299v-1344h-299v459q-41 -45 -117 -80t-168 -35q-207 0 -331 140.5t-124 371.5zM367 487q0 -135 56 -210.5t165 -75.5q100 0 161.5 79.5t61.5 206.5t-61.5 206t-161.5 79q-104 0 -162.5 -77t-58.5 -208z" />
<glyph unicode="r" horiz-adv-x="745" d="M131 0v975h295v-133q23 59 99.5 107t174.5 48q23 0 35 -2v-286q-49 12 -96 12q-158 0 -195 -137q-14 -51 -14 -131v-453h-299z" />
<glyph unicode="s" horiz-adv-x="1011" d="M25 195l188 151q47 -66 131 -107.5t180 -41.5q152 0 152 86q0 27 -20.5 43t-41 21t-63.5 13l-154 31q-158 29 -241 103q-84 72 -84 190q0 160 125 237.5t290 77.5q258 0 426 -161l-168 -160q-117 106 -264 106q-55 0 -91 -18t-36 -53q0 -37 32 -53.5t114 -32.5l153 -33 q139 -29 220 -92.5t81 -190.5q0 -162 -122.5 -249t-307.5 -87q-162 0 -295.5 63t-203.5 157z" />
<glyph unicode="t" horiz-adv-x="737" d="M-8 772v203h188v332l299 59v-391h213v-203h-213v-432q0 -76 25 -100q29 -31 112 -31q47 0 76 4v-217q-82 -16 -180 -16q-227 0 -291 83q-41 55 -41 201v508h-188z" />
<glyph unicode="u" horiz-adv-x="1171" d="M119 422v553h299v-492q0 -57 1 -85.5t9 -66.5t23.5 -56.5t44 -32t71.5 -13.5q86 0 130 63.5t44 168.5v514h299v-975h-295v121q-37 -63 -113.5 -104.5t-174.5 -41.5q-166 0 -252 95q-49 55 -67.5 125.5t-18.5 226.5z" />
<glyph unicode="v" horiz-adv-x="983" d="M-4 975h313l133 -490l54 -217h2q23 115 51 224l129 483h309l-319 -975h-357z" />
<glyph unicode="w" horiz-adv-x="1533" d="M-4 975h307l78 -422q51 -281 55 -299h2l31 136l39 169l102 416h320l104 -420l68 -301h2q16 76 59 307l80 414h295l-258 -975h-369l-80 377l-65 332h-2q-10 -47 -32.5 -164t-35.5 -172l-82 -373h-372z" />
<glyph unicode="x" horiz-adv-x="985" d="M-6 0l338 524l-301 451h336l141 -238l133 238h320l-306 -457l340 -518h-329l-177 293l-172 -293h-323z" />
<glyph unicode="y" horiz-adv-x="980" d="M-4 975h313l140 -520l49 -209h2q23 121 45 209l133 520h307l-336 -1055q-51 -160 -102 -213q-78 -84 -289 -84q-92 0 -182 8v232q41 -2 90 -2q39 0 57.5 1t47 8t41 24.5t12.5 48.5q0 18 -31 118z" />
<glyph unicode="z" horiz-adv-x="1005" d="M66 0v211l469 516h-449v248h838v-213l-459 -514h479v-248h-878z" />
<glyph unicode="{" horiz-adv-x="733" d="M92 426v225q82 25 100.5 62t18.5 131v196q0 215 90 284t320 69h61v-211q-111 0 -142.5 -41t-31.5 -152v-155q0 -137 -20.5 -193.5t-88.5 -99.5v-4q68 -43 88.5 -99.5t20.5 -193.5v-164q0 -111 31.5 -152t142.5 -41v-211h-61q-229 0 -319.5 68t-90.5 283v206q0 68 -4 95.5 t-31 54.5t-84 43z" />
<glyph unicode="|" horiz-adv-x="557" d="M131 -324v1717h295v-1717h-295z" />
<glyph unicode="}" horiz-adv-x="733" d="M51 1182v211h62q229 0 319 -69t90 -284v-196q0 -68 4 -95.5t31 -54t84 -43.5v-225q-82 -25 -100.5 -61.5t-18.5 -131.5v-206q0 -215 -90 -283t-319 -68h-62v211q111 0 142.5 41t31.5 152v164q0 137 20.5 193.5t88.5 99.5v4q-68 43 -88.5 99t-20.5 194v155 q0 111 -31.5 152t-142.5 41z" />
<glyph unicode="~" horiz-adv-x="1583" d="M240 623q47 74 141 138t205 64q102 0 248 -80q88 -47 135 -47q100 0 209 129l137 -237q-70 -88 -167 -138.5t-187 -50.5q-98 0 -218 60q-123 61 -161.5 61t-80.5 -27.5t-112 -113.5z" />
<glyph unicode="&#xa1;" horiz-adv-x="577" d="M139 651v324h299v-324h-299zM141 139l29 400h242l24 -400v-557h-295v557z" />
<glyph unicode="&#xa2;" d="M121 483q0 209 106.5 341t290.5 165v199h236v-199q137 -27 222 -105.5t120 -187.5l-258 -88q-45 166 -201 166q-104 0 -158.5 -74.5t-54.5 -212.5q0 -135 55.5 -209.5t157.5 -74.5q147 0 194 143l254 -104q-84 -215 -331 -256v-215h-236v215q-184 31 -290.5 159.5 t-106.5 337.5z" />
<glyph unicode="&#xa3;" d="M90 0v250q111 6 158 54t47 188q0 16 -4 81h-201v261h180q-4 45 -4 116q0 94 21.5 173t67.5 146.5t132 105.5t205 38q412 0 420 -428l-264 -49q-4 104 -35 158.5t-113 54.5q-141 0 -141 -211q0 -43 4 -104h283v-261h-268q0 -12 1 -36.5t1 -36.5q0 -160 -68 -219h571v-281 h-993z" />
<glyph unicode="&#xa4;" horiz-adv-x="1175" d="M80 879l205 204l123 -125q80 39 182 39t188 -36l119 118l199 -198l-121 -119q41 -88 41 -191q0 -98 -39 -188q72 -63 119 -115l-199 -200l-117 116q-84 -37 -190 -37q-109 0 -189 37l-118 -118l-201 200l121 119q-37 80 -37 186q0 104 43 189l-33 28zM424 571 q0 -74 47 -124t119 -50q74 0 121 50.5t47 123.5q0 76 -46 124t-122 48q-72 0 -119 -48t-47 -124z" />
<glyph unicode="&#xa5;" d="M25 1393h342l235 -529l242 529h340l-316 -590h209v-252h-338v-111h338v-254h-338v-186h-301v186h-329v254h329v111h-329v252h208z" />
<glyph unicode="&#xa6;" horiz-adv-x="540" d="M123 -324v662h295v-662h-295zM123 731v662h295v-662h-295z" />
<glyph unicode="&#xa7;" horiz-adv-x="1067" d="M51 41l189 152q47 -66 131 -108t180 -42q152 0 151 86q0 12 -4 22.5t-13 18.5t-16 15.5t-23.5 15.5t-25 11t-29 12t-26.5 12l-119 51q-86 37 -129 59.5t-104 67.5t-89 103t-28 136q0 160 150 240q-111 78 -111 217q0 154 124 231.5t292 77.5q258 0 426 -162l-168 -159 q-117 106 -262 106q-57 0 -93 -19.5t-36 -54.5q0 -37 32.5 -57t139.5 -67l121 -52q262 -113 262 -315q0 -150 -131 -254q139 -84 139 -231q0 -160 -126 -246t-310 -86q-156 0 -290 62.5t-204 156.5zM379 676q0 -45 33.5 -74t109.5 -59l107 -45q68 35 67 106q0 45 -37.5 78 t-115.5 66l-86 34q-33 -12 -55.5 -41.5t-22.5 -64.5z" />
<glyph unicode="&#xa8;" horiz-adv-x="1024" d="M205 1128v238h239v-238h-239zM584 1128v238h239v-238h-239z" />
<glyph unicode="&#xa9;" horiz-adv-x="1605" d="M102 715q0 295 203 498.5t498 203.5t497.5 -203.5t202.5 -498.5t-202.5 -499t-497.5 -204t-498 204t-203 499zM285 715q0 -221 148.5 -375t369.5 -154t369.5 153t148.5 376t-148.5 375.5t-369.5 152.5t-369.5 -153.5t-148.5 -374.5zM442 713q0 186 99.5 298.5 t265.5 112.5q141 0 220 -75.5t110 -171.5l-172 -70q-37 147 -158 147q-78 0 -123 -63.5t-45 -175.5q0 -111 46 -173.5t122 -62.5q111 0 162 129l168 -69q-100 -229 -330 -230q-168 0 -266.5 110t-98.5 294z" />
<glyph unicode="&#xaa;" horiz-adv-x="770" d="M61 938q0 92 57.5 135t176.5 66l137 22q27 6 33 11.5t6 21.5v8q0 78 -98 78q-106 0 -109 -98l-184 6q-2 113 82 171t223 58q135 0 204.5 -45t69.5 -151v-316q0 -33 7.5 -44t27.5 -11h11v-111q-61 -8 -97 -8q-106 0 -125 53q-68 -55 -186 -55q-106 0 -171 54.5t-65 154.5z M258 940q0 -80 96 -80q53 0 85 25.5t32 77.5v77l-55 -12l-45 -8q-59 -10 -86 -26.5t-27 -53.5z" />
<glyph unicode="&#xab;" horiz-adv-x="1050" d="M80 426v291l371 309v-330l-156 -121l156 -129v-325zM537 426v291l370 309v-330l-153 -121l153 -129v-325z" />
<glyph unicode="&#xac;" horiz-adv-x="1583" d="M225 694v236h1063v-639h-254v403h-809z" />
<glyph unicode="&#xad;" horiz-adv-x="745" d="M82 461v282h582v-282h-582z" />
<glyph unicode="&#xae;" horiz-adv-x="1605" d="M102 715q0 295 203 498.5t498 203.5t497.5 -203.5t202.5 -498.5t-202.5 -499t-497.5 -204t-498 204t-203 499zM285 715q0 -221 148.5 -375t369.5 -154t369.5 153t148.5 376t-148.5 375.5t-369.5 152.5t-369.5 -153.5t-148.5 -374.5zM479 348v748h324q123 0 182 -25 q63 -29 100 -87t37 -134q0 -180 -159 -229l200 -273h-239l-179 260h-77v-260h-189zM668 770h127q72 0 104 14q31 23 31 66q0 49 -31 68q-20 10 -104 10h-127v-158z" />
<glyph unicode="&#xaf;" horiz-adv-x="1024" d="M199 1128v252h626v-252h-626z" />
<glyph unicode="&#xb0;" horiz-adv-x="942" d="M74 1020q0 166 115.5 281.5t281.5 115.5t281.5 -115.5t115.5 -281.5t-115.5 -281.5t-281.5 -115.5t-281.5 115.5t-115.5 281.5zM315 1019.5q0 -63.5 46.5 -109.5t110 -46t109.5 46t46 109.5t-46 110t-109.5 46.5t-110 -46.5t-46.5 -110z" />
<glyph unicode="&#xb1;" horiz-adv-x="1583" d="M184 0v258h1213v-258h-1213zM184 608v283h465v334h285v-334h463v-283h-463v-274h-285v274h-465z" />
<glyph unicode="&#xb2;" horiz-adv-x="819" d="M84 563v142q133 92 266 208q74 63 112 116.5t38 113.5q0 92 -101 92q-47 0 -73.5 -32t-26.5 -79q0 -57 25 -112l-224 28q-16 49 -16 107q0 119 86 194.5t240 75.5q143 0 226 -72.5t83 -195.5q0 -152 -135 -281q-80 -72 -146 -116h273v-189h-627z" />
<glyph unicode="&#xb3;" horiz-adv-x="819" d="M70 815l209 35q4 -127 118 -127q111 0 111 94q0 68 -70 86q-27 8 -78 8h-61v164h68q59 0 88 17q41 23 41 73q0 76 -101 76q-109 0 -108 -108l-197 32q0 98 85 175t228.5 77t223.5 -63.5t80 -163.5q0 -117 -101 -178q123 -70 123 -207q0 -115 -88 -190.5t-244 -75.5 q-154 0 -238.5 74.5t-88.5 201.5z" />
<glyph unicode="&#xb4;" horiz-adv-x="1024" d="M268 1096l135 297h363l-242 -297h-256z" />
<glyph unicode="&#xb5;" horiz-adv-x="1183" d="M131 -369v1344h299v-492q0 -57 1 -85.5t9.5 -66.5t23.5 -56.5t44 -32t72 -13.5q86 0 130 63.5t44 168.5v514h299v-975h-295v121q-63 -129 -226 -129q-47 0 -102 16v-377h-299z" />
<glyph unicode="&#xb6;" horiz-adv-x="1529" d="M41 967q0 227 156 338q125 88 366 88h869v-267h-162v-1388h-254v1388h-193v-1388h-254v803h-39q-223 0 -350 98q-139 111 -139 328z" />
<glyph unicode="&#xb7;" horiz-adv-x="550" d="M113 408v364h325v-364h-325z" />
<glyph unicode="&#xb8;" horiz-adv-x="1024" d="M354 -104l101 110h145l-59 -67q90 0 138 -46.5t48 -111.5q0 -84 -63.5 -132t-155.5 -48q-82 0 -152 34l50 127q29 -23 77 -22q66 0 66 49q0 47 -62 47q-51 0 -79 -29z" />
<glyph unicode="&#xb9;" horiz-adv-x="819" d="M127 1032v166h27q98 0 153 39q66 49 70 156h211v-832h-230v471h-231z" />
<glyph unicode="&#xba;" horiz-adv-x="759" d="M68 1071q0 160 84 253t229 93q143 0 227 -93t84 -253q0 -162 -83 -254t-228 -92q-147 0 -230 92t-83 254zM240 1071q0 -90 37.5 -142t103.5 -52q63 0 100 52t37 142t-37 142.5t-100 52.5q-68 0 -104.5 -53.5t-36.5 -141.5z" />
<glyph unicode="&#xbb;" horiz-adv-x="1050" d="M143 121v325l154 129l-154 121v330l371 -309v-291zM600 121v325l156 129l-156 121v330l371 -309v-291z" />
<glyph unicode="&#xbc;" horiz-adv-x="1738" d="M45 1032v166h27q98 0 153 39q66 49 70 156h211v-832h-230v471h-231zM354 0l725 1393h260l-721 -1393h-264zM963 172v154l374 522h219v-494h119v-182h-119v-172h-206v172h-387zM1186 354h96h68v95l4 149h-2q-41 -66 -70 -106l-27 -39l-69 -97v-2z" />
<glyph unicode="&#xbd;" horiz-adv-x="1880" d="M45 1032v166h27q98 0 153 39q66 49 70 156h211v-832h-230v471h-231zM354 0l725 1393h260l-721 -1393h-264zM1153 0v141q133 92 266 209q74 63 112 116.5t38 113.5q0 92 -101 92q-47 0 -73.5 -32t-26.5 -79q0 -57 25 -112l-224 28q-16 49 -16 107q0 119 86 194.5t240 75.5 q143 0 226 -72.5t83 -195.5q0 -152 -135 -281q-80 -72 -146 -117h273v-188h-627z" />
<glyph unicode="&#xbe;" horiz-adv-x="1863" d="M39 815l209 35q4 -127 119 -127q111 0 110 94q0 68 -69 86q-27 8 -78 8h-62v164h68q59 0 88 17q41 23 41 73q0 76 -100 76q-109 0 -109 -108l-197 32q0 98 85 175t228.5 77t223.5 -63.5t80 -163.5q0 -117 -101 -178q123 -70 123 -207q0 -115 -88 -190.5t-243 -75.5 q-154 0 -239 74.5t-89 201.5zM479 0l725 1393h260l-721 -1393h-264zM1087 172v154l375 522h219v-494h119v-182h-119v-172h-206v172h-388zM1311 354h96h68v95l4 149h-2q-41 -66 -70 -106l-27 -39l-69 -97v-2z" />
<glyph unicode="&#xbf;" horiz-adv-x="1048" d="M63 -33q0 223 179 363l75 59q66 51 88.5 84t22.5 92v39h279v-51q0 -106 -32 -173t-128 -149l-78 -65q-102 -82 -102 -195q0 -78 43 -118.5t122 -40.5q86 0 127 51t41 131q0 74 -32 143l303 -26q18 -70 18 -140q0 -178 -123 -295.5t-334 -117.5q-240 0 -354.5 117.5 t-114.5 291.5zM410 680v295h311v-295h-311z" />
<glyph unicode="&#xc0;" horiz-adv-x="1288" d="M-10 0l469 1393h375l464 -1393h-331l-82 276h-490l-80 -276h-325zM319 1862h363l135 -297h-256zM471 530h334l-115 394l-47 180h-2l-51 -182z" />
<glyph unicode="&#xc1;" horiz-adv-x="1288" d="M-10 0l469 1393h375l464 -1393h-331l-82 276h-490l-80 -276h-325zM471 530h334l-115 394l-47 180h-2l-51 -182zM502 1565l135 297h362l-241 -297h-256z" />
<glyph unicode="&#xc2;" horiz-adv-x="1288" d="M-10 0l469 1393h375l464 -1393h-331l-82 276h-490l-80 -276h-325zM324 1565l227 297h215l242 -297h-242l-102 131l-105 -131h-235zM471 530h334l-115 394l-47 180h-2l-51 -182z" />
<glyph unicode="&#xc3;" horiz-adv-x="1288" d="M-10 0l469 1393h375l464 -1393h-331l-82 276h-490l-80 -276h-325zM262 1640q16 76 85 155t171 79q55 0 146 -45q72 -39 118 -39q59 0 90 76l172 -70q-43 -109 -101 -173t-161 -64q-68 0 -149 38q-94 47 -119 48q-51 0 -80 -76zM471 530h334l-115 394l-47 180h-2l-51 -182 z" />
<glyph unicode="&#xc4;" horiz-adv-x="1288" d="M-10 0l469 1393h375l464 -1393h-331l-82 276h-490l-80 -276h-325zM354 1593v238h240v-238h-240zM471 530h334l-115 394l-47 180h-2l-51 -182zM733 1593v238h240v-238h-240z" />
<glyph unicode="&#xc5;" horiz-adv-x="1288" d="M-10 0l469 1393h375l464 -1393h-331l-82 276h-490l-80 -276h-325zM428 1730.5q0 98.5 66.5 164t165 65.5t165 -65.5t66.5 -164t-66.5 -164t-165 -65.5t-165 65.5t-66.5 164zM471 530h334l-115 394l-47 180h-2l-51 -182zM586 1730.5q0 -30.5 21.5 -51t50 -20.5t50 20.5 t21.5 51t-21.5 51t-50 20.5t-50 -20.5t-21.5 -51z" />
<glyph unicode="&#xc6;" horiz-adv-x="1943" d="M-61 0l770 1393h1116v-273h-672v-274h606v-271h-606v-301h719v-274h-1022v317h-408l-176 -317h-327zM590 590h260v303l6 201h-2l-88 -168z" />
<glyph unicode="&#xc7;" horiz-adv-x="1349" d="M78 696q0 324 182 522.5t483 198.5q217 0 361.5 -100t214.5 -256l-258 -109q-88 211 -313 211q-172 0 -266.5 -124t-94.5 -343t93 -339.5t268 -120.5q219 0 307 190l254 -121q-160 -313 -529 -328l-30 -38q90 0 138 -46.5t48 -111.5q0 -84 -63.5 -132t-155.5 -48 q-82 0 -152 34l49 127q29 -23 78 -22q66 0 66 49q0 47 -62 47q-51 0 -80 -29l-53 89l78 86q-264 33 -413.5 226t-149.5 488z" />
<glyph unicode="&#xc8;" horiz-adv-x="1239" d="M141 0v1393h979v-273h-671v-274h606v-271h-606v-301h718v-274h-1026zM324 1862h362l135 -297h-256z" />
<glyph unicode="&#xc9;" horiz-adv-x="1239" d="M141 0v1393h979v-273h-671v-274h606v-271h-606v-301h718v-274h-1026zM471 1565l135 297h363l-242 -297h-256z" />
<glyph unicode="&#xca;" horiz-adv-x="1239" d="M141 0v1393h979v-273h-671v-274h606v-271h-606v-301h718v-274h-1026zM301 1565l227 297h215l242 -297h-242l-102 131l-104 -131h-236z" />
<glyph unicode="&#xcb;" horiz-adv-x="1239" d="M141 0v1393h979v-273h-671v-274h606v-271h-606v-301h718v-274h-1026zM346 1593v238h240v-238h-240zM725 1593v238h240v-238h-240z" />
<glyph unicode="&#xcc;" horiz-adv-x="591" d="M-43 1862h362l136 -297h-256zM141 0v1393h310v-1393h-310z" />
<glyph unicode="&#xcd;" horiz-adv-x="591" d="M141 0h310v1393h-310v-1393zM162 1565l135 297h362l-241 -297h-256z" />
<glyph unicode="&#xce;" horiz-adv-x="591" d="M-33 1565l228 297h215l241 -297h-241l-103 131l-104 -131h-236zM141 0h310v1393h-310v-1393z" />
<glyph unicode="&#xcf;" horiz-adv-x="591" d="M-29 1585v264h269v-264h-269zM141 0h310v1393h-310v-1393zM354 1585v264h269v-264h-269z" />
<glyph unicode="&#xd0;" horiz-adv-x="1400" d="M6 557v274h135v562h512q244 0 371 -64q156 -76 237.5 -245t81.5 -384q0 -354 -206 -555q-70 -70 -164 -102.5t-171 -37.5t-239 -5h-422v557h-135zM449 289h141q88 0 135 3t101.5 19.5t86.5 48.5q111 111 111 332q0 227 -125 336q-51 43 -125 57.5t-207 14.5h-118v-269 h342v-274h-342v-268z" />
<glyph unicode="&#xd1;" horiz-adv-x="1429" d="M141 0v1393h314l333 -545q111 -182 205 -356h2q-12 274 -12 436v465h305v-1393h-311l-330 537l-211 374h-2q14 -231 15 -454v-457h-308zM344 1640q16 76 85 155t171 79q55 0 145 -45q72 -39 119 -39q59 0 90 76l172 -70q-43 -109 -101 -173t-161 -64q-68 0 -149 38 q-94 47 -119 48q-51 0 -80 -76z" />
<glyph unicode="&#xd2;" horiz-adv-x="1503" d="M78 696.5q0 323.5 183 522t490.5 198.5t490.5 -198.5t183 -522.5q0 -326 -178 -523.5t-495 -197.5q-313 0 -493.5 199t-180.5 522.5zM387 696q0 -219 94 -339.5t270.5 -120.5t270.5 120.5t94 339.5t-96 343t-268 124q-174 0 -269.5 -124t-95.5 -343zM428 1862h363 l135 -297h-256z" />
<glyph unicode="&#xd3;" horiz-adv-x="1503" d="M78 696.5q0 323.5 183 522t490.5 198.5t490.5 -198.5t183 -522.5q0 -326 -178 -523.5t-495 -197.5q-313 0 -493.5 199t-180.5 522.5zM387 696q0 -219 94 -339.5t270.5 -120.5t270.5 120.5t94 339.5t-96 343t-268 124q-174 0 -269.5 -124t-95.5 -343zM590 1565l135 297 h362l-241 -297h-256z" />
<glyph unicode="&#xd4;" horiz-adv-x="1503" d="M78 696.5q0 323.5 183 522t490.5 198.5t490.5 -198.5t183 -522.5q0 -326 -178 -523.5t-495 -197.5q-313 0 -493.5 199t-180.5 522.5zM387 696q0 -219 94 -339.5t270.5 -120.5t270.5 120.5t94 339.5t-96 343t-268 124q-174 0 -269.5 -124t-95.5 -343zM418 1565l227 297 h215l242 -297h-242l-102 131l-105 -131h-235z" />
<glyph unicode="&#xd5;" horiz-adv-x="1503" d="M78 696.5q0 323.5 183 522t490.5 198.5t490.5 -198.5t183 -522.5q0 -326 -178 -523.5t-495 -197.5q-313 0 -493.5 199t-180.5 522.5zM360 1640q16 76 85 155t171 79q55 0 146 -45q72 -39 119 -39q59 0 90 76l172 -70q-43 -109 -101.5 -173t-160.5 -64q-68 0 -150 38 q-94 47 -119 48q-51 0 -80 -76zM387 696q0 -219 94 -339.5t270.5 -120.5t270.5 120.5t94 339.5t-96 343t-268 124q-174 0 -269.5 -124t-95.5 -343z" />
<glyph unicode="&#xd6;" horiz-adv-x="1503" d="M78 696.5q0 323.5 183 522t490.5 198.5t490.5 -198.5t183 -522.5q0 -326 -178 -523.5t-495 -197.5q-313 0 -493.5 199t-180.5 522.5zM387 696q0 -219 94 -339.5t270.5 -120.5t270.5 120.5t94 339.5t-96 343t-268 124q-174 0 -269.5 -124t-95.5 -343zM444 1593v238h240 v-238h-240zM823 1593v238h240v-238h-240z" />
<glyph unicode="&#xd7;" horiz-adv-x="1583" d="M180 203l410 409l-408 406l201 203l410 -406l405 406l203 -203l-406 -406l406 -409l-203 -201l-405 408l-410 -410z" />
<glyph unicode="&#xd8;" horiz-adv-x="1503" d="M-4 102l174 195q-92 166 -92 399q0 324 183 522.5t491 198.5q193 0 346 -86l153 172l213 -194l-157 -176q119 -182 118 -437q0 -326 -178 -523.5t-495 -197.5q-229 0 -385 107l-152 -170zM387 696q0 -78 12 -145l514 575q-70 37 -161 37q-174 0 -269.5 -124t-95.5 -343z M553 289q82 -53 199 -53q176 0 270 120.5t94 339.5q0 109 -24 195z" />
<glyph unicode="&#xd9;" horiz-adv-x="1384" d="M133 567v826h309v-820q0 -143 27 -215q51 -117 223 -116q174 0 226 116q25 55 24 215v820h309v-826q0 -152 -15 -233.5t-56 -149.5q-119 -209 -487.5 -209t-487.5 209q-41 68 -56.5 149.5t-15.5 233.5zM350 1862h363l135 -297h-256z" />
<glyph unicode="&#xda;" horiz-adv-x="1384" d="M133 567v826h309v-820q0 -143 27 -215q51 -117 223 -116q174 0 226 116q25 55 24 215v820h309v-826q0 -152 -15 -233.5t-56 -149.5q-119 -209 -487.5 -209t-487.5 209q-41 68 -56.5 149.5t-15.5 233.5zM526 1565l136 297h362l-242 -297h-256z" />
<glyph unicode="&#xdb;" horiz-adv-x="1384" d="M133 567v826h309v-820q0 -143 27 -215q51 -117 223 -116q174 0 226 116q25 55 24 215v820h309v-826q0 -152 -15 -233.5t-56 -149.5q-119 -209 -487.5 -209t-487.5 209q-41 68 -56.5 149.5t-15.5 233.5zM358 1565l228 297h215l241 -297h-241l-103 131l-104 -131h-236z" />
<glyph unicode="&#xdc;" horiz-adv-x="1384" d="M133 567v826h309v-820q0 -143 27 -215q51 -117 223 -116q174 0 226 116q25 55 24 215v820h309v-826q0 -152 -15 -233.5t-56 -149.5q-119 -209 -487.5 -209t-487.5 209q-41 68 -56.5 149.5t-15.5 233.5zM389 1593v238h240v-238h-240zM768 1593v238h240v-238h-240z" />
<glyph unicode="&#xdd;" horiz-adv-x="1300" d="M-16 1393h356l307 -535l316 535h354l-529 -838v-555h-309v557zM498 1565l135 297h362l-241 -297h-256z" />
<glyph unicode="&#xde;" horiz-adv-x="1284" d="M141 0v1393h310v-166h223q209 0 325 -45q123 -49 194 -152.5t71 -251.5q0 -248 -195 -364q-131 -76 -412 -76h-206v-338h-310zM451 610h243q115 0 168 23q90 41 90 149q0 115 -92 154q-53 20 -168 20h-241v-346z" />
<glyph unicode="&#xdf;" horiz-adv-x="1095" d="M123 0v991q0 223 96 320q104 104 330 104q211 0 312.5 -92t101.5 -233q0 -186 -146 -259q90 -37 143.5 -118.5t53.5 -253.5q0 -242 -101.5 -354.5t-314.5 -112.5q-37 0 -82 4v225h10q113 0 152 57.5t39 186.5q0 119 -40 171t-161 52v211q156 0 156 152q0 135 -127 135 q-66 0 -96 -43q-27 -35 -27 -150v-993h-299z" />
<glyph unicode="&#xe0;" horiz-adv-x="1079" d="M61 289q0 131 90.5 198.5t258.5 94.5l202 32q39 6 50.5 14.5t11.5 30.5v17q0 115 -144 115q-162 0 -161 -142l-277 2q-2 164 120 254t331 90q408 0 407 -299v-452q0 -47 10.5 -64.5t40.5 -17.5h15v-172q-68 -12 -139 -13q-162 0 -187 89h-2q-82 -90 -274 -91 q-164 0 -258.5 82t-94.5 232zM225 1393h363l135 -297h-256zM358 285q0 -115 146 -115q78 0 123 37t45 110v125q-61 -23 -146 -39q-88 -16 -128 -38.5t-40 -79.5z" />
<glyph unicode="&#xe1;" horiz-adv-x="1079" d="M61 289q0 131 90.5 198.5t258.5 94.5l202 32q39 6 50.5 14.5t11.5 30.5v17q0 115 -144 115q-162 0 -161 -142l-277 2q-2 164 120 254t331 90q408 0 407 -299v-452q0 -47 10.5 -64.5t40.5 -17.5h15v-172q-68 -12 -139 -13q-162 0 -187 89h-2q-82 -90 -274 -91 q-164 0 -258.5 82t-94.5 232zM358 285q0 -115 146 -115q78 0 123 37t45 110v125q-61 -23 -146 -39q-88 -16 -128 -38.5t-40 -79.5zM371 1096l135 297h362l-241 -297h-256z" />
<glyph unicode="&#xe2;" horiz-adv-x="1079" d="M61 289q0 131 90.5 198.5t258.5 94.5l202 32q39 6 50.5 14.5t11.5 30.5v17q0 115 -144 115q-162 0 -161 -142l-277 2q-2 164 120 254t331 90q408 0 407 -299v-452q0 -47 10.5 -64.5t40.5 -17.5h15v-172q-68 -12 -139 -13q-162 0 -187 89h-2q-82 -90 -274 -91 q-164 0 -258.5 82t-94.5 232zM207 1096l227 297h215l242 -297h-242l-102 131l-105 -131h-235zM358 285q0 -115 146 -115q78 0 123 37t45 110v125q-61 -23 -146 -39q-88 -16 -128 -38.5t-40 -79.5z" />
<glyph unicode="&#xe3;" horiz-adv-x="1079" d="M61 289q0 131 90.5 198.5t258.5 94.5l202 32q39 6 50.5 14.5t11.5 30.5v17q0 115 -144 115q-162 0 -161 -142l-277 2q-2 164 120 254t331 90q408 0 407 -299v-452q0 -47 10.5 -64.5t40.5 -17.5h15v-172q-68 -12 -139 -13q-162 0 -187 89h-2q-82 -90 -274 -91 q-164 0 -258.5 82t-94.5 232zM150 1167q16 76 84.5 155t171.5 79q55 0 145 -45q72 -39 119 -39q59 0 90 76l172 -70q-43 -109 -101.5 -173.5t-160.5 -64.5q-68 0 -150 39q-94 47 -119 47q-51 0 -79 -75zM358 285q0 -115 146 -115q78 0 123 37t45 110v125q-61 -23 -146 -39 q-88 -16 -128 -38.5t-40 -79.5z" />
<glyph unicode="&#xe4;" horiz-adv-x="1079" d="M61 289q0 131 90.5 198.5t258.5 94.5l202 32q39 6 50.5 14.5t11.5 30.5v17q0 115 -144 115q-162 0 -161 -142l-277 2q-2 164 120 254t331 90q408 0 407 -299v-452q0 -47 10.5 -64.5t40.5 -17.5h15v-172q-68 -12 -139 -13q-162 0 -187 89h-2q-82 -90 -274 -91 q-164 0 -258.5 82t-94.5 232zM248 1128v238h239v-238h-239zM358 285q0 -115 146 -115q78 0 123 37t45 110v125q-61 -23 -146 -39q-88 -16 -128 -38.5t-40 -79.5zM627 1128v238h239v-238h-239z" />
<glyph unicode="&#xe5;" horiz-adv-x="1079" d="M61 289q0 131 90.5 198.5t258.5 94.5l202 32q39 6 50.5 14.5t11.5 30.5v17q0 115 -144 115q-162 0 -161 -142l-277 2q-2 164 120 254t331 90q408 0 407 -299v-452q0 -47 10.5 -64.5t40.5 -17.5h15v-172q-68 -12 -139 -13q-162 0 -187 89h-2q-82 -90 -274 -91 q-164 0 -258.5 82t-94.5 232zM313 1290.5q0 98.5 66.5 164t165 65.5t165 -65.5t66.5 -164t-66.5 -164t-165 -65.5t-165 65.5t-66.5 164zM358 285q0 -115 146 -115q78 0 123 37t45 110v125q-61 -23 -146 -39q-88 -16 -128 -38.5t-40 -79.5zM471 1290.5q0 -30.5 21.5 -51 t50 -20.5t50 20.5t21.5 51t-21.5 51t-50 20.5t-50 -20.5t-21.5 -51z" />
<glyph unicode="&#xe6;" horiz-adv-x="1714" d="M61 289q0 133 90.5 200.5t258.5 92.5l202 30q39 6 50.5 14.5t11.5 30.5v19q0 115 -144 115q-162 0 -161 -142l-277 2q-2 164 120 254t331 90q223 0 321 -90q141 94 305 94q233 0 359.5 -147t126.5 -381q0 -43 -2 -61h-695q8 -86 70 -142.5t166 -56.5q164 0 242 135 l206 -139q-162 -231 -466 -232q-221 0 -359 127q-139 -127 -379 -127q-377 1 -377 314zM358 285q0 -115 146 -115q78 0 123 37t45 110v125q-61 -23 -146 -39q-88 -16 -128 -38.5t-40 -79.5zM958 602h408q-4 86 -57.5 138.5t-141.5 52.5q-86 0 -145.5 -56.5t-63.5 -134.5z " />
<glyph unicode="&#xe7;" horiz-adv-x="1048" d="M63 483q0 244 140.5 380t376.5 136q188 0 302.5 -86t155.5 -217l-258 -88q-45 166 -200 166q-104 0 -158.5 -74.5t-54.5 -212.5q0 -135 55 -209.5t158 -74.5q147 0 194 143l254 -104q-43 -109 -146.5 -183.5t-267.5 -81.5v-2l-28 -36q90 0 138 -46.5t48 -111.5 q0 -84 -63.5 -132t-155.5 -48q-82 0 -152 34l50 127q29 -23 77 -22q66 0 66 49q0 47 -62 47q-51 0 -79 -29l-54 89l78 88q-193 27 -303.5 155.5t-110.5 343.5z" />
<glyph unicode="&#xe8;" horiz-adv-x="1107" d="M63 492q0 227 140.5 367t359.5 140q233 0 359.5 -147t126.5 -381q0 -43 -2 -61h-695q8 -86 69.5 -142.5t166.5 -56.5q164 0 241 135l207 -139q-162 -231 -467 -232q-221 0 -363.5 138.5t-142.5 378.5zM264 1393h363l135 -297h-256zM352 602h408q-4 86 -57.5 138.5 t-141.5 52.5q-86 0 -145.5 -56.5t-63.5 -134.5z" />
<glyph unicode="&#xe9;" horiz-adv-x="1107" d="M63 492q0 227 140.5 367t359.5 140q233 0 359.5 -147t126.5 -381q0 -43 -2 -61h-695q8 -86 69.5 -142.5t166.5 -56.5q164 0 241 135l207 -139q-162 -231 -467 -232q-221 0 -363.5 138.5t-142.5 378.5zM352 602h408q-4 86 -57.5 138.5t-141.5 52.5q-86 0 -145.5 -56.5 t-63.5 -134.5zM410 1096l135 297h362l-241 -297h-256z" />
<glyph unicode="&#xea;" horiz-adv-x="1107" d="M63 492q0 227 140.5 367t359.5 140q233 0 359.5 -147t126.5 -381q0 -43 -2 -61h-695q8 -86 69.5 -142.5t166.5 -56.5q164 0 241 135l207 -139q-162 -231 -467 -232q-221 0 -363.5 138.5t-142.5 378.5zM231 1096l228 297h215l241 -297h-241l-103 131l-104 -131h-236z M352 602h408q-4 86 -57.5 138.5t-141.5 52.5q-86 0 -145.5 -56.5t-63.5 -134.5z" />
<glyph unicode="&#xeb;" horiz-adv-x="1107" d="M63 492q0 227 140.5 367t359.5 140q233 0 359.5 -147t126.5 -381q0 -43 -2 -61h-695q8 -86 69.5 -142.5t166.5 -56.5q164 0 241 135l207 -139q-162 -231 -467 -232q-221 0 -363.5 138.5t-142.5 378.5zM264 1128v238h240v-238h-240zM352 602h408q-4 86 -57.5 138.5 t-141.5 52.5q-86 0 -145.5 -56.5t-63.5 -134.5zM643 1128v238h240v-238h-240z" />
<glyph unicode="&#xec;" horiz-adv-x="563" d="M-63 1393h362l135 -297h-256zM131 0v975h301v-975h-301z" />
<glyph unicode="&#xed;" horiz-adv-x="563" d="M131 0v975h301v-975h-301zM143 1096l136 297h362l-242 -297h-256z" />
<glyph unicode="&#xee;" horiz-adv-x="563" d="M-49 1096l227 297h215l242 -297h-242l-102 131l-105 -131h-235zM131 0v975h301v-975h-301z" />
<glyph unicode="&#xef;" horiz-adv-x="563" d="M-16 1128v238h239v-238h-239zM131 0v975h301v-975h-301zM362 1128v238h240v-238h-240z" />
<glyph unicode="&#xf0;" horiz-adv-x="1163" d="M63 483q0 244 140.5 380t376.5 136q78 0 137 -14q-31 80 -68 125l-287 -90l-57 178l219 68q-16 23 -78 75l224 111q59 -49 108 -111l230 72l55 -176l-164 -51q201 -311 201 -658q0 -244 -125 -398.5t-395 -154.5q-236 0 -376.5 133t-140.5 375zM367 487q0 -135 55 -209.5 t157.5 -74.5t159 74.5t56.5 209.5q0 137 -55.5 212t-160 75t-158.5 -75t-54 -212z" />
<glyph unicode="&#xf1;" horiz-adv-x="1183" d="M131 0v975h295v-121q37 63 114.5 104t178.5 41q170 0 256 -94q49 -55 67.5 -125.5t18.5 -226.5v-553h-299v492q0 53 -2 84.5t-10.5 68.5t-23.5 55.5t-45 31.5t-73 13q-90 0 -134 -63.5t-44 -167.5v-514h-299zM219 1167q16 76 85 155t171 79q55 0 146 -45q72 -39 118 -39 q59 0 90 76l172 -70q-43 -109 -101 -173.5t-161 -64.5q-68 0 -149 39q-94 47 -119 47q-51 0 -80 -75z" />
<glyph unicode="&#xf2;" horiz-adv-x="1161" d="M63 483q0 244 140.5 380t376 136t377 -136t141.5 -380q0 -242 -141.5 -375t-377 -133t-376 133t-140.5 375zM264 1393h363l135 -297h-256zM367 487q0 -135 55 -209.5t157.5 -74.5t159 74.5t56.5 209.5q0 137 -55.5 212t-160 75t-158.5 -75t-54 -212z" />
<glyph unicode="&#xf3;" horiz-adv-x="1161" d="M63 483q0 244 140.5 380t376 136t377 -136t141.5 -380q0 -242 -141.5 -375t-377 -133t-376 133t-140.5 375zM367 487q0 -135 55 -209.5t157.5 -74.5t159 74.5t56.5 209.5q0 137 -55.5 212t-160 75t-158.5 -75t-54 -212zM403 1096l136 297h362l-242 -297h-256z" />
<glyph unicode="&#xf4;" horiz-adv-x="1161" d="M63 483q0 244 140.5 380t376 136t377 -136t141.5 -380q0 -242 -141.5 -375t-377 -133t-376 133t-140.5 375zM240 1096l227 297h215l242 -297h-242l-102 131l-105 -131h-235zM367 487q0 -135 55 -209.5t157.5 -74.5t159 74.5t56.5 209.5q0 137 -55.5 212t-160 75 t-158.5 -75t-54 -212z" />
<glyph unicode="&#xf5;" horiz-adv-x="1161" d="M63 483q0 244 140.5 380t376 136t377 -136t141.5 -380q0 -242 -141.5 -375t-377 -133t-376 133t-140.5 375zM195 1167q16 76 84.5 155t171.5 79q55 0 145 -45q72 -39 119 -39q59 0 90 76l172 -70q-43 -109 -101.5 -173.5t-160.5 -64.5q-68 0 -150 39q-94 47 -119 47 q-51 0 -79 -75zM367 487q0 -135 55 -209.5t157.5 -74.5t159 74.5t56.5 209.5q0 137 -55.5 212t-160 75t-158.5 -75t-54 -212z" />
<glyph unicode="&#xf6;" horiz-adv-x="1161" d="M63 483q0 244 140.5 380t376 136t377 -136t141.5 -380q0 -242 -141.5 -375t-377 -133t-376 133t-140.5 375zM276 1128v238h240v-238h-240zM367 487q0 -135 55 -209.5t157.5 -74.5t159 74.5t56.5 209.5q0 137 -55.5 212t-160 75t-158.5 -75t-54 -212zM655 1128v238h240 v-238h-240z" />
<glyph unicode="&#xf7;" horiz-adv-x="1583" d="M102 356v267h1377v-267h-1377zM635 0v283h307v-283h-307zM635 690v283h307v-283h-307z" />
<glyph unicode="&#xf8;" horiz-adv-x="1161" d="M63 483q0 244 140.5 380t376.5 136q104 0 206 -32l117 151l184 -151l-104 -136q115 -133 115 -348q0 -242 -141.5 -375t-376.5 -133q-117 0 -224 37l-82 -106l-190 149l78 101q-99 126 -99 327zM367 487q0 -43 2 -63l264 344q-25 6 -53 6q-104 0 -158.5 -75t-54.5 -212z M510 213q27 -10 70 -10q102 0 158.5 74.5t56.5 209.5q0 35 -9 88z" />
<glyph unicode="&#xf9;" horiz-adv-x="1171" d="M119 422v553h299v-492q0 -57 1 -85.5t9 -66.5t23.5 -56.5t44 -32t71.5 -13.5q86 0 130 63.5t44 168.5v514h299v-975h-295v121q-37 -63 -113.5 -104.5t-174.5 -41.5q-166 0 -252 95q-49 55 -67.5 125.5t-18.5 226.5zM264 1391h363l135 -297h-256z" />
<glyph unicode="&#xfa;" horiz-adv-x="1171" d="M119 422v553h299v-492q0 -57 1 -85.5t9 -66.5t23.5 -56.5t44 -32t71.5 -13.5q86 0 130 63.5t44 168.5v514h299v-975h-295v121q-37 -63 -113.5 -104.5t-174.5 -41.5q-166 0 -252 95q-49 55 -67.5 125.5t-18.5 226.5zM393 1096l135 297h363l-242 -297h-256z" />
<glyph unicode="&#xfb;" horiz-adv-x="1171" d="M119 422v553h299v-492q0 -57 1 -85.5t9 -66.5t23.5 -56.5t44 -32t71.5 -13.5q86 0 130 63.5t44 168.5v514h299v-975h-295v121q-37 -63 -113.5 -104.5t-174.5 -41.5q-166 0 -252 95q-49 55 -67.5 125.5t-18.5 226.5zM248 1096l227 297h215l242 -297h-242l-102 131 l-105 -131h-235z" />
<glyph unicode="&#xfc;" horiz-adv-x="1171" d="M119 422v553h299v-492q0 -57 1 -85.5t9 -66.5t23.5 -56.5t44 -32t71.5 -13.5q86 0 130 63.5t44 168.5v514h299v-975h-295v121q-37 -63 -113.5 -104.5t-174.5 -41.5q-166 0 -252 95q-49 55 -67.5 125.5t-18.5 226.5zM283 1128v238h239v-238h-239zM662 1128v238h239v-238 h-239z" />
<glyph unicode="&#xfd;" horiz-adv-x="980" d="M-4 975h313l140 -520l49 -209h2q23 121 45 209l133 520h307l-336 -1055q-51 -160 -102 -213q-78 -84 -289 -84q-92 0 -182 8v232q41 -2 90 -2q39 0 57.5 1t47 8t41 24.5t12.5 48.5q0 18 -31 118zM344 1096l135 297h363l-242 -297h-256z" />
<glyph unicode="&#xfe;" horiz-adv-x="1253" d="M152 -426v1860h299v-549q41 45 116.5 79.5t167.5 34.5q207 0 331 -140t124 -372q0 -225 -126 -368.5t-329 -143.5q-188 0 -284 113v-514h-299zM442 487q0 -127 61.5 -205.5t162.5 -78.5q104 0 162.5 76.5t58.5 207.5q0 135 -56.5 211t-164.5 76q-100 0 -162 -80t-62 -207 z" />
<glyph unicode="&#xff;" horiz-adv-x="980" d="M-4 975h313l140 -520l49 -209h2q23 121 45 209l133 520h307l-336 -1055q-51 -160 -102 -213q-78 -84 -289 -84q-92 0 -182 8v232q41 -2 90 -2q39 0 57.5 1t47 8t41 24.5t12.5 48.5q0 18 -31 118zM190 1128v238h240v-238h-240zM569 1128v238h240v-238h-240z" />
<glyph unicode="&#x152;" horiz-adv-x="1970" d="M78 694q0 336 188.5 529.5t513.5 193.5q117 0 226 -24h845v-273h-661v-274h596v-271h-596v-301h708v-274h-892q-88 -20 -228 -20q-324 0 -512 184t-188 530zM385 698q0 -217 111.5 -333.5t287.5 -116.5q76 0 101 4v885q-53 6 -101 6q-186 0 -292.5 -113t-106.5 -332z" />
<glyph unicode="&#x153;" horiz-adv-x="1820" d="M63 483q0 244 140.5 380t376.5 136q217 0 356 -120q137 121 340 120q233 0 359 -147t126 -381q0 -43 -2 -61h-694q8 -86 69.5 -142.5t165.5 -56.5q164 0 242 135l207 -139q-162 -231 -467 -232q-205 0 -340 117q-135 -117 -362 -117q-236 0 -376.5 133t-140.5 375z M367 487q0 -135 55 -209.5t157.5 -74.5t159 74.5t56.5 209.5q0 137 -55.5 212t-160 75t-158.5 -75t-54 -212zM1065 602h408q-4 86 -57.5 138.5t-141.5 52.5q-86 0 -145.5 -56.5t-63.5 -134.5z" />
<glyph unicode="&#x178;" horiz-adv-x="1300" d="M-16 1393h356l307 -535l316 535h354l-529 -838v-555h-309v557zM336 1593v238h239v-238h-239zM715 1593v238h239v-238h-239z" />
<glyph unicode="&#x2c6;" horiz-adv-x="1024" d="M170 1096l227 297h215l242 -297h-242l-102 131l-104 -131h-236z" />
<glyph unicode="&#x2dc;" horiz-adv-x="1024" d="M121 1159q16 76 84.5 155t171.5 79q55 0 145 -45q72 -39 119 -39q59 0 90 75l172 -69q-43 -109 -101.5 -173.5t-160.5 -64.5q-68 0 -149 39q-94 47 -119 47q-51 0 -80 -76z" />
<glyph unicode="&#x2013;" horiz-adv-x="1329" d="M143 465v274h1043v-274h-1043z" />
<glyph unicode="&#x2014;" horiz-adv-x="1583" d="M76 465v274h1431v-274h-1431z" />
<glyph unicode="&#x2018;" horiz-adv-x="569" d="M121 760v203q0 164 22 243q31 104 100.5 154.5t202.5 52.5v-158q-74 -4 -110.5 -39.5t-36.5 -111.5h147v-344h-325z" />
<glyph unicode="&#x2019;" horiz-adv-x="569" d="M123 739v158q74 4 110.5 40t36.5 112h-147v344h326v-203q0 -166 -23 -244q-31 -104 -100.5 -154.5t-202.5 -52.5z" />
<glyph unicode="&#x201a;" horiz-adv-x="1038" d="M133 0v362h326v-221q0 -166 -23 -243q-31 -104 -100.5 -154.5t-202.5 -52.5v157q74 4 111 40t37 112h-148zM580 0v362h325v-221q0 -166 -22 -243q-31 -104 -100.5 -154.5t-202.5 -52.5v157q74 4 110.5 40t36.5 112h-147z" />
<glyph unicode="&#x201c;" horiz-adv-x="1015" d="M121 760v203q0 164 22 243q31 104 100.5 154.5t202.5 52.5v-158q-74 -4 -110.5 -39.5t-36.5 -111.5h147v-344h-325zM567 760v203q0 164 23 243q31 104 100.5 154.5t202.5 52.5v-158q-74 -4 -111 -39.5t-37 -111.5h148v-344h-326z" />
<glyph unicode="&#x201d;" horiz-adv-x="1015" d="M123 741v158q74 4 110.5 40t36.5 112h-147v344h326v-203q0 -164 -23 -244q-31 -104 -100.5 -154.5t-202.5 -52.5zM569 741v158q74 4 111 40t37 112h-148v344h326v-203q0 -164 -23 -244q-31 -104 -100.5 -154.5t-202.5 -52.5z" />
<glyph unicode="&#x201e;" horiz-adv-x="591" d="M133 0v362h326v-221q0 -166 -23 -243q-31 -104 -100.5 -154.5t-202.5 -52.5v157q74 4 111 40t37 112h-148z" />
<glyph unicode="&#x2022;" horiz-adv-x="823" d="M82 684q0 137 96 234.5t233.5 97.5t233.5 -96.5t96 -235.5q0 -137 -96 -233.5t-233.5 -96.5t-233.5 96.5t-96 233.5z" />
<glyph unicode="&#x2026;" horiz-adv-x="1990" d="M133 0v365h326v-365h-326zM848 0v365h326v-365h-326zM1532 0v365h326v-365h-326z" />
<glyph unicode="&#x2039;" horiz-adv-x="593" d="M80 426v291l371 309v-330l-156 -121l156 -129v-325z" />
<glyph unicode="&#x203a;" horiz-adv-x="593" d="M143 121v325l156 129l-156 121v330l371 -309v-291z" />
<glyph unicode="&#x20ac;" d="M10 410l76 221h82v106h-158l76 219h104q43 203 165 334t337 131q373 0 477 -393l-278 -96q-43 219 -197 219q-152 0 -192 -195h342l-72 -219h-295v-106h264l-73 -221h-162q33 -164 188 -164q152 0 195 194l287 -63q-35 -182 -159 -292t-329 -110t-325.5 118t-163.5 317 h-189z" />
<glyph unicode="&#x2122;" horiz-adv-x="1843" d="M41 1169v224h727v-224h-244v-708h-239v708h-244zM840 461h229v436q18 -84 33 -137l82 -299h178l80 305l31 133v-438h227v932h-283l-86 -314l-57 -241q-18 88 -64 237l-96 318h-274v-932z" />
<glyph unicode="&#xe000;" horiz-adv-x="975" d="M0 975h975v-975h-975v975z" />
<glyph unicode="&#xfb01;" horiz-adv-x="1257" d="M18 764v211h162v106q0 143 60 226q72 98 280 98q94 0 180 -12v-226q-37 4 -82 4q-78 0 -110 -26q-29 -25 -29 -88v-82h221v-211h-221v-764h-299v764h-162zM827 0v975h299v-975h-299zM827 1100v293h299v-293h-299z" />
<glyph unicode="&#xfb02;" horiz-adv-x="1275" d="M18 764v211h162v106q0 143 60 226q72 98 280 98q94 0 180 -12v-226q-37 4 -82 4q-78 0 -110 -26q-29 -25 -29 -88v-82h221v-211h-221v-764h-299v764h-162zM846 0v1393h299v-1393h-299z" />
<glyph unicode="&#xfb03;" horiz-adv-x="1972" d="M18 772v203h162v106q0 143 60 226q72 98 280 98q94 0 180 -12v-226q-37 4 -82 4q-78 0 -110 -26q-29 -25 -29 -88v-82h221v-203h-221v-772h-299v772h-162zM723 772v203h162v106q0 143 59 226q72 98 281 98q94 0 180 -12v-226q-37 4 -82 4q-78 0 -111 -26q-29 -25 -28 -88 v-82h221v-203h-221v-772h-299v772h-162zM1540 0v975h301v-975h-301zM1540 1100v293h301v-293h-301z" />
<glyph unicode="&#xfb04;" horiz-adv-x="1970" d="M18 772v203h162v106q0 143 60 226q72 98 280 98q94 0 180 -12v-226q-37 4 -82 4q-78 0 -110 -26q-29 -25 -29 -88v-82h221v-203h-221v-772h-299v772h-162zM723 772v203h162v106q0 143 59 226q72 98 281 98q94 0 180 -12v-226q-37 4 -82 4q-78 0 -111 -26q-29 -25 -28 -88 v-82h221v-203h-221v-772h-299v772h-162zM1540 0v1393h299v-1393h-299z" />
</font>
</defs>
</svg>
