<?xml version="1.0" standalone="no"?>
<!DOCTYPE svg PUBLIC "-//W3C//DTD SVG 1.1//EN" "http://www.w3.org/Graphics/SVG/1.1/DTD/svg11.dtd" >
<svg xmlns="http://www.w3.org/2000/svg">
<metadata>
This is a custom SVG webfont generated by Font Squirrel.
Copyright   : Copyright c 2008 by Optimo All rights reserved
Designer    : JeanFranois Rappo
Foundry     : JeanFranois Rappo published by Optimo
Foundry URL : httpwwwoptimoch
</metadata>
<defs>
<font id="TheinhardtThin" horiz-adv-x="1208" >
<font-face units-per-em="2048" ascent="1393" descent="-655" />
<missing-glyph horiz-adv-x="552" />
<glyph unicode=" "  horiz-adv-x="552" />
<glyph unicode="&#x09;" horiz-adv-x="552" />
<glyph unicode="&#xa0;" horiz-adv-x="552" />
<glyph unicode="!" horiz-adv-x="411" d="M154 0v233h104v-233h-104zM166 690v703h80v-703l-13 -330h-55z" />
<glyph unicode="&#x22;" horiz-adv-x="569" d="M125 1188v205h76v-205l-17 -352h-43zM369 1188v205h75v-205l-16 -352h-43z" />
<glyph unicode="#" d="M-14 426v70h346l65 383h-368v71h381l75 443h78l-76 -443h304l75 443h78l-76 -443h351v-71h-363l-65 -383h385v-70h-398l-71 -426h-78l71 426h-303l-71 -426h-78l71 426h-333zM410 496h303l65 383h-303z" />
<glyph unicode="$" d="M74 287l65 51q51 -104 156.5 -180t251.5 -88v624l-51 13q-174 37 -270.5 110.5t-96.5 231.5q0 152 113.5 243.5t304.5 100.5v184h76v-184q252 -16 401 -193l-57 -61q-137 168 -344 186v-569l86 -19q182 -39 280 -120.5t98 -233.5q0 -170 -122.5 -274.5t-341.5 -110.5 v-176h-76v178q-172 12 -293 93t-180 194zM211 1057q0 -123 74.5 -184.5t234.5 -94.5l27 -6v553q-150 -6 -243 -76.5t-93 -191.5zM623 68q182 4 283.5 89t101.5 220q0 225 -322 289l-63 12v-610z" />
<glyph unicode="%" horiz-adv-x="1855" d="M92 963q0 123 27.5 219t101.5 163.5t189 67.5q90 0 153.5 -40t97 -107.5t48 -142t14.5 -160.5q0 -182 -82 -303t-235 -121q-162 0 -238 120t-76 304zM168 979q0 -166 60.5 -270.5t179.5 -104.5q125 0 182 96.5t57 260.5q0 182 -61.5 284.5t-178 102.5t-178 -100.5 t-61.5 -268.5zM512 0l723 1393h82l-725 -1393h-80zM1122 414q0 123 28 219t101.5 163.5t188.5 67.5q90 0 153.5 -40t97 -107.5t48 -142t14.5 -160.5q0 -182 -82 -303t-235 -121q-162 0 -238 120t-76 304zM1198 430q0 -166 60.5 -270.5t179.5 -104.5q125 0 182 96.5t57 260.5 q0 182 -61.5 284.5t-178 102.5t-178 -100.5t-61.5 -268.5z" />
<glyph unicode="&#x26;" horiz-adv-x="1245" d="M78 342q0 82 26.5 147.5t88 119t118 88t154.5 85.5q-113 131 -155 205t-42 170q0 111 86 186.5t226 75.5q147 0 225 -74.5t78 -187.5q0 -236 -308 -393l359 -426q68 145 92 307l68 -35q-29 -178 -111 -329l236 -281h-99l-180 213q-70 -119 -186.5 -178.5t-255.5 -59.5 q-182 0 -301 96.5t-119 270.5zM156 352q0 -150 100 -230.5t244 -80.5q123 0 230.5 57.5t164.5 167.5l-387 465l-108 -56q-32 -17 -90 -57t-83.5 -73t-48 -84.5t-22.5 -108.5zM348 1155q0 -37 7 -69.5t33 -72.5l37 -58q11 -17 56 -71l56 -67q270 137 270 332 q0 104 -65.5 156.5t-161.5 52.5q-100 0 -166 -54.5t-66 -148.5z" />
<glyph unicode="'" horiz-adv-x="405" d="M166 1188v205h76v-205l-17 -352h-43z" />
<glyph unicode="(" horiz-adv-x="544" d="M164 522q0 457 252 885l67 -8q-240 -414 -239.5 -877t235.5 -848l-76 -6q-239 408 -239 854z" />
<glyph unicode=")" horiz-adv-x="544" d="M61 1399l68 8q252 -428 252 -885q0 -446 -240 -854l-75 6q236 385 235.5 848t-240.5 877z" />
<glyph unicode="*" horiz-adv-x="753" d="M10 1096l21 69l311 -98v326h72v-326l303 113l26 -68l-307 -113l199 -256l-57 -45l-199 258l-186 -266l-60 41l186 268z" />
<glyph unicode="+" horiz-adv-x="1583" d="M190 569v68h566v577h67v-577h568v-68h-568v-569h-67v569h-566z" />
<glyph unicode="," horiz-adv-x="360" d="M139 -248q35 33 46.5 83t11.5 145v20h-43v233h98v-249q0 -111 -14 -170q-25 -96 -99 -131v69z" />
<glyph unicode="-" horiz-adv-x="772" d="M102 510v74h568v-74h-568z" />
<glyph unicode="." horiz-adv-x="315" d="M109 0v233h98v-233h-98z" />
<glyph unicode="/" horiz-adv-x="856" d="M18 0l738 1393h82l-736 -1393h-84z" />
<glyph unicode="0" d="M109 694q0 324 124.5 523.5t370.5 199.5q166 0 279.5 -97t165 -256t51.5 -370q0 -150 -26.5 -274.5t-82 -227t-154 -160t-233.5 -57.5q-133 0 -232.5 57.5t-154.5 160t-81.5 227t-26.5 274.5zM190 698q0 -135 19.5 -244.5t64.5 -204.5t129 -148.5t201 -53.5 q414 0 414 651q0 287 -105.5 467.5t-308.5 180.5t-308.5 -180.5t-105.5 -467.5z" />
<glyph unicode="1" d="M274 1028v68h29q156 0 238 59q98 72 104 238h68v-1393h-78v1155q-76 -129 -305 -129q-38 0 -56 2z" />
<glyph unicode="2" d="M154 0v61q272 178 516 394q145 129 220 242.5t75 269.5q0 178 -104.5 278.5t-262.5 100.5q-168 0 -260 -98.5t-92 -243.5q0 -111 53 -222l-90 21q-45 96 -45 201q0 174 117.5 293.5t320.5 119.5q217 0 333 -127t116 -319q0 -84 -25 -163t-59.5 -137.5t-95 -125 t-107.5 -108.5l-121 -103q-244 -197 -356 -258v-2h772v-74h-905z" />
<glyph unicode="3" d="M119 336l71 51q4 -174 113 -257t268 -83q162 0 271.5 89t109.5 245q0 203 -170 281q-94 43 -329 43h-91v65h72q213 0 307 39q176 74 177 250q0 127 -91.5 207t-253.5 80q-164 0 -261 -82t-97 -203l-65 45q0 45 23.5 95t69.5 100.5t132 83t198 32.5q201 0 312.5 -99 t111.5 -249q0 -133 -81.5 -219t-208.5 -105v-2q133 -10 230 -103t97 -263q0 -176 -129 -289t-336 -113q-195 0 -316.5 95.5t-133.5 265.5z" />
<glyph unicode="4" d="M113 387v59l643 959h61v-944h307v-74h-307v-387h-78v387h-626zM207 461h532v528q0 190 6 281h-2q-10 -23 -176 -273z" />
<glyph unicode="5" d="M147 287l72 51q20 -121 113.5 -206t255.5 -85q176 0 282.5 112.5t106.5 307.5q0 168 -98.5 278.5t-276.5 110.5q-129 0 -225 -77t-125 -201l-62 20l43 795h732v-74h-660l-33 -561l2 -2q37 66 130.5 119t222.5 53q193 0 311.5 -123t118.5 -338t-124 -353.5t-345 -138.5 q-166 0 -282 83.5t-159 228.5z" />
<glyph unicode="6" d="M131 688q0 346 130 537.5t378 191.5q162 0 262 -76.5t135 -207.5l-71 -56q-6 41 -23.5 82t-52.5 86t-100.5 73t-151.5 28q-209 0 -318.5 -175.5t-109.5 -480.5h2q57 96 171 154.5t251 58.5q184 0 312 -116.5t128 -331.5q0 -199 -118.5 -339.5t-327.5 -140.5 q-233 0 -364.5 172t-131.5 541zM213 588q29 -541 414 -541q158 0 262 107.5t104 294.5q0 188 -107.5 285t-264.5 97q-139 0 -250 -68.5t-158 -174.5z" />
<glyph unicode="7" d="M178 991v402h946v-60q-213 -313 -333 -608q-156 -381 -179 -725h-84q23 358 193 752q113 268 315 569h-782v-330h-76z" />
<glyph unicode="8" d="M121 369q0 135 81 232t220 134q-123 39 -192.5 123t-69.5 209q0 162 121.5 256t322.5 94t323 -94t122 -256q0 -125 -70 -209t-193 -123q139 -37 220 -134t81 -232q0 -170 -108 -275q-131 -119 -375 -119t-375 119q-108 105 -108 275zM203 370.5q0 -155.5 103.5 -239.5 t298 -84t298 84t103.5 239.5t-111 243.5t-291 88t-290.5 -88t-110.5 -243.5zM240 1065q0 -139 101 -218t263 -79t263.5 79t101.5 218q0 133 -94.5 207t-270.5 74t-270 -74t-94 -207z" />
<glyph unicode="9" d="M115 938q0 199 118.5 339t327.5 140q233 0 364.5 -172t131.5 -540q0 -346 -130 -538t-378 -192q-162 0 -262.5 77t-134.5 208l71 55q6 -41 23.5 -81.5t52.5 -86t100.5 -73t151.5 -27.5q209 0 318.5 175t109.5 480h-2q-57 -96 -171 -154.5t-251 -58.5q-184 0 -312 117 t-128 332zM195 944q0 -188 107.5 -285.5t264.5 -97.5q139 0 250 68.5t158 175.5q-29 541 -414 541q-158 0 -262 -108t-104 -294z" />
<glyph unicode=":" horiz-adv-x="315" d="M109 0v233h98v-233h-98zM109 741v234h98v-234h-98z" />
<glyph unicode=";" horiz-adv-x="360" d="M139 -248q35 33 46.5 83t11.5 145v20h-43v233h98v-249q0 -111 -14 -170q-25 -96 -99 -131v69zM154 741v234h98v-234h-98z" />
<glyph unicode="&#x3c;" horiz-adv-x="1583" d="M39 649v78l1442 678v-82l-1344 -635l1344 -639v-82z" />
<glyph unicode="=" horiz-adv-x="1583" d="M102 383v68h1379v-68h-1379zM102 739v68h1379v-68h-1379z" />
<glyph unicode="&#x3e;" horiz-adv-x="1583" d="M102 -33v82l1344 639l-1344 635v82l1442 -678v-78z" />
<glyph unicode="?" horiz-adv-x="925" d="M72 1047q0 162 105.5 266t281.5 104q182 0 286.5 -103.5t104.5 -260.5q0 -121 -46 -202t-142 -169l-50 -43q-98 -90 -121.5 -134t-25.5 -153v-35h-82v60q0 86 25.5 142t115.5 138l78 70q166 145 166 317q0 133 -83 219.5t-228.5 86.5t-225 -89.5t-79.5 -220.5 q0 -90 34 -166l-88 19q-26 78 -26 154zM373 0v199h104v-199h-104z" />
<glyph unicode="@" horiz-adv-x="1740" d="M143 651.5q0 354.5 212 576.5t548 222q139 0 256 -41t195 -108.5t131 -157.5t77.5 -186.5t24.5 -196.5q0 -223 -90 -379t-242 -156q-70 0 -106.5 39t-36.5 107v4q-84 -158 -283 -158q-135 0 -206.5 72.5t-71.5 187.5q0 106 69.5 164.5t215.5 83.5l231 41q27 4 36 13t9 32 v33q0 109 -54 159t-173 50q-238 0 -238 -236l-67 43q-2 123 85 191.5t222 68.5q295 0 295 -264v-448q0 -59 18.5 -89t65.5 -30q106 0 176.5 139t70.5 322q0 117 -35.5 225t-105 201.5t-191.5 149.5t-278 56q-297 0 -489.5 -203.5t-192.5 -525.5q0 -319 202 -524t503 -205 q178 0 328.5 75t248.5 206l41 -64q-233 -287 -618 -286q-346 0 -564.5 221t-218.5 575.5zM631 481q0 -92 58.5 -145t156.5 -53q125 0 195.5 83t70.5 199v150q-20 -8 -113 -25l-124 -22q-70 -12 -116 -27.5t-87 -57t-41 -102.5z" />
<glyph unicode="A" horiz-adv-x="1185" d="M20 0l525 1393h98l522 -1393h-80l-163 438h-660l-160 -438h-82zM289 512h604l-213 567q-59 160 -86 252l-92 -250z" />
<glyph unicode="B" horiz-adv-x="1304" d="M168 0v1393h475q145 0 234.5 -14.5t154.5 -61.5q137 -96 137 -275q0 -125 -75.5 -208.5t-186.5 -104.5q145 -20 230.5 -115.5t85.5 -236.5q0 -215 -183 -314q-121 -63 -354 -63h-518zM248 76h454q213 0 314 63q121 76 121 240q0 203 -183 278q-86 33 -252 33h-454v-614z M248 762h424q178 0 260 35q154 70 153 241q0 129 -88 205q-86 74 -315 74h-434v-555z" />
<glyph unicode="C" horiz-adv-x="1288" d="M106 696.5q0 329.5 159 525t431 195.5q178 0 310.5 -87t201.5 -245l-63 -59q-59 154 -175 237t-274 83q-231 0 -369.5 -177.5t-138.5 -472.5q0 -293 139.5 -471t368.5 -178q160 0 279 86t178 244l64 -47q-70 -168 -203 -261.5t-318 -93.5q-272 0 -431 196t-159 525.5z " />
<glyph unicode="D" horiz-adv-x="1353" d="M168 0v1393h352q186 0 284.5 -16.5t188.5 -80.5q117 -82 185.5 -238.5t68.5 -357.5q0 -362 -200 -559q-96 -94 -208 -117.5t-352 -23.5h-319zM248 1317v-1241h295q113 0 169 3t131 26.5t128 72.5q197 178 196 516q0 160 -52 297t-148 221q-80 72 -174.5 88.5t-300.5 16.5 h-244z" />
<glyph unicode="E" horiz-adv-x="1185" d="M168 0v1393h872v-76h-792v-559h719v-76h-719v-606h835v-76h-915z" />
<glyph unicode="F" horiz-adv-x="1038" d="M168 0v1393h829v-76h-749v-559h676v-76h-676v-682h-80z" />
<glyph unicode="G" horiz-adv-x="1376" d="M106 696q0 330 159 525.5t431 195.5q178 0 310.5 -87t201.5 -245l-63 -59q-59 154 -175 237t-274 83q-231 0 -369.5 -177.5t-138.5 -472.5q0 -293 141.5 -471t370.5 -178q184 0 312.5 114.5t128.5 309.5v139h-498v76h574v-686h-76v240h-2q-51 -111 -162 -188t-287 -77 q-270 0 -427 196.5t-157 524.5z" />
<glyph unicode="H" horiz-adv-x="1343" d="M168 0v1393h80v-635h848v635h80v-1393h-80v682h-848v-682h-80z" />
<glyph unicode="I" horiz-adv-x="415" d="M168 0v1393h80v-1393h-80z" />
<glyph unicode="J" horiz-adv-x="980" d="M25 336l77 33q4 -160 80 -244t246 -84q186 0 256 115q57 90 57 286v951h80v-951q0 -231 -73 -338q-92 -135 -326 -135q-176 0 -285.5 88.5t-111.5 278.5z" />
<glyph unicode="K" horiz-adv-x="1245" d="M168 0v1393h80v-824l821 824h109l-547 -547l594 -846h-103l-553 791l-321 -328v-463h-80z" />
<glyph unicode="L" horiz-adv-x="1073" d="M168 0v1393h80v-1317h774v-76h-854z" />
<glyph unicode="M" horiz-adv-x="1540" d="M168 0v1393h94l445 -1082q57 -141 77 -205h2q18 66 72 205l412 1082h102v-1393h-80v889q0 317 8 397h-2q-25 -94 -110 -321l-369 -965h-71l-388 940q-92 219 -118 324h-2q8 -84 8 -355v-909h-80z" />
<glyph unicode="N" horiz-adv-x="1368" d="M168 0v1393h78l764 -1088l110 -168h2q-2 166 -2 266v990h80v-1393h-78l-762 1087l-112 170h-2q2 -104 2 -225v-1032h-80z" />
<glyph unicode="O" horiz-adv-x="1392" d="M106 696.5q0 329.5 159 525t431.5 195.5t431 -195.5t158.5 -525t-157.5 -525.5t-432.5 -196q-272 0 -431 196t-159 525.5zM188 696q0 -293 139.5 -471t369 -178t369.5 178t140 471q0 295 -138 472.5t-372 177.5q-231 0 -369.5 -177.5t-138.5 -472.5z" />
<glyph unicode="P" horiz-adv-x="1198" d="M168 0v1393h477q193 0 291 -41q102 -45 161.5 -132t59.5 -206q0 -244 -219 -342q-100 -41 -291 -41h-399v-631h-80zM248 707h407q213 0 316 77q102 76 102 230q0 160 -135 243q-100 59 -305 60h-385v-610z" />
<glyph unicode="Q" horiz-adv-x="1392" d="M106 696.5q0 329.5 159 525t431.5 195.5t431 -195.5t158.5 -525.5q0 -317 -145 -510l182 -170l-53 -53l-180 166q-154 -154 -394 -154q-272 0 -431 196t-159 525.5zM188 696q0 -293 139.5 -471t369 -178t369.5 178t140 471q0 295 -138 472.5t-372 177.5 q-231 0 -369.5 -177.5t-138.5 -472.5z" />
<glyph unicode="R" horiz-adv-x="1236" d="M168 0v1393h469q199 0 299 -41q102 -45 161.5 -131t59.5 -205q0 -186 -133 -287q-98 -76 -281 -86l463 -643h-104l-451 637h-403v-637h-80zM248 711h387q233 0 336 77q104 78 104 228q0 156 -129 237q-98 63 -311 64h-387v-606z" />
<glyph unicode="S" horiz-adv-x="1185" d="M45 274l68 54q57 -119 179 -200t290 -81q199 0 307 88t108 232q0 123 -83 194.5t-244 104.5l-195 41q-178 39 -275.5 114.5t-97.5 237.5t125 260t332 98q291 0 455 -200l-58 -64q-156 195 -397 195q-164 0 -269.5 -75t-105.5 -206q0 -125 76 -188.5t240 -98.5l192 -41 q188 -39 287.5 -124t99.5 -242q0 -180 -133 -289t-366 -109q-195 0 -331 87t-204 212z" />
<glyph unicode="T" horiz-adv-x="1112" d="M31 1317v76h1050v-76h-485v-1317h-82v1317h-483z" />
<glyph unicode="U" horiz-adv-x="1343" d="M152 571v822h79v-818q0 -221 45 -313q98 -219 396 -219q295 0 397 219q43 92 43 313v818h80v-822q0 -170 -18 -252q-37 -174 -168.5 -261t-334 -87t-333.5 87t-168 261q-18 80 -18 252z" />
<glyph unicode="V" horiz-adv-x="1091" d="M10 1393h86l363 -1041q49 -139 82 -260q33 111 86 258l374 1043h80l-499 -1393h-88z" />
<glyph unicode="W" horiz-adv-x="1732" d="M16 1393h90l273 -944q84 -295 90 -326h2q23 104 88 326l275 944h77l275 -944q63 -215 90 -328h2q12 55 90 328l268 944h80l-397 -1393h-82l-242 819q-92 313 -123 451h-2q-33 -147 -125 -455l-235 -815h-82z" />
<glyph unicode="X" horiz-adv-x="1200" d="M20 0l537 748l-455 645h101l407 -582l410 582h94l-457 -639l523 -754h-103l-473 690l-489 -690h-95z" />
<glyph unicode="Y" horiz-adv-x="1110" d="M10 1393h96l455 -711l449 711h90l-502 -795v-598h-80v598z" />
<glyph unicode="Z" horiz-adv-x="1130" d="M43 0v59l911 1258h-868v76h973v-60l-909 -1257h929v-76h-1036z" />
<glyph unicode="[" horiz-adv-x="546" d="M168 -324v1717h338v-70h-262v-1577h262v-70h-338z" />
<glyph unicode="\" horiz-adv-x="860" d="M20 1393h82l738 -1393h-84z" />
<glyph unicode="]" horiz-adv-x="557" d="M51 -254h262v1577h-262v70h338v-1717h-338v70z" />
<glyph unicode="^" horiz-adv-x="1583" d="M406 657l346 736h94l330 -736h-86l-293 658l-301 -658h-90z" />
<glyph unicode="_" horiz-adv-x="1060" d="M-10 -240h1077v-57h-1077v57z" />
<glyph unicode="`" horiz-adv-x="860" d="M240 1393h129l215 -279h-80z" />
<glyph unicode="a" horiz-adv-x="976" d="M90 266q0 123 77 188.5t239 94.5l272 47q35 6 46 17.5t11 39.5v33q0 127 -64.5 186.5t-203.5 59.5q-279 0 -279 -264l-67 41q-2 137 95 212.5t251 75.5q199 0 281 -100q57 -72 57 -197v-518q0 -70 19.5 -101.5t76.5 -31.5q35 0 66 10v-61q-33 -12 -86 -12 q-145 0 -146 145q0 25 2 39h-2q-82 -195 -334 -195q-152 0 -231.5 81t-79.5 210zM170 270q0 -109 68.5 -169t183.5 -60q145 0 229 97.5t84 232.5v180q-20 -14 -135 -33l-147 -26q-51 -10 -83 -17.5t-75 -24t-66.5 -38t-41 -58.5t-17.5 -84z" />
<glyph unicode="b" horiz-adv-x="1097" d="M168 0v1393h76v-621h2q33 96 121 161.5t215 65.5q197 0 305 -137t108 -379q0 -236 -112.5 -372t-300.5 -136q-246 0 -336 224h-2v-199h-76zM238 485q0 -211 90 -327.5t247 -116.5q160 0 249 117.5t89 328.5q0 213 -91 330t-251 117q-154 0 -243.5 -117t-89.5 -332z" />
<glyph unicode="c" horiz-adv-x="970" d="M102 483q0 233 116 374.5t314 141.5q276 0 379 -245l-59 -62q-39 117 -121 179.5t-199 62.5q-160 0 -254 -120t-94 -329q0 -205 95.5 -324.5t252.5 -119.5q219 0 312 213l57 -51q-119 -227 -369 -228q-199 0 -314.5 138.5t-115.5 369.5z" />
<glyph unicode="d" horiz-adv-x="1097" d="M102 492q0 236 113 371.5t301 135.5q246 0 336 -223h2v617h76v-1393h-76v203h-2q-33 -96 -121 -162t-215 -66q-197 0 -305.5 137.5t-108.5 379.5zM184 487q0 -213 91.5 -329.5t250.5 -116.5q154 0 244 116.5t90 331.5q0 211 -90 328t-248 117q-160 0 -249 -118t-89 -329z " />
<glyph unicode="e" horiz-adv-x="1058" d="M102 483q0 231 118 373.5t312 142.5q190 0 301 -136t111 -353v-18h-760v-19q0 -188 94.5 -308t270.5 -120q98 0 173 40t108.5 82t66.5 103l53 -53q-49 -96 -149.5 -169t-253.5 -73q-203 0 -324 136t-121 372zM186 557h674q-2 150 -90 263.5t-238 113.5 q-145 0 -236.5 -99.5t-109.5 -277.5z" />
<glyph unicode="f" horiz-adv-x="641" d="M25 905v70h223v221q0 109 45 160q53 61 170 61q61 0 127 -18v-74q-70 25 -131 25q-70 0 -105 -37q-31 -35 -30 -111v-227h266v-70h-266v-905h-76v905h-223z" />
<glyph unicode="g" horiz-adv-x="1093" d="M102 492q0 236 113 371.5t301 135.5q246 0 336 -223h2v199h76v-920q0 -250 -96.5 -355.5t-317.5 -105.5q-203 0 -295 92.5t-98 235.5l74 35q12 -297 319 -297q106 0 176 29.5t103.5 90t46 128t12.5 170.5v125h-2q-35 -98 -120 -163t-216 -65q-197 0 -305.5 137.5 t-108.5 379.5zM184 487q0 -213 91.5 -329.5t250.5 -116.5q154 0 244 116.5t90 331.5q0 211 -90 328t-248 117q-160 0 -249 -118t-89 -329z" />
<glyph unicode="h" horiz-adv-x="1058" d="M168 0v1393h76v-600h2q33 84 116.5 145t212.5 61q195 0 275 -141q49 -90 49 -264v-594h-76v532q0 205 -51 301.5t-215 96.5q-135 0 -223 -88q-90 -96 -90 -252v-590h-76z" />
<glyph unicode="i" horiz-adv-x="411" d="M168 0v975h76v-975h-76zM168 1178v215h76v-215h-76z" />
<glyph unicode="j" horiz-adv-x="446" d="M-72 -385v82q66 -39 142 -39q39 0 64.5 13.5t38.5 30.5t20.5 56t8.5 71t1 93v1053h76v-993q0 -170 -8.5 -231.5t-39.5 -102.5q-47 -61 -157 -62q-83 0 -146 29zM203 1178v215h76v-215h-76z" />
<glyph unicode="k" horiz-adv-x="964" d="M168 0v1393h76v-955l563 537h113l-388 -359l420 -616h-100l-377 563l-231 -215v-348h-76z" />
<glyph unicode="l" horiz-adv-x="423" d="M174 0v1393h76v-1393h-76z" />
<glyph unicode="m" horiz-adv-x="1587" d="M168 0v975h76v-180h2q29 82 106.5 143t194.5 61q225 0 268 -225q25 84 110 154.5t214 70.5q184 0 247 -147q41 -92 41 -277v-575h-75v532q0 102 -7.5 165t-30 121.5t-70.5 85t-126 26.5q-129 0 -203.5 -94.5t-78.5 -233.5v-27v-575h-76v532q0 102 -7.5 165t-30 121.5 t-70.5 85t-126 26.5q-133 0 -207.5 -98.5t-74.5 -241.5v-590h-76z" />
<glyph unicode="n" horiz-adv-x="1058" d="M168 0v975h76v-182h2q31 84 114.5 145t214.5 61q195 0 275 -141q49 -90 49 -264v-594h-76v532q0 205 -51 301.5t-215 96.5q-135 0 -223 -88q-90 -96 -90 -252v-590h-76z" />
<glyph unicode="o" horiz-adv-x="1067" d="M102 483q0 236 115 376t315.5 140t316.5 -141t116 -375q0 -229 -117 -368.5t-316 -139.5q-197 0 -313.5 139.5t-116.5 368.5zM184 485q0 -205 95.5 -324.5t252.5 -119.5q160 0 255.5 120t95.5 324q0 209 -94.5 329t-256.5 120q-160 0 -254 -120t-94 -329z" />
<glyph unicode="p" horiz-adv-x="1097" d="M168 -389v1364h76v-203h2q33 96 121 161.5t215 65.5q197 0 305 -137t108 -379q0 -236 -112.5 -372t-300.5 -136q-246 0 -336 224h-2v-588h-76zM238 485q0 -211 90 -327.5t247 -116.5q160 0 249 117.5t89 328.5q0 213 -91 330t-251 117q-154 0 -243.5 -117t-89.5 -332z " />
<glyph unicode="q" horiz-adv-x="1097" d="M102 492q0 236 113 371.5t301 135.5q246 0 336 -223h2v199h76v-1364h-76v592h-2q-33 -96 -121 -162t-215 -66q-197 0 -305.5 137.5t-108.5 379.5zM184 487q0 -213 91.5 -329.5t250.5 -116.5q154 0 244 116.5t90 331.5q0 211 -90 328t-248 117q-160 0 -249 -118t-89 -329z " />
<glyph unicode="r" horiz-adv-x="624" d="M168 0v975h76v-201q23 88 101.5 156.5t178.5 68.5q53 0 80 -10v-69q-35 8 -74 8q-131 0 -208.5 -105.5t-77.5 -238.5v-584h-76z" />
<glyph unicode="s" horiz-adv-x="878" d="M45 154l53 57q127 -168 344 -168q135 2 206 58.5t71 152.5q-2 90 -58.5 131t-173.5 68l-141 34q-131 31 -198.5 88.5t-67.5 165.5q0 121 95 188.5t241 69.5q211 0 332 -147l-48 -59q-109 141 -292 141q-109 -2 -178.5 -50t-69.5 -136q0 -84 52 -125t169 -70l117 -29 q147 -35 224 -92t77 -172q0 -131 -100.5 -208t-264.5 -77q-131 0 -232.5 53.5t-156.5 125.5z" />
<glyph unicode="t" horiz-adv-x="589" d="M16 905v70h197v375l76 16v-391h241v-70h-241v-704q0 -76 16 -109q23 -43 92 -43q88 0 156 51v-73q-72 -47 -170 -47t-137 59q-33 47 -33 160v706h-197z" />
<glyph unicode="u" horiz-adv-x="1048" d="M160 381v594h76v-533q0 -102 7 -164.5t32.5 -121t80 -85t140.5 -26.5q131 0 219 88q90 96 90 252v590h76v-975h-76v176h-2q-90 -201 -326 -201q-188 0 -268 142q-49 90 -49 264z" />
<glyph unicode="v" horiz-adv-x="827" d="M16 975h84l242 -666q35 -96 64 -198h2q20 74 69 200l254 664h80l-379 -975h-61z" />
<glyph unicode="w" horiz-adv-x="1282" d="M16 975h84l203 -621q39 -115 72 -233h2q4 14 14 59t22 89l21 81l178 625h70l180 -619q25 -80 62 -221h2q25 96 67 230l195 610h78l-318 -975h-57l-195 653q-29 94 -51 191h-2q-20 -92 -49 -193l-186 -651h-70z" />
<glyph unicode="x" horiz-adv-x="858" d="M25 0l358 504l-330 471h94l285 -414l285 414h90l-336 -469l363 -506h-97l-311 446l-311 -446h-90z" />
<glyph unicode="y" horiz-adv-x="843" d="M31 975h86l248 -694l55 -162h2l61 168l262 688h82l-432 -1108q-51 -133 -82 -184q-59 -96 -176 -97q-53 0 -94 19v78q39 -25 98 -25q49 0 78 23q35 29 72 122l86 220z" />
<glyph unicode="z" horiz-adv-x="806" d="M49 0v57l569 848h-550v70h641l2 -57l-574 -848h615v-70h-703z" />
<glyph unicode="{" horiz-adv-x="536" d="M72 512v63q96 31 119.5 96.5t23.5 223.5v129q0 86 3 131t16.5 98.5t41 79t76.5 43t125 17.5h39v-62q-145 0 -186 -49t-41 -207v-127q0 -209 -24.5 -287.5t-117.5 -115.5v-2q92 -37 117 -116t25 -288v-145q0 -158 41 -207t186 -49v-62h-39q-76 0 -125 17.5t-76.5 43 t-41 79t-16.5 98.5t-3 131v148q0 158 -23.5 223t-119.5 96z" />
<glyph unicode="|" horiz-adv-x="403" d="M164 -324v1717h76v-1717h-76z" />
<glyph unicode="}" horiz-adv-x="653" d="M41 -262q145 0 186 49t41 207v145q0 209 24.5 288t117.5 116v2q-92 37 -117 115.5t-25 287.5v127q0 158 -41 207t-186 49v62h39q76 0 125 -17.5t76.5 -43t41 -79t16.5 -98.5t3 -131v-129q0 -158 23.5 -223.5t119.5 -96.5v-63q-96 -31 -119.5 -96.5t-23.5 -222.5v-148 q0 -86 -3 -131t-16.5 -98.5t-41 -79t-76.5 -43t-125 -17.5h-39v62z" />
<glyph unicode="~" horiz-adv-x="1583" d="M311 569q35 55 100.5 103.5t145.5 48.5q86 0 248 -78q94 -45 130 -58.5t73 -13.5q106 0 198 113l51 -57q-106 -127 -251 -127q-86 0 -250 80q-135 66 -203 65q-51 0 -94 -29.5t-97 -97.5z" />
<glyph unicode="&#xa1;" horiz-adv-x="411" d="M154 741v234h104v-234h-104zM166 285l12 329h55l13 -329v-703h-80v703z" />
<glyph unicode="&#xa2;" d="M184 483q0 221 102.5 359.5t282.5 154.5v191h76v-191q248 -12 350 -241l-61 -64q-78 223 -289 240v-891q201 16 281 221l61 -59q-102 -213 -342 -226v-208h-76v208q-178 16 -281.5 152.5t-103.5 353.5zM266 485q0 -190 82 -308t221 -134v887q-141 -16 -222 -134t-81 -311 z" />
<glyph unicode="&#xa3;" d="M109 0v57q135 16 187 96t52 287q0 94 -10 228h-229v69h225q-8 152 -8 236q0 446 368 446q172 0 263.5 -87t103.5 -228l-70 -27q-6 119 -79.5 197t-219.5 78q-170 0 -231.5 -104.5t-61.5 -284.5l9 -226h331v-69h-325q0 -14 4 -97.5t4 -130.5q0 -299 -135 -370l2 -4 q113 4 268 4h473v-70h-921z" />
<glyph unicode="&#xa4;" horiz-adv-x="1099" d="M113 225l135 135q-86 115 -86 246t86 250l-135 133l55 53l133 -133q117 86 250 86q131 0 246 -86l133 133l57 -55l-131 -131q86 -123 86 -250q0 -133 -84 -250l129 -129l-57 -55l-129 129q-119 -84 -250 -84q-129 0 -248 86l-133 -133zM233 606q0 -135 91.5 -228 t226.5 -93q137 0 228 93t91 228q0 137 -90 230.5t-229 93.5q-135 0 -226.5 -93.5t-91.5 -230.5z" />
<glyph unicode="&#xa5;" d="M59 1393h95l456 -711l451 711h88l-465 -725h385v-72h-426v-207h426v-72h-426v-317h-76v317h-428v72h428v207h-428v72h387z" />
<glyph unicode="&#xa6;" horiz-adv-x="387" d="M156 -324v662h75v-662h-75zM156 731v662h75v-662h-75z" />
<glyph unicode="&#xa7;" horiz-adv-x="991" d="M88 20l53 62q119 -195 340 -195q135 0 207 58.5t72 150.5q0 45 -21.5 83t-65.5 65.5t-79 44t-92 39.5l-119 45q-74 27 -113 45t-87 52t-68.5 81t-20.5 111q0 102 64.5 167.5t158.5 92.5q-51 27 -80.5 50t-57 73.5t-27.5 117.5q0 121 94 187.5t239 66.5q215 0 336 -149 l-53 -64q-100 147 -287 148q-111 0 -180.5 -48.5t-69.5 -132.5t52.5 -132t167.5 -87l141 -49q129 -45 203.5 -110.5t74.5 -171.5q0 -195 -215 -281q184 -76 185 -236q0 -133 -97.5 -208.5t-261.5 -75.5q-139 0 -241.5 56t-151.5 144zM174 670q0 -94 57.5 -140.5 t202.5 -101.5l139 -53q98 25 159 85t61 146q0 92 -65.5 144.5t-201.5 97.5l-125 43q-100 -20 -163.5 -78.5t-63.5 -142.5z" />
<glyph unicode="&#xa8;" horiz-adv-x="962" d="M250 1157v186h84v-186h-84zM627 1157v186h84v-186h-84z" />
<glyph unicode="&#xa9;" horiz-adv-x="1622" d="M111 717q0 295 201.5 497.5t498.5 202.5t498.5 -202.5t201.5 -497.5t-201.5 -497t-498.5 -202t-498.5 202t-201.5 497zM186 717q0 -266 179.5 -449.5t445.5 -183.5t445.5 183.5t179.5 449.5t-179.5 450.5t-445.5 184.5t-445.5 -184.5t-179.5 -450.5zM440 715 q0 201 101.5 320.5t269.5 119.5q223 0 309 -197l-59 -43q-66 174 -250 175q-135 0 -215 -99.5t-80 -273.5t81 -271.5t214 -97.5q180 0 250 152l59 -41q-92 -176 -309 -176q-168 0 -269.5 118.5t-101.5 313.5z" />
<glyph unicode="&#xaa;" horiz-adv-x="649" d="M63 956q0 78 48.5 121t150.5 60l170 28q33 6 33 31v23q0 147 -162 147q-170 0 -170 -172l-51 35q-2 90 61.5 139t159.5 49q121 0 178 -63q39 -45 39 -129v-322q0 -41 11.5 -58.5t43.5 -17.5q23 0 46 9v-52q-25 -10 -60 -10q-96 0 -96 100q-55 -106 -203 -106 q-94 0 -146.5 53t-52.5 135zM125 958q0 -63 41 -100t108 -37q88 0 139.5 57.5t51.5 135.5v110q-39 -10 -78 -18l-92 -16q-51 -8 -82 -18.5t-59.5 -39.5t-28.5 -74z" />
<glyph unicode="&#xab;" horiz-adv-x="706" d="M86 549v72l276 325v-112l-215 -246l215 -250v-115zM358 549v72l277 325v-112l-215 -246l215 -250v-115z" />
<glyph unicode="&#xac;" horiz-adv-x="1583" d="M381 860v70h811v-477h-76v407h-735z" />
<glyph unicode="&#xad;" horiz-adv-x="772" d="M102 510v74h568v-74h-568z" />
<glyph unicode="&#xae;" horiz-adv-x="1622" d="M111 717q0 295 201.5 497.5t498.5 202.5t498.5 -202.5t201.5 -497.5t-201.5 -497t-498.5 -202t-498.5 202t-201.5 497zM186 717q0 -266 179.5 -449.5t445.5 -183.5t445.5 183.5t179.5 449.5t-179.5 450.5t-445.5 184.5t-445.5 -184.5t-179.5 -450.5zM518 303v836h338 q131 0 199 -41q100 -61 100 -187q0 -113 -72.5 -168t-191.5 -61l272 -379h-84l-272 379h-221v-379h-68zM586 743h243q106 0 162 23q96 49 96 141q0 100 -96 148q-55 23 -162 22h-243v-334z" />
<glyph unicode="&#xaf;" horiz-adv-x="921" d="M176 1167v66h555v-66h-555z" />
<glyph unicode="&#xb0;" horiz-adv-x="733" d="M82 1132.5q0 118.5 83 201.5t201.5 83t201.5 -83t83 -201.5t-83 -202.5t-201.5 -84t-201.5 84t-83 202.5zM150 1132.5q0 -90.5 63 -154t153.5 -63.5t154 63.5t63.5 154.5q0 88 -64.5 152.5t-152.5 64.5q-90 0 -153.5 -63.5t-63.5 -154z" />
<glyph unicode="&#xb1;" horiz-adv-x="1583" d="M190 0v68h1201v-68h-1201zM190 684v68h568v462h69v-462h564v-68h-564v-465h-69v465h-568z" />
<glyph unicode="&#xb2;" horiz-adv-x="737" d="M90 1174q0 111 76 185.5t207 74.5q133 0 208.5 -76t75.5 -201q0 -66 -23.5 -128t-53 -105t-87 -95.5t-96.5 -79.5l-108 -77l-80 -54h448v-65h-565v61l65 44l85 59l83 60q48 36 83 67q82 74 126 144.5t44 162.5q0 100 -59.5 157.5t-149.5 57.5q-98 0 -148.5 -54.5 t-50.5 -135.5q0 -74 43 -156l-90 14q-33 66 -33 140z" />
<glyph unicode="&#xb3;" horiz-adv-x="737" d="M70 768l75 39q-2 -111 60.5 -160t159 -49t158 51t61.5 142q0 184 -271 184h-71v63h30q289 0 289 176q0 66 -50 109t-146 43q-94 0 -147.5 -52t-61.5 -130l-64 43q2 68 75 137.5t198 69.5q135 0 204.5 -62.5t69.5 -152.5q0 -76 -45 -130.5t-125 -76.5q84 -16 137 -73.5 t53 -147.5q0 -115 -78.5 -188t-218.5 -73q-131 0 -207.5 63.5t-84.5 174.5z" />
<glyph unicode="&#xb4;" horiz-adv-x="860" d="M207 1114l215 279h129l-264 -279h-80z" />
<glyph unicode="&#xb5;" horiz-adv-x="1056" d="M168 975h76v-545q0 -100 8 -162.5t34.5 -118t80 -80t137.5 -24.5q131 0 219 88q90 96 90 252v590h76v-975h-76v176h-2q-90 -201 -326 -201q-86 0 -150.5 33t-90.5 90v-487h-76v1364z" />
<glyph unicode="&#xb6;" horiz-adv-x="1445" d="M164 1030q0 182 121 281q106 82 321 82h615v-68h-174v-1587h-74v1587h-252v-1587h-72v930h-43q-215 0 -321 82q-121 98 -121 280z" />
<glyph unicode="&#xb7;" horiz-adv-x="315" d="M109 539v233h98v-233h-98z" />
<glyph unicode="&#xb8;" horiz-adv-x="921" d="M315 -135l107 133h59l-80 -102q16 4 52 4q70 0 115.5 -37t45.5 -107q0 -82 -53 -120.5t-133 -38.5q-51 0 -104 16l16 53q47 -14 88 -14q123 0 123 102q0 94 -125 94q-49 0 -86 -16z" />
<glyph unicode="&#xb9;" horiz-adv-x="737" d="M125 1147v65h33q92 0 137 33q55 41 59 148h68v-854h-76v655q-55 -49 -176 -49q-31 0 -45 2z" />
<glyph unicode="&#xba;" horiz-adv-x="712" d="M82 1090q0 150 73.5 237.5t202.5 87.5q127 0 200 -88t73 -237q0 -145 -73 -232.5t-200 -87.5q-129 0 -202.5 87.5t-73.5 232.5zM150 1089.5q0 -124.5 56 -193.5t152 -69q92 0 148.5 70t56.5 193q0 129 -54 199.5t-150.5 70.5t-152.5 -73t-56 -197.5z" />
<glyph unicode="&#xbb;" horiz-adv-x="706" d="M72 223v115l215 250l-215 246v112l276 -325v-72zM344 223v115l215 250l-215 246v112l277 -325v-72z" />
<glyph unicode="&#xbc;" horiz-adv-x="1511" d="M82 1147v65h33q92 0 137 33q55 41 59 148h68v-854h-76v655q-55 -49 -176 -49q-31 0 -45 2zM305 0l723 1393h82l-725 -1393h-80zM768 225v54l412 575h71v-563h154v-66h-154v-225h-75v225h-408zM852 291h324v231l6 228h-4q-78 -125 -109 -164l-82 -117z" />
<glyph unicode="&#xbd;" horiz-adv-x="1667" d="M82 1147v65h33q92 0 137 33q55 41 59 148h68v-854h-76v655q-55 -49 -176 -49q-31 0 -45 2zM305 0l723 1393h82l-725 -1393h-80zM967 621q0 111 75.5 185.5t206.5 74.5q133 0 209 -76t76 -201q0 -66 -23.5 -128t-53.5 -105t-87 -95.5t-96 -79.5l-109 -77l-80 -53h449v-66 h-565v61l64 44l85 59l83 60q48 36 83 67q82 74 126 144.5t44 162.5q0 100 -59.5 157.5t-149.5 57.5q-98 0 -148 -54t-50 -136q0 -74 43 -156l-91 14q-32 66 -32 140z" />
<glyph unicode="&#xbe;" horiz-adv-x="1681" d="M70 768l75 39q-2 -111 60.5 -160t159 -49t158 51t61.5 142q0 184 -271 184h-71v63h30q289 0 289 176q0 66 -50 109t-146 43q-94 0 -147.5 -52t-61.5 -130l-64 43q2 68 75 137.5t198 69.5q135 0 204.5 -62.5t69.5 -152.5q0 -76 -45 -130.5t-125 -76.5q84 -16 137 -73.5 t53 -147.5q0 -115 -78.5 -188t-218.5 -73q-131 0 -207.5 63.5t-84.5 174.5zM479 0l723 1393h82l-725 -1393h-80zM942 225v54l412 575h71v-563h154v-66h-154v-225h-75v225h-408zM1026 291h324v231l6 228h-4q-80 -123 -109 -164l-82 -117z" />
<glyph unicode="&#xbf;" horiz-adv-x="942" d="M70 -78q0 121 46 202t142 169l49 43q98 90 122 134t26 153v34h82v-59q0 -86 -26 -142.5t-116 -138.5l-78 -69q-166 -145 -165 -318q0 -133 82.5 -219t228 -86t225.5 89t80 220q0 90 -35 166l88 -18q27 -78 27 -154q0 -162 -105.5 -266t-281.5 -104q-182 0 -286.5 103 t-104.5 261zM442 776v199h105v-199h-105z" />
<glyph unicode="&#xc0;" horiz-adv-x="1185" d="M20 0l525 1393h98l522 -1393h-80l-163 438h-660l-160 -438h-82zM289 512h604l-213 567q-59 160 -86 252l-92 -250zM340 1821h129l215 -279h-80z" />
<glyph unicode="&#xc1;" horiz-adv-x="1185" d="M20 0l525 1393h98l522 -1393h-80l-163 438h-660l-160 -438h-82zM289 512h604l-213 567q-59 160 -86 252l-92 -250zM539 1542l215 279h129l-265 -279h-79z" />
<glyph unicode="&#xc2;" horiz-adv-x="1206" d="M31 0l524 1393h98l523 -1393h-80l-164 438h-660l-159 -438h-82zM299 512h604l-213 567q-59 160 -86 252l-92 -250zM328 1542l233 279h107l233 -279h-82l-205 215l-204 -215h-82z" />
<glyph unicode="&#xc3;" horiz-adv-x="1185" d="M20 0l525 1393h98l522 -1393h-80l-163 438h-660l-160 -438h-82zM289 512h604l-213 567q-59 160 -86 252l-92 -250zM291 1606q14 59 58 106t118 47q49 0 156 -53q90 -45 133 -45q31 0 53 16.5t31.5 32.5t21.5 47l58 -22q-43 -137 -166 -138q-59 0 -158 50q-102 49 -135 49 q-76 0 -109 -113z" />
<glyph unicode="&#xc4;" horiz-adv-x="1185" d="M20 0l525 1393h98l522 -1393h-80l-163 438h-660l-160 -438h-82zM289 512h604l-213 567q-59 160 -86 252l-92 -250zM369 1597v187h84v-187h-84zM745 1597v187h84v-187h-84z" />
<glyph unicode="&#xc5;" horiz-adv-x="1185" d="M20 0l525 1393h98l522 -1393h-80l-163 438h-660l-160 -438h-82zM289 512h604l-213 567q-59 160 -86 252l-92 -250zM428 1691.5q0 71.5 49 119t119 47.5t119 -47.5t49 -119t-49 -118.5t-119 -47t-119 47t-49 118.5zM483 1692q0 -45 33 -78t78 -33t78 33t33 78t-33 77.5 t-78 32.5t-78 -32.5t-33 -77.5z" />
<glyph unicode="&#xc6;" horiz-adv-x="1849" d="M-61 0l874 1393h891v-76h-772v-557h696v-76h-696v-608h815v-76h-895v432h-547l-274 -432h-92zM350 508h502v479l6 342h-2q-123 -211 -176 -295z" />
<glyph unicode="&#xc7;" horiz-adv-x="1288" d="M106 696q0 330 159 525.5t431 195.5q178 0 310.5 -87t201.5 -245l-63 -59q-59 154 -175 237t-274 83q-231 0 -369.5 -177.5t-138.5 -472.5q0 -293 139.5 -471t368.5 -178q160 0 279 86t178 244l64 -47q-68 -164 -195 -256t-303 -99l-57 -71q16 4 51 4q70 0 115.5 -37 t45.5 -107q0 -82 -53 -120.5t-133 -38.5q-51 0 -104 16l16 53q47 -14 88 -14q123 0 123 102q0 94 -125 95q-49 0 -86 -17l-29 37l78 100q-252 16 -397.5 210t-145.5 509z" />
<glyph unicode="&#xc8;" horiz-adv-x="1185" d="M168 0v1393h872v-76h-792v-559h719v-76h-719v-606h835v-76h-915zM377 1821h129l215 -279h-80z" />
<glyph unicode="&#xc9;" horiz-adv-x="1185" d="M168 0v1393h872v-76h-792v-559h719v-76h-719v-606h835v-76h-915zM518 1542l215 279h129l-264 -279h-80z" />
<glyph unicode="&#xca;" horiz-adv-x="1185" d="M168 0v1393h872v-76h-792v-559h719v-76h-719v-606h835v-76h-915zM334 1542l233 279h107l233 -279h-82l-204 215l-205 -215h-82z" />
<glyph unicode="&#xcb;" horiz-adv-x="1185" d="M168 0v1393h872v-76h-792v-559h719v-76h-719v-606h835v-76h-915zM373 1597v187h84v-187h-84zM750 1597v187h84v-187h-84z" />
<glyph unicode="&#xcc;" horiz-adv-x="415" d="M-23 1821h129l216 -279h-80zM168 0v1393h80v-1393h-80z" />
<glyph unicode="&#xcd;" horiz-adv-x="415" d="M135 1542l215 279h129l-264 -279h-80zM168 0v1393h80v-1393h-80z" />
<glyph unicode="&#xce;" horiz-adv-x="415" d="M-68 1542l234 279h106l234 -279h-82l-205 215l-205 -215h-82zM168 0v1393h80v-1393h-80z" />
<glyph unicode="&#xcf;" horiz-adv-x="415" d="M-16 1597v187h84v-187h-84zM168 0v1393h80v-1393h-80zM360 1597v187h84v-187h-84z" />
<glyph unicode="&#xd0;" horiz-adv-x="1353" d="M0 795h168v598h352q186 0 284.5 -16.5t188.5 -80.5q117 -82 185.5 -238.5t68.5 -357.5q0 -362 -200 -559q-96 -94 -208 -117.5t-352 -23.5h-319v719h-168v76zM248 1317v-522h528v-76h-528v-643h295q113 0 169 3t131 26.5t128 72.5q197 178 196 516q0 160 -52 297 t-148 221q-80 72 -174.5 88.5t-300.5 16.5h-244z" />
<glyph unicode="&#xd1;" horiz-adv-x="1368" d="M168 0v1393h78l764 -1088l110 -168h2q-2 166 -2 266v990h80v-1393h-78l-762 1087l-112 170h-2q2 -104 2 -225v-1032h-80zM365 1606q14 59 58 106t118 47q49 0 155 -53q90 -45 133 -45q31 0 53.5 16.5t32 32.5t21.5 47l57 -22q-43 -137 -166 -138q-59 0 -157 50 q-102 49 -135 49q-76 0 -109 -113z" />
<glyph unicode="&#xd2;" horiz-adv-x="1392" d="M106 696.5q0 329.5 159 525t431.5 195.5t431 -195.5t158.5 -525t-157.5 -525.5t-432.5 -196q-272 0 -431 196t-159 525.5zM188 696q0 -293 139.5 -471t369 -178t369.5 178t140 471q0 295 -138 472.5t-372 177.5q-231 0 -369.5 -177.5t-138.5 -472.5zM467 1821h129 l215 -279h-80z" />
<glyph unicode="&#xd3;" horiz-adv-x="1392" d="M106 696.5q0 329.5 159 525t431.5 195.5t431 -195.5t158.5 -525t-157.5 -525.5t-432.5 -196q-272 0 -431 196t-159 525.5zM188 696q0 -293 139.5 -471t369 -178t369.5 178t140 471q0 295 -138 472.5t-372 177.5q-231 0 -369.5 -177.5t-138.5 -472.5zM600 1542l215 279 h129l-264 -279h-80z" />
<glyph unicode="&#xd4;" horiz-adv-x="1392" d="M106 696.5q0 329.5 159 525t431.5 195.5t431 -195.5t158.5 -525t-157.5 -525.5t-432.5 -196q-272 0 -431 196t-159 525.5zM188 696q0 -293 139.5 -471t369 -178t369.5 178t140 471q0 295 -138 472.5t-372 177.5q-231 0 -369.5 -177.5t-138.5 -472.5zM408 1542l233 279 h107l233 -279h-82l-205 215l-205 -215h-81z" />
<glyph unicode="&#xd5;" horiz-adv-x="1392" d="M106 696.5q0 329.5 159 525t431.5 195.5t431 -195.5t158.5 -525t-157.5 -525.5t-432.5 -196q-272 0 -431 196t-159 525.5zM188 696q0 -293 139.5 -471t369 -178t369.5 178t140 471q0 295 -138 472.5t-372 177.5q-231 0 -369.5 -177.5t-138.5 -472.5zM399 1606 q14 59 58.5 106t117.5 47q49 0 156 -53q90 -45 133 -45q31 0 53.5 16.5t31.5 32.5t22 47l57 -22q-43 -137 -166 -138q-59 0 -157 50q-102 49 -136 49q-76 0 -108 -113z" />
<glyph unicode="&#xd6;" horiz-adv-x="1392" d="M106 696.5q0 329.5 159 525t431.5 195.5t431 -195.5t158.5 -525t-157.5 -525.5t-432.5 -196q-272 0 -431 196t-159 525.5zM188 696q0 -293 139.5 -471t369 -178t369.5 178t140 471q0 295 -138 472.5t-372 177.5q-231 0 -369.5 -177.5t-138.5 -472.5zM473 1597v187h84 v-187h-84zM850 1597v187h84v-187h-84z" />
<glyph unicode="&#xd7;" horiz-adv-x="1583" d="M260 129l477 475l-477 477l53 54l478 -478l477 480l53 -52l-477 -477l477 -481l-53 -53l-477 479l-478 -477z" />
<glyph unicode="&#xd8;" horiz-adv-x="1392" d="M33 -2l196 219q-123 188 -123 479q0 330 159 525.5t431 195.5q274 0 432 -198l183 202l57 -51l-194 -217q113 -182 112 -457q0 -330 -157.5 -525.5t-432.5 -195.5q-262 0 -417 179l-187 -207zM188 696q0 -248 101 -413l786 874q-143 188 -379 189q-231 0 -369.5 -177.5 t-138.5 -472.5zM334 217q137 -170 362 -170q229 0 369.5 178t140.5 471q0 233 -88 394z" />
<glyph unicode="&#xd9;" horiz-adv-x="1343" d="M152 571q0 -172 18 -252q37 -174 168 -261t333.5 -87t334 87t168.5 261q18 82 18 252v822h-80v-818q0 -221 -43 -313q-102 -219 -397 -219q-297 0 -396 219q-45 92 -45 313v818h-79v-822zM446 1821h129l216 -279h-80z" />
<glyph unicode="&#xda;" horiz-adv-x="1343" d="M152 571v822h79v-818q0 -221 45 -313q98 -219 396 -219q295 0 397 219q43 92 43 313v818h80v-822q0 -170 -18 -252q-37 -174 -168.5 -261t-334 -87t-333.5 87t-168 261q-18 80 -18 252zM549 1542l215 279h129l-264 -279h-80z" />
<glyph unicode="&#xdb;" horiz-adv-x="1343" d="M152 571q0 -172 18 -252q37 -174 168 -261t333.5 -87t334 87t168.5 261q18 82 18 252v822h-80v-818q0 -221 -43 -313q-102 -219 -397 -219q-297 0 -396 219q-45 92 -45 313v818h-79v-822zM379 1542l233 279h107l233 -279h-82l-204 215l-205 -215h-82z" />
<glyph unicode="&#xdc;" horiz-adv-x="1343" d="M152 571v822h79v-818q0 -221 45 -313q98 -219 396 -219q295 0 397 219q43 92 43 313v818h80v-822q0 -170 -18 -252q-37 -174 -168.5 -261t-334 -87t-333.5 87t-168 261q-18 80 -18 252zM438 1597v187h84v-187h-84zM815 1597v187h84v-187h-84z" />
<glyph unicode="&#xdd;" horiz-adv-x="1110" d="M10 1393h96l455 -711l449 711h90l-502 -795v-598h-80v598zM469 1542l215 279h129l-264 -279h-80z" />
<glyph unicode="&#xde;" horiz-adv-x="1222" d="M168 0v1393h80v-176h407q201 0 299 -43q106 -45 167 -135.5t61 -213.5q0 -250 -226 -350q-100 -43 -299 -43h-409v-432h-80zM248 508h420q219 0 323 80q106 80 107 237q0 166 -140 254q-102 61 -313 62h-397v-633z" />
<glyph unicode="&#xdf;" horiz-adv-x="991" d="M156 0v938q0 229 47 324q82 156 297 155q164 0 244.5 -85t80.5 -218q0 -123 -54 -194.5t-140 -94.5l-2 -2q55 -12 90 -28.5t80 -56.5t67.5 -120.5t22.5 -197.5q0 -434 -299 -434q-145 0 -203 88q-45 74 -45 256v30h68q0 -63 1 -95t10 -81t26.5 -72.5t51 -43t85.5 -19.5 q127 0 177 88t50 285q0 121 -22.5 188.5t-86.5 116.5q-76 57 -274 57h-86v66h74q146 0 202 24q133 63 134 230q0 111 -62.5 179.5t-191.5 68.5q-180 0 -238 -150q-29 -78 -29 -280v-922h-75z" />
<glyph unicode="&#xe0;" horiz-adv-x="976" d="M90 266q0 123 77 188.5t239 94.5l272 47q35 6 46 17.5t11 39.5v33q0 127 -64.5 186.5t-203.5 59.5q-279 0 -279 -264l-67 41q-2 137 95 212.5t251 75.5q199 0 281 -100q57 -72 57 -197v-518q0 -70 19.5 -101.5t76.5 -31.5q35 0 66 10v-61q-33 -12 -86 -12 q-145 0 -146 145q0 25 2 39h-2q-82 -195 -334 -195q-152 0 -231.5 81t-79.5 210zM170 270q0 -109 68.5 -169t183.5 -60q145 0 229 97.5t84 232.5v180q-20 -14 -135 -33l-147 -26q-51 -10 -83 -17.5t-75 -24t-66.5 -38t-41 -58.5t-17.5 -84zM268 1393h129l215 -279h-80z" />
<glyph unicode="&#xe1;" horiz-adv-x="976" d="M90 266q0 123 77 188.5t239 94.5l272 47q35 6 46 17.5t11 39.5v33q0 127 -64.5 186.5t-203.5 59.5q-279 0 -279 -264l-67 41q-2 137 95 212.5t251 75.5q199 0 281 -100q57 -72 57 -197v-518q0 -70 19.5 -101.5t76.5 -31.5q35 0 66 10v-61q-33 -12 -86 -12 q-145 0 -146 145q0 25 2 39h-2q-82 -195 -334 -195q-152 0 -231.5 81t-79.5 210zM170 270q0 -109 68.5 -169t183.5 -60q145 0 229 97.5t84 232.5v180q-20 -14 -135 -33l-147 -26q-51 -10 -83 -17.5t-75 -24t-66.5 -38t-41 -58.5t-17.5 -84zM377 1114l215 279h129l-264 -279 h-80z" />
<glyph unicode="&#xe2;" horiz-adv-x="976" d="M90 266q0 123 77 188.5t239 94.5l272 47q35 6 46 17.5t11 39.5v33q0 127 -64.5 186.5t-203.5 59.5q-279 0 -279 -264l-67 41q-2 137 95 212.5t251 75.5q199 0 281 -100q57 -72 57 -197v-518q0 -70 19.5 -101.5t76.5 -31.5q35 0 66 10v-61q-33 -12 -86 -12 q-145 0 -146 145q0 25 2 39h-2q-82 -195 -334 -195q-152 0 -231.5 81t-79.5 210zM170 270q0 -109 68.5 -169t183.5 -60q145 0 229 97.5t84 232.5v180q-20 -14 -135 -33l-147 -26q-51 -10 -83 -17.5t-75 -24t-66.5 -38t-41 -58.5t-17.5 -84zM180 1114l234 279h106l234 -279 h-82l-205 215l-205 -215h-82z" />
<glyph unicode="&#xe3;" horiz-adv-x="976" d="M90 266q0 123 77 188.5t239 94.5l272 47q35 6 46 17.5t11 39.5v33q0 127 -64.5 186.5t-203.5 59.5q-279 0 -279 -264l-67 41q-2 137 95 212.5t251 75.5q199 0 281 -100q57 -72 57 -197v-518q0 -70 19.5 -101.5t76.5 -31.5q35 0 66 10v-61q-33 -12 -86 -12 q-145 0 -146 145q0 25 2 39h-2q-82 -195 -334 -195q-152 0 -231.5 81t-79.5 210zM166 1180q14 59 58 106t118 47q49 0 156 -53q90 -45 133 -45q31 0 53.5 16.5t31.5 32.5t21 47l58 -22q-43 -137 -166 -138q-59 0 -158 50q-102 49 -135 49q-76 0 -109 -113zM170 270 q0 -109 68.5 -169t183.5 -60q145 0 229 97.5t84 232.5v180q-20 -14 -135 -33l-147 -26q-51 -10 -83 -17.5t-75 -24t-66.5 -38t-41 -58.5t-17.5 -84z" />
<glyph unicode="&#xe4;" horiz-adv-x="976" d="M90 266q0 123 77 188.5t239 94.5l272 47q35 6 46 17.5t11 39.5v33q0 127 -64.5 186.5t-203.5 59.5q-279 0 -279 -264l-67 41q-2 137 95 212.5t251 75.5q199 0 281 -100q57 -72 57 -197v-518q0 -70 19.5 -101.5t76.5 -31.5q35 0 66 10v-61q-33 -12 -86 -12 q-145 0 -146 145q0 25 2 39h-2q-82 -195 -334 -195q-152 0 -231.5 81t-79.5 210zM170 270q0 -109 68.5 -169t183.5 -60q145 0 229 97.5t84 232.5v180q-20 -14 -135 -33l-147 -26q-51 -10 -83 -17.5t-75 -24t-66.5 -38t-41 -58.5t-17.5 -84zM264 1157v186h84v-186h-84z M641 1157v186h84v-186h-84z" />
<glyph unicode="&#xe5;" horiz-adv-x="976" d="M90 266q0 123 77 188.5t239 94.5l272 47q35 6 46 17.5t11 39.5v33q0 127 -64.5 186.5t-203.5 59.5q-279 0 -279 -264l-67 41q-2 137 95 212.5t251 75.5q199 0 281 -100q57 -72 57 -197v-518q0 -70 19.5 -101.5t76.5 -31.5q35 0 66 10v-61q-33 -12 -86 -12 q-145 0 -146 145q0 25 2 39h-2q-82 -195 -334 -195q-152 0 -231.5 81t-79.5 210zM170 270q0 -109 68.5 -169t183.5 -60q145 0 229 97.5t84 232.5v180q-20 -14 -135 -33l-147 -26q-51 -10 -83 -17.5t-75 -24t-66.5 -38t-41 -58.5t-17.5 -84zM313 1263.5q0 71.5 49.5 119 t119 47.5t118.5 -47.5t49 -119t-49 -118.5t-118.5 -47t-119 47t-49.5 118.5zM369 1264q0 -47 32.5 -79t77.5 -32t78 32t33 79t-33 78.5t-78 31.5t-77.5 -31.5t-32.5 -78.5z" />
<glyph unicode="&#xe6;" horiz-adv-x="1683" d="M90 266q0 123 77 188.5t239 94.5l272 47q35 6 46 17.5t11 39.5v33q0 127 -64.5 186.5t-203.5 59.5q-279 0 -279 -264l-67 41q-2 137 95 212.5t251 75.5q199 0 281 -100q37 -45 51 -121q113 223 360 223q190 0 300 -135t110 -354v-18h-756v-19q0 -188 93 -308t270 -120 q98 0 172.5 40t107.5 82t66 103l53 -53q-49 -96 -148.5 -169t-252.5 -73q-291 0 -398 256q-80 -256 -375 -256q-152 0 -231.5 81t-79.5 210zM170 270q0 -109 68.5 -169t183.5 -60q145 0 229 97.5t84 232.5v180q-20 -14 -135 -33l-147 -26q-51 -10 -83 -17.5t-75 -24 t-66.5 -38t-41 -58.5t-17.5 -84zM815 557h670q-2 152 -90 264.5t-236 112.5q-145 0 -235.5 -99.5t-108.5 -277.5z" />
<glyph unicode="&#xe7;" horiz-adv-x="970" d="M102 483q0 233 116 374.5t314 141.5q276 0 379 -245l-59 -62q-39 117 -121 179.5t-199 62.5q-160 0 -254 -120t-94 -329q0 -205 95.5 -324.5t252.5 -119.5q219 0 312 213l57 -51q-113 -219 -354 -228l-58 -71q16 4 52 4q70 0 115.5 -37t45.5 -107q0 -82 -53 -120.5 t-133 -38.5q-51 0 -104 16l16 53q47 -14 88 -14q123 0 123 102q0 94 -125 95q-49 0 -86 -17l-25 33l86 104q-182 14 -284.5 150.5t-102.5 355.5z" />
<glyph unicode="&#xe8;" horiz-adv-x="1058" d="M102 483q0 231 118 373.5t312 142.5q190 0 301 -136t111 -353v-18h-760v-19q0 -188 94.5 -308t270.5 -120q98 0 173 40t108.5 82t66.5 103l53 -53q-49 -96 -149.5 -169t-253.5 -73q-203 0 -324 136t-121 372zM186 557h674q-2 150 -90 263.5t-238 113.5 q-145 0 -236.5 -99.5t-109.5 -277.5zM295 1393h129l215 -279h-80z" />
<glyph unicode="&#xe9;" horiz-adv-x="1058" d="M102 483q0 231 118 373.5t312 142.5q190 0 301 -136t111 -353v-18h-760v-19q0 -188 94.5 -308t270.5 -120q98 0 173 40t108.5 82t66.5 103l53 -53q-49 -96 -149.5 -169t-253.5 -73q-203 0 -324 136t-121 372zM186 557h674q-2 150 -90 263.5t-238 113.5 q-145 0 -236.5 -99.5t-109.5 -277.5zM434 1114l215 279h129l-264 -279h-80z" />
<glyph unicode="&#xea;" horiz-adv-x="1058" d="M102 483q0 231 118 373.5t312 142.5q190 0 301 -136t111 -353v-18h-760v-19q0 -188 94.5 -308t270.5 -120q98 0 173 40t108.5 82t66.5 103l53 -53q-49 -96 -149.5 -169t-253.5 -73q-203 0 -324 136t-121 372zM186 557h674q-2 150 -90 263.5t-238 113.5 q-145 0 -236.5 -99.5t-109.5 -277.5zM250 1114l233 279h107l233 -279h-82l-204 215l-205 -215h-82z" />
<glyph unicode="&#xeb;" horiz-adv-x="1058" d="M102 483q0 231 118 373.5t312 142.5q190 0 301 -136t111 -353v-18h-760v-19q0 -188 94.5 -308t270.5 -120q98 0 173 40t108.5 82t66.5 103l53 -53q-49 -96 -149.5 -169t-253.5 -73q-203 0 -324 136t-121 372zM186 557h674q-2 150 -90 263.5t-238 113.5 q-145 0 -236.5 -99.5t-109.5 -277.5zM303 1157v209h76v-209h-76zM684 1157v209h76v-209h-76z" />
<glyph unicode="&#xec;" horiz-adv-x="411" d="M-80 1393h129l215 -279h-80zM168 0v975h76v-975h-76z" />
<glyph unicode="&#xed;" horiz-adv-x="411" d="M150 1114l215 279h129l-265 -279h-79zM168 0v975h76v-975h-76z" />
<glyph unicode="&#xee;" horiz-adv-x="411" d="M-72 1114l234 279h106l234 -279h-82l-205 215l-205 -215h-82zM168 0v975h76v-975h-76z" />
<glyph unicode="&#xef;" horiz-adv-x="411" d="M-25 1157v186h84v-186h-84zM168 0v975h76v-975h-76zM352 1157v186h84v-186h-84z" />
<glyph unicode="&#xf0;" horiz-adv-x="1095" d="M102 483q0 240 111 378t317 138q229 0 344 -215l7 2q-49 219 -172 418l-377 -123l-19 66l357 115q-41 63 -97 124l68 33q57 -66 100 -133l197 64l20 -62l-180 -59q195 -322 195 -707q0 -244 -110.5 -396.5t-327.5 -152.5q-201 0 -317 137t-116 373zM184 485 q0 -207 95.5 -325.5t255.5 -118.5q158 0 257 120t99 324q0 209 -97.5 329t-258.5 120q-170 0 -260.5 -119t-90.5 -330z" />
<glyph unicode="&#xf1;" horiz-adv-x="1064" d="M168 0v975h76v-182h2q31 84 114.5 145t214.5 61q195 0 275 -141q49 -90 49 -264v-594h-76v532q0 205 -51 301.5t-215 96.5q-135 0 -223 -88q-90 -96 -90 -252v-590h-76zM240 1180q14 59 58 106t118 47q49 0 155 -53q90 -45 134 -45q31 0 53 16.5t31.5 32.5t21.5 47 l57 -22q-43 -137 -166 -138q-59 0 -157 50q-102 49 -135 49q-76 0 -109 -113z" />
<glyph unicode="&#xf2;" horiz-adv-x="1067" d="M102 483q0 236 115 376t315.5 140t316.5 -141t116 -375q0 -229 -117 -368.5t-316 -139.5q-197 0 -313.5 139.5t-116.5 368.5zM184 485q0 -205 95.5 -324.5t252.5 -119.5q160 0 255.5 120t95.5 324q0 209 -94.5 329t-256.5 120q-160 0 -254 -120t-94 -329zM293 1393h129 l215 -279h-80z" />
<glyph unicode="&#xf3;" horiz-adv-x="1067" d="M102 483q0 236 115 376t315.5 140t316.5 -141t116 -375q0 -229 -117 -368.5t-316 -139.5q-197 0 -313.5 139.5t-116.5 368.5zM184 485q0 -205 95.5 -324.5t252.5 -119.5q160 0 255.5 120t95.5 324q0 209 -94.5 329t-256.5 120q-160 0 -254 -120t-94 -329zM442 1114 l215 279h129l-264 -279h-80z" />
<glyph unicode="&#xf4;" horiz-adv-x="1067" d="M102 483q0 236 115 376t315.5 140t316.5 -141t116 -375q0 -229 -117 -368.5t-316 -139.5q-197 0 -313.5 139.5t-116.5 368.5zM184 485q0 -205 95.5 -324.5t252.5 -119.5q160 0 255.5 120t95.5 324q0 209 -94.5 329t-256.5 120q-160 0 -254 -120t-94 -329zM246 1114 l233 279h107l233 -279h-82l-205 215l-204 -215h-82z" />
<glyph unicode="&#xf5;" horiz-adv-x="1067" d="M102 483q0 236 115 376t315.5 140t316.5 -141t116 -375q0 -229 -117 -368.5t-316 -139.5q-197 0 -313.5 139.5t-116.5 368.5zM184 485q0 -205 95.5 -324.5t252.5 -119.5q160 0 255.5 120t95.5 324q0 209 -94.5 329t-256.5 120q-160 0 -254 -120t-94 -329zM221 1180 q14 59 58.5 106t117.5 47q49 0 156 -53q90 -45 133 -45q31 0 53.5 16.5t31.5 32.5t22 47l57 -22q-43 -137 -166 -138q-59 0 -158 50q-102 49 -135 49q-76 0 -108 -113z" />
<glyph unicode="&#xf6;" horiz-adv-x="1067" d="M102 483q0 236 115 376t315.5 140t316.5 -141t116 -375q0 -229 -117 -368.5t-316 -139.5q-197 0 -313.5 139.5t-116.5 368.5zM184 485q0 -205 95.5 -324.5t252.5 -119.5q160 0 255.5 120t95.5 324q0 209 -94.5 329t-256.5 120q-160 0 -254 -120t-94 -329zM305 1157v186 h84v-186h-84zM682 1157v186h84v-186h-84z" />
<glyph unicode="&#xf7;" horiz-adv-x="1583" d="M104 465v57h1377v-57h-1377zM743 0v233h99v-233h-99zM743 741v234h99v-234h-99z" />
<glyph unicode="&#xf8;" horiz-adv-x="1067" d="M102 483.5q0 235.5 115 375.5t315 140q174 0 287 -108l103 133l57 -43l-113 -145q98 -139 99 -353q0 -229 -117 -368.5t-316 -139.5q-156 0 -262 88l-100 -131l-55 43l104 138q-117 135 -117 370.5zM184 485q0 -193 84 -311l506 657q-92 102 -242 103q-160 0 -254 -120 t-94 -329zM315 121q86 -80 217 -80q160 0 255.5 120t95.5 324q0 168 -66 287z" />
<glyph unicode="&#xf9;" horiz-adv-x="1048" d="M160 381v594h76v-533q0 -102 7 -164.5t32.5 -121t80 -85t140.5 -26.5q131 0 219 88q90 96 90 252v590h76v-975h-76v176h-2q-90 -201 -326 -201q-188 0 -268 142q-49 90 -49 264zM299 1393h129l215 -279h-80z" />
<glyph unicode="&#xfa;" horiz-adv-x="1048" d="M160 381v594h76v-533q0 -102 7 -164.5t32.5 -121t80 -85t140.5 -26.5q131 0 219 88q90 96 90 252v590h76v-975h-76v176h-2q-90 -201 -326 -201q-188 0 -268 142q-49 90 -49 264zM414 1114l215 279h129l-264 -279h-80z" />
<glyph unicode="&#xfb;" horiz-adv-x="1048" d="M160 381v594h76v-533q0 -102 7 -164.5t32.5 -121t80 -85t140.5 -26.5q131 0 219 88q90 96 90 252v590h76v-975h-76v176h-2q-90 -201 -326 -201q-188 0 -268 142q-49 90 -49 264zM244 1114l233 279h107l233 -279h-82l-205 215l-204 -215h-82z" />
<glyph unicode="&#xfc;" horiz-adv-x="1048" d="M160 381v594h76v-533q0 -102 7 -164.5t32.5 -121t80 -85t140.5 -26.5q131 0 219 88q90 96 90 252v590h76v-975h-76v176h-2q-90 -201 -326 -201q-188 0 -268 142q-49 90 -49 264zM301 1157v186h84v-186h-84zM678 1157v186h84v-186h-84z" />
<glyph unicode="&#xfd;" horiz-adv-x="843" d="M31 975h86l248 -694l55 -162h2l61 168l262 688h82l-432 -1108q-51 -133 -82 -184q-59 -96 -176 -97q-53 0 -94 19v78q39 -25 98 -25q49 0 78 23q35 29 72 122l86 220zM324 1114l215 279h129l-265 -279h-79z" />
<glyph unicode="&#xfe;" horiz-adv-x="1097" d="M168 -389v1782h76v-621h2q33 96 121 161.5t215 65.5q197 0 305 -137t108 -379q0 -236 -112.5 -372t-300.5 -136q-246 0 -336 224h-2v-588h-76zM238 485q0 -211 90 -327.5t247 -116.5q160 0 249 117.5t89 328.5q0 213 -91 330t-251 117q-154 0 -243.5 -117t-89.5 -332z " />
<glyph unicode="&#xff;" horiz-adv-x="843" d="M31 975h86l248 -694l55 -162h2l61 168l262 688h82l-432 -1108q-51 -133 -82 -184q-59 -96 -176 -97q-53 0 -94 19v78q39 -25 98 -25q49 0 78 23q35 29 72 122l86 220zM211 1157v186h84v-186h-84zM588 1157v186h84v-186h-84z" />
<glyph unicode="&#x152;" horiz-adv-x="2074" d="M106 692q0 348 195 536.5t518 188.5q115 0 242 -24h868v-76h-788v-559h717v-76h-717v-606h831v-76h-911q-129 -25 -248 -25q-324 0 -515.5 180.5t-191.5 536.5zM188 692q0 -319 181.5 -485t455.5 -166q117 0 236 31v1245q-131 29 -242 29q-283 0 -457 -162t-174 -492z " />
<glyph unicode="&#x153;" horiz-adv-x="1818" d="M102 483q0 236 113 376t313 140q141 0 237.5 -72.5t141.5 -195.5q49 127 149.5 197.5t235.5 70.5q190 0 301 -137t111 -352v-16h-760v-21q0 -188 94.5 -308t270.5 -120q98 0 172.5 40t108.5 82t67 103l53 -53q-49 -96 -148.5 -169t-254.5 -73q-143 0 -247 69t-155 196 q-94 -264 -377 -265q-197 0 -311.5 138.5t-114.5 369.5zM184 485q0 -207 93.5 -325.5t251 -118.5t250.5 120t93 324q0 211 -91 330t-253 119q-160 0 -252 -120t-92 -329zM946 559h674q-4 147 -92 261t-236 114q-145 0 -235.5 -98.5t-110.5 -276.5z" />
<glyph unicode="&#x178;" horiz-adv-x="1110" d="M10 1393h96l455 -711l449 711h90l-502 -795v-598h-80v598zM330 1597v187h84v-187h-84zM707 1597v187h84v-187h-84z" />
<glyph unicode="&#x2c6;" horiz-adv-x="921" d="M162 1114l233 279h107l233 -279h-82l-204 215l-205 -215h-82z" />
<glyph unicode="&#x2dc;" horiz-adv-x="921" d="M141 1180q14 59 58.5 106t117.5 47q49 0 156 -53q90 -45 133 -45q31 0 53.5 16.5t31.5 32.5t22 47l57 -22q-43 -137 -166 -138q-59 0 -158 50q-102 49 -135 49q-76 0 -108 -113z" />
<glyph unicode="&#x2013;" horiz-adv-x="1327" d="M143 522v58h1043v-58h-1043z" />
<glyph unicode="&#x2014;" horiz-adv-x="1579" d="M74 522v58h1431v-58h-1431z" />
<glyph unicode="&#x2018;" horiz-adv-x="329" d="M92 862v250q0 111 14 170q25 96 99 131v-70q-35 -33 -46.5 -83t-11.5 -144v-20h43v-234h-98z" />
<glyph unicode="&#x2019;" horiz-adv-x="329" d="M125 842v69q35 33 46 83t11 145v20h-43v234h99v-250q0 -111 -15 -170q-24 -96 -98 -131z" />
<glyph unicode="&#x201a;" horiz-adv-x="645" d="M141 -248q35 33 46.5 83t11.5 145v20h-43v233h98v-249q0 -111 -14 -170q-25 -96 -99 -131v69zM426 -248q35 33 46 83t11 145v20h-43v233h99v-249q0 -111 -15 -170q-25 -96 -98 -131v69z" />
<glyph unicode="&#x201c;" horiz-adv-x="614" d="M92 862v250q0 111 14 170q25 96 99 131v-70q-35 -33 -46.5 -83t-11.5 -144v-20h43v-234h-98zM377 862v250q0 111 14 170q25 96 98 131v-70q-35 -33 -46 -83t-11 -144v-20h43v-234h-98z" />
<glyph unicode="&#x201d;" horiz-adv-x="614" d="M125 842v69q35 33 46 83t11 145v20h-43v234h99v-250q0 -111 -15 -170q-24 -96 -98 -131zM410 842v69q35 33 46 83t11 145v20h-43v234h98v-250q0 -111 -14 -170q-24 -96 -98 -131z" />
<glyph unicode="&#x201e;" horiz-adv-x="360" d="M139 -248q35 33 46.5 83t11.5 145v20h-43v233h98v-249q0 -111 -14 -170q-25 -96 -99 -131v69z" />
<glyph unicode="&#x2022;" horiz-adv-x="581" d="M92 702q0 80 58.5 137.5t138.5 57.5q82 0 141 -57.5t59 -137.5q0 -82 -59 -140t-141 -58q-80 0 -138.5 58t-58.5 140z" />
<glyph unicode="&#x2026;" horiz-adv-x="1681" d="M109 0v233h98v-233h-98zM791 0v233h98v-233h-98zM1475 0v233h98v-233h-98z" />
<glyph unicode="&#x2039;" horiz-adv-x="434" d="M86 549v72l276 325v-112l-215 -246l215 -250v-115z" />
<glyph unicode="&#x203a;" horiz-adv-x="434" d="M72 223v115l215 250l-215 246v112l276 -325v-72z" />
<glyph unicode="&#x20ac;" d="M6 508l25 67h143q-4 35 -4 119q0 39 4 113h-168l25 67h149q35 250 156 396.5t330 146.5q307 0 428 -323l-68 -52q-102 303 -360 304q-168 0 -270.5 -127t-133.5 -345h569l-22 -67h-553q-4 -35 -4 -109q0 -86 4 -123h479l-22 -67h-451q55 -461 404 -461q272 0 364 293 l68 -35q-115 -330 -432 -330q-219 0 -337 146.5t-149 386.5h-174z" />
<glyph unicode="&#x2122;" horiz-adv-x="1730" d="M33 1327v66h657v-66h-295v-829h-69v829h-293zM807 498h70v612l-5 195h5q33 -111 41 -134l243 -673h60l231 678q29 88 39 129h4q-4 -82 -4 -179v-628h70v895h-103l-215 -641l-49 -170q-23 84 -53 170l-232 641h-102v-895z" />
<glyph unicode="&#xe000;" horiz-adv-x="975" d="M0 975h975v-975h-975v975z" />
<glyph unicode="&#xfb01;" horiz-adv-x="1052" d="M25 905v70h223v221q0 109 45 160q53 61 170 61q61 0 127 -18v-74q-70 25 -131 25q-70 0 -105 -37q-31 -35 -30 -111v-227h266v-70h-266v-905h-76v905h-223zM809 0v975h76v-975h-76zM809 1178v215h76v-215h-76z" />
<glyph unicode="&#xfb02;" horiz-adv-x="1052" d="M25 905v70h223v221q0 109 45 160q53 61 170 61q61 0 127 -18v-74q-70 25 -131 25q-70 0 -105 -37q-31 -35 -30 -111v-227h266v-70h-266v-905h-76v905h-223zM809 0v1393h76v-1393h-76z" />
<glyph unicode="&#xfb03;" horiz-adv-x="1693" d="M25 905v70h223v221q0 109 45 160q53 61 170 61q61 0 127 -18v-74q-70 25 -131 25q-70 0 -105 -37q-31 -35 -30 -111v-227h266v-70h-266v-905h-76v905h-223zM666 905v70h223v221q0 109 45 160q53 61 170 61q61 0 127 -18v-74q-70 25 -131 25q-70 0 -105 -37 q-31 -35 -30 -111v-227h266v-70h-266v-905h-76v905h-223zM1450 0v975h76v-975h-76zM1450 1178v215h76v-215h-76z" />
<glyph unicode="&#xfb04;" horiz-adv-x="1705" d="M25 905v70h223v221q0 109 45 160q53 61 170 61q61 0 127 -18v-74q-70 25 -131 25q-70 0 -105 -37q-31 -35 -30 -111v-227h266v-70h-266v-905h-76v905h-223zM666 905v70h223v221q0 109 45 160q53 61 170 61q61 0 127 -18v-74q-70 25 -131 25q-70 0 -105 -37 q-31 -35 -30 -111v-227h266v-70h-266v-905h-76v905h-223zM1456 0v1393h76v-1393h-76z" />
</font>
</defs>
</svg>
