<?xml version="1.0" standalone="no"?>
<!DOCTYPE svg PUBLIC "-//W3C//DTD SVG 1.1//EN" "http://www.w3.org/Graphics/SVG/1.1/DTD/svg11.dtd" >
<svg xmlns="http://www.w3.org/2000/svg">
<metadata>
This is a custom SVG webfont generated by Font Squirrel.
Copyright   : Copyright c 2008 by Optimo All rights reserved
Designer    : JeanFranois Rappo
Foundry     : JeanFranois Rappo published by Optimo
Foundry URL : httpwwwoptimoch
</metadata>
<defs>
<font id="TheinhardtLight" horiz-adv-x="1208" >
<font-face units-per-em="2048" ascent="1393" descent="-655" />
<missing-glyph horiz-adv-x="563" />
<glyph unicode=" "  horiz-adv-x="563" />
<glyph unicode="&#x09;" horiz-adv-x="563" />
<glyph unicode="&#xa0;" horiz-adv-x="563" />
<glyph unicode="!" horiz-adv-x="479" d="M162 0v233h155v-233h-155zM174 729v664h131v-664l-20 -369h-92z" />
<glyph unicode="&#x22;" horiz-adv-x="643" d="M123 1235v158h143v-158l-43 -401h-61zM377 1235v158h143v-158l-43 -401h-61z" />
<glyph unicode="#" d="M-20 395v115h331l58 340h-346v117h364l74 426h121l-74 -426h260l74 426h121l-74 -426h342v-117h-361l-57 -340h375v-115h-397l-64 -395h-121l66 395h-262l-64 -395h-121l66 395h-311zM432 510h260l58 340h-263z" />
<glyph unicode="$" d="M63 315l113 74q41 -104 133 -182t230 -94v559l-33 8q-86 18 -145.5 40.5t-117 61.5t-86 101.5t-28.5 148.5q0 150 112.5 249t297.5 112v211h123v-213q252 -29 387 -224l-99 -82q-119 162 -288 191v-504l61 -12q193 -41 288 -123t95 -240q0 -166 -119 -274.5t-325 -122.5 v-203h-123v203q-178 16 -299.5 104t-176.5 211zM260 1042q0 -106 64.5 -158.5t210.5 -84.5l4 -2v483q-123 -10 -201 -75t-78 -163zM662 111q147 12 228 86.5t81 193.5q0 104 -70 161.5t-221 90.5l-18 4v-536z" />
<glyph unicode="%" horiz-adv-x="1832" d="M76 963q0 86 15 160.5t48 143t96.5 107.5t149.5 39q88 0 151.5 -41t94.5 -110.5t44 -142t13 -156.5q0 -178 -78 -303t-229 -125q-109 0 -180.5 64.5t-98 156.5t-26.5 207zM188 977q0 -147 48.5 -245.5t146.5 -98.5q102 0 148.5 91t46.5 237q0 164 -48.5 261t-146.5 97 q-96 0 -145.5 -96t-49.5 -246zM471 0l729 1393h115l-725 -1393h-119zM1114 403q0 86 15.5 161t48 143.5t96 107.5t149.5 39q88 0 151.5 -41t94.5 -110.5t44 -142.5t13 -157q0 -178 -77.5 -303t-229.5 -125q-109 0 -180.5 64.5t-98 156.5t-26.5 207zM1227 418 q0 -147 48 -245.5t146 -98.5q102 0 148.5 91t46.5 236q0 164 -48 261.5t-147 97.5q-96 0 -145 -96t-49 -246z" />
<glyph unicode="&#x26;" horiz-adv-x="1232" d="M55 352q0 156 89 253t264 186q-25 31 -46 53q-125 154 -124 289q0 115 86 197.5t231 82.5q150 0 231.5 -80t81.5 -192q0 -225 -282 -377l303 -367q55 129 78 267l112 -31q-31 -186 -114 -334l260 -299h-158l-172 195q-152 -219 -422 -220q-166 0 -292 101.5t-126 275.5z M184 365q0 -129 89 -203t210 -74q104 0 194.5 51t145.5 146l-350 424q-70 -39 -110.5 -67t-88 -70t-69 -94t-21.5 -113zM367 1137q0 -20 4 -41t8 -36.5t14 -34.5l17 -31q6 -11 18 -28.5t17 -23.5l19 -22q13 -16 15 -19l43 -55q219 109 219 280q0 86 -53 133.5t-133 47.5 q-84 0 -136 -46t-52 -124z" />
<glyph unicode="'" horiz-adv-x="405" d="M127 1237v156h152v-156l-48 -403h-61z" />
<glyph unicode="(" horiz-adv-x="464" d="M96 528q0 453 254 865l103 -15q-229 -391 -229.5 -843.5t229.5 -843.5l-101 -19q-256 405 -256 856z" />
<glyph unicode=")" horiz-adv-x="464" d="M10 -309q229 391 229.5 843.5t-229.5 843.5l103 15q254 -412 254 -865q0 -451 -256 -856z" />
<glyph unicode="*" horiz-adv-x="727" d="M-6 1094l33 92l290 -101l-2 308h99l-4 -308l295 101l28 -94l-299 -91l191 -251l-80 -58l-180 254l-183 -254l-76 60l189 249z" />
<glyph unicode="+" horiz-adv-x="1583" d="M193 551v115h542v548h117v-548h541v-115h-541v-551h-117v551h-542z" />
<glyph unicode="," horiz-adv-x="360" d="M90 -201q88 33 88 183v18h-80v233h168v-217q0 -111 -30 -180q-45 -98 -146 -125v88z" />
<glyph unicode="-" horiz-adv-x="731" d="M82 489v121h567v-121h-567z" />
<glyph unicode="." horiz-adv-x="364" d="M98 0v233h168v-233h-168z" />
<glyph unicode="/" horiz-adv-x="899" d="M18 0l736 1391h127l-734 -1391h-129z" />
<glyph unicode="0" d="M84 696q0 319 132 520t388 201q254 0 387 -200.5t133 -520.5q0 -145 -28.5 -271t-88 -228.5t-163 -162t-240.5 -59.5t-240.5 59.5t-163 162t-88 227.5t-28.5 272zM223 700q0 -125 18.5 -229t60.5 -193.5t119 -139.5t183.5 -50t183 50t117.5 139.5t59.5 192.5t18.5 230 q0 268 -97.5 437.5t-281.5 169.5t-282.5 -169.5t-98.5 -437.5z" />
<glyph unicode="1" d="M258 989v109h33q156 0 237 59q100 74 107 238h110v-1395h-124v1071q-84 -84 -297 -84q-43 0 -66 2z" />
<glyph unicode="2" d="M143 999q0 178 122 298t323 120q219 0 336.5 -128t117.5 -324q0 -104 -31.5 -196.5t-97 -173.5t-122 -135t-148.5 -128q-195 -156 -305 -219h711v-113h-889v113q182 121 481 370q133 121 200.5 225.5t67.5 252.5q0 160 -93 254t-232 94q-147 0 -229.5 -90.5t-82.5 -223.5 q0 -147 66 -239l-148 22q-47 100 -47 221z" />
<glyph unicode="3" d="M121 367l123 39q8 -168 101 -244t237 -76q139 0 236 84t97 221q0 180 -149 246q-82 41 -307 41h-105v108h88q215 0 312 48q131 59 131 219q0 109 -80 182.5t-221 73.5q-145 0 -227.5 -79t-88.5 -198l-118 43q0 45 23.5 99.5t70.5 110.5t136 94t204 38q205 0 317.5 -103.5 t112.5 -256.5q0 -133 -73 -213t-191 -99q125 -25 213 -113.5t88 -242.5q0 -182 -129 -298t-342 -116q-203 0 -328 105t-131 287z" />
<glyph unicode="4" d="M104 375v88l652 938h114v-914h254v-112h-254v-375h-125v375h-641zM252 487h493v463q0 199 9 279h-2q-35 -74 -170 -271z" />
<glyph unicode="5" d="M141 317l115 66q18 -119 104 -208t236 -89q154 0 245 104.5t91 282.5q0 156 -86 257t-244 101q-135 0 -215 -73.5t-100 -198.5l-111 25l45 809h754v-113h-639l-31 -481q39 59 122 102t194 43q197 0 322.5 -128t125.5 -343t-125 -356.5t-348 -141.5q-180 0 -301 89 t-154 253z" />
<glyph unicode="6" d="M141 690q0 346 134.5 536.5t386.5 190.5q100 0 178 -31.5t123 -84t69.5 -103.5t32.5 -102l-119 -45q-8 33 -15 55t-29.5 65t-51.5 69t-80 47.5t-115 21.5q-182 0 -275 -152.5t-104 -423.5q51 80 155 133.5t231 53.5q186 0 313 -121t127 -334q0 -201 -125 -345.5 t-336 -144.5q-229 0 -364.5 178.5t-135.5 536.5zM279 586q10 -233 104 -366.5t258 -133.5q139 0 233.5 100.5t94.5 266.5q0 170 -95.5 262t-234.5 92q-123 0 -225 -68.5t-135 -152.5z" />
<glyph unicode="7" horiz-adv-x="923" d="M31 963v430h934v-105q-193 -297 -301 -565q-131 -322 -179 -723h-141q37 371 197 741q115 266 282 539h-676v-317h-116z" />
<glyph unicode="8" d="M121 385q0 147 82 235.5t192 127.5q-102 29 -168.5 111.5t-66.5 199.5q0 158 117.5 258t326.5 100t327 -100t118 -258q0 -115 -68 -199t-168 -115q274 -100 274 -360q0 -172 -122.5 -291t-360.5 -119q-240 0 -361.5 119t-121.5 291zM256 385q0 -129 91 -214t257 -85 t256 85t90 214q0 135 -93 216t-253 81t-254 -81t-94 -216zM291 1053q0 -111 83 -185.5t230.5 -74.5t230.5 74.5t83 185.5q0 117 -85 187.5t-228.5 70.5t-228.5 -70.5t-85 -187.5z" />
<glyph unicode="9" d="M127 928q0 201 125 345t336 144q229 0 364 -178t135 -537q0 -346 -134 -536.5t-386 -190.5q-100 0 -178 32t-123 84t-69.5 103.5t-32.5 102.5l119 45q10 -43 22 -72.5t43 -79t89.5 -77t135.5 -27.5q182 0 275.5 151.5t103.5 421.5q-51 -80 -154.5 -133t-230.5 -53 q-186 0 -313 121t-127 334zM260 942q0 -170 95.5 -262t234.5 -92q123 0 225.5 68.5t134.5 154.5q-10 231 -104 364.5t-258 133.5q-139 0 -233.5 -100.5t-94.5 -266.5z" />
<glyph unicode=":" horiz-adv-x="434" d="M164 0v233h168v-233h-168zM164 741v234h168v-234h-168z" />
<glyph unicode=";" horiz-adv-x="425" d="M156 -201q88 33 88 183v18h-80v233h168v-217q0 -111 -31 -180q-45 -98 -145 -125v88zM164 741v234h168v-234h-168z" />
<glyph unicode="&#x3c;" horiz-adv-x="1583" d="M94 621v135l1387 649v-129l-1254 -588l1254 -592v-129z" />
<glyph unicode="=" horiz-adv-x="1583" d="M102 358v115h1379v-115h-1379zM102 715v116h1379v-116h-1379z" />
<glyph unicode="&#x3e;" horiz-adv-x="1583" d="M102 -33v129l1256 594l-1256 586v129l1387 -649v-135z" />
<glyph unicode="?" horiz-adv-x="897" d="M43 1030q0 168 107.5 273.5t287.5 105.5q184 0 292 -105.5t108 -267.5q0 -119 -48.5 -205t-142.5 -172l-47 -41q-92 -84 -113.5 -122.5t-21.5 -133.5v-59h-121v80q0 90 24.5 145.5t118.5 137.5l76 67q150 137 150 297q0 117 -75 195t-204 78q-127 0 -198.5 -81 t-71.5 -198q0 -86 51 -193l-141 29q-31 92 -31 170zM326 0v213h161v-213h-161z" />
<glyph unicode="@" horiz-adv-x="1767" d="M143 616q0 358 219.5 579.5t561.5 221.5q211 0 369.5 -98t234.5 -251t76 -331q0 -258 -107.5 -402.5t-255.5 -144.5q-135 0 -151 119q-29 -51 -99.5 -87t-159.5 -36q-131 0 -209.5 70t-78.5 195q0 115 74.5 173t218.5 85l213 41q23 4 29.5 10t6.5 28v27q0 88 -46 130 t-156 42q-203 0 -207 -205l-111 27q-2 129 89 203.5t237 74.5q147 0 226 -58t79 -216v-412q0 -57 11.5 -85.5t52.5 -28.5q94 0 165.5 120.5t71.5 313.5q0 250 -156.5 426t-416.5 176q-293 0 -479.5 -195.5t-186.5 -511.5q0 -313 191.5 -506.5t486.5 -193.5q344 0 567 283 l58 -82q-231 -297 -625 -297q-356 0 -574.5 220t-218.5 576zM666 451q0 -78 48 -121t132 -43q104 0 171.5 53t67.5 158v161q-14 -4 -81 -16l-142 -27q-196 -38 -196 -165z" />
<glyph unicode="A" horiz-adv-x="1196" d="M6 0l531 1393h127l526 -1393h-139l-156 420h-600l-152 -420h-137zM338 539h512l-195 512q-37 90 -59 170h-2q-33 -102 -62 -172z" />
<glyph unicode="B" horiz-adv-x="1341" d="M168 0v1393h528q131 0 217 -16.5t156 -73.5q125 -104 125 -267q0 -113 -60.5 -189.5t-175.5 -111.5q133 -31 207 -121t74 -223q0 -229 -188 -330q-111 -61 -326 -61h-557zM299 115h420q199 0 278 59q106 76 107 217q0 137 -107 213q-80 59 -282 60h-416v-549zM299 778 h391q158 0 230 33q61 27 99 83t38 132q0 156 -137 219q-78 33 -230 33h-391v-500z" />
<glyph unicode="C" horiz-adv-x="1282" d="M98 696q0 330 158 525.5t432 195.5q201 0 328 -96t188 -240l-112 -73q-53 131 -153.5 213t-250.5 82q-209 0 -332 -167t-123 -439.5t123 -439.5t332 -167q158 0 259.5 83t148.5 216l114 -61q-154 -352 -522 -353q-279 0 -434.5 194.5t-155.5 526.5z" />
<glyph unicode="D" horiz-adv-x="1355" d="M168 0v1393h360q160 0 254.5 -13.5t173.5 -56.5q150 -80 225.5 -250t75.5 -373q0 -360 -202 -557q-100 -98 -214 -120.5t-356 -22.5h-317zM297 115h223q119 0 175.5 3t126 25.5t120.5 67.5q78 68 128 197t50 286q0 152 -46 281t-132 203q-76 68 -171 84t-298 16h-176 v-1163z" />
<glyph unicode="E" horiz-adv-x="1196" d="M168 0v1393h913v-115h-784v-504h711v-117h-711v-542h825v-115h-954z" />
<glyph unicode="F" horiz-adv-x="1054" d="M168 0v1393h897v-115h-766v-500h692v-114h-692v-664h-131z" />
<glyph unicode="G" horiz-adv-x="1355" d="M98 696q0 330 158 525.5t432 195.5q201 0 328 -96t188 -240l-112 -73q-53 131 -153.5 213t-250.5 82q-209 0 -332 -167t-123 -439.5t123 -439.5t332 -167q221 0 322 143q86 121 86 345v12h-506v115h618v-705h-114v190q-47 -86 -149.5 -150.5t-256.5 -64.5 q-279 0 -434.5 194.5t-155.5 526.5z" />
<glyph unicode="H" horiz-adv-x="1409" d="M168 0v1393h129v-615h815v615h129v-1393h-129v664h-815v-664h-129z" />
<glyph unicode="I" horiz-adv-x="464" d="M168 0v1393h129v-1393h-129z" />
<glyph unicode="J" horiz-adv-x="976" d="M45 330l125 37q2 -141 65.5 -214t202.5 -73q145 0 207 94q47 72 47 236v983h129v-957q0 -217 -59 -317q-88 -150 -328 -150q-379 1 -389 361z" />
<glyph unicode="K" horiz-adv-x="1257" d="M156 0v1393h129v-779l766 779h172l-545 -549l588 -844h-162l-524 752l-295 -297v-455h-129z" />
<glyph unicode="L" horiz-adv-x="1105" d="M168 0v1393h129v-1278h768v-115h-897z" />
<glyph unicode="M" horiz-adv-x="1587" d="M168 0v1393h151l408 -983q70 -168 78 -213h2q14 76 67 211l388 985h157v-1393h-129v842q0 262 13 381h-3q-37 -139 -102 -305l-358 -918h-78l-377 909q-68 162 -100 287h-2q14 -111 14 -317v-879h-129z" />
<glyph unicode="N" horiz-adv-x="1413" d="M168 0v1393h129l709 -1012q98 -137 114 -188h2q-6 74 -6 202v998h129v-1393h-129l-706 1012q-102 145 -119 192h-2q8 -98 8 -205v-999h-129z" />
<glyph unicode="O" horiz-adv-x="1380" d="M98 696q0 330 159 525.5t433.5 195.5t433 -195.5t158.5 -525.5q0 -328 -158.5 -524.5t-433 -196.5t-433.5 196.5t-159 524.5zM236 696.5q0 -272.5 124.5 -440.5t329.5 -168t330 168t125 440.5t-124 440.5t-331 168t-330.5 -168t-123.5 -440.5z" />
<glyph unicode="P" horiz-adv-x="1236" d="M168 0v1393h512q221 0 334 -72q174 -104 174 -317q0 -211 -174 -316q-113 -72 -334 -72h-381v-616h-131zM299 731h352q164 0 254 39q143 68 143.5 236t-143.5 233q-84 39 -254 39h-352v-547z" />
<glyph unicode="Q" horiz-adv-x="1402" d="M98 696q0 330 159 525.5t433.5 195.5t433 -195.5t158.5 -525.5q0 -303 -135 -491l158 -146l-88 -94l-154 144q-150 -133 -373 -134q-274 0 -433 196.5t-159 524.5zM236 696.5q0 -272.5 124.5 -440.5t329.5 -168t330 168t125 440.5t-124 440.5t-331 168t-330.5 -168 t-123.5 -440.5z" />
<glyph unicode="R" horiz-adv-x="1277" d="M168 0v1393h549q221 0 334 -72q174 -104 174 -317q0 -211 -174 -316q-90 -59 -232 -70l443 -618h-166l-430 616h-369v-616h-129zM297 731h391q164 0 254 39q143 68 143 236t-143 233q-84 39 -254 39h-391v-547z" />
<glyph unicode="S" horiz-adv-x="1198" d="M27 293l114 76q45 -119 158 -199t281 -80q176 0 275 79t99 212q0 111 -70.5 169t-226.5 91l-174 39q-88 18 -149.5 40.5t-118.5 62.5t-87 104.5t-30 154.5q0 164 131 269.5t338 105.5q307 0 467 -211l-102 -88q-139 182 -371 182q-143 0 -235.5 -68.5t-92.5 -178.5 q0 -109 67 -163t214 -87l186 -41q197 -43 294.5 -126t97.5 -247q0 -182 -139.5 -298t-374.5 -116q-211 0 -350.5 92.5t-200.5 225.5z" />
<glyph unicode="T" horiz-adv-x="1060" d="M20 1278v115h1020v-115h-446v-1278h-129v1278h-445z" />
<glyph unicode="U" horiz-adv-x="1353" d="M154 573v820h129v-830q0 -199 39 -284q84 -190 356 -191q270 0 354 191q39 86 39 284v830h129v-820q0 -164 -16 -245q-41 -174 -173 -264.5t-333 -90.5t-333 90.5t-173 264.5q-18 77 -18 245z" />
<glyph unicode="V" horiz-adv-x="1144" d="M10 1393h140l366 -1084l55 -153l52 151l378 1086h134l-500 -1393h-146z" />
<glyph unicode="W" horiz-adv-x="1742" d="M31 1393h137l252 -957l24 -89l24 -88l13 -52q12 53 86 305l248 881h107l270 -955l63 -229q18 88 82 305l242 879h133l-395 -1393h-125l-240 836q-49 164 -86 305q-33 -131 -84 -310l-241 -831h-138z" />
<glyph unicode="X" horiz-adv-x="1169" d="M-10 0l520 739v-2l-463 656h160l385 -551l385 551h158l-471 -654l516 -739h-154l-442 629l-441 -629h-153z" />
<glyph unicode="Y" horiz-adv-x="1124" d="M-18 1393h155l420 -691l434 691h152l-529 -822v-571h-129v571z" />
<glyph unicode="Z" horiz-adv-x="1148" d="M41 0v88l872 1190h-825v115h989v-97l-862 -1181h872v-115h-1046z" />
<glyph unicode="[" horiz-adv-x="528" d="M143 -324v1717h344v-99h-223v-1519h223v-99h-344z" />
<glyph unicode="\" horiz-adv-x="903" d="M20 1393h127l736 -1393h-129z" />
<glyph unicode="]" horiz-adv-x="528" d="M41 -225h223v1519h-223v99h344v-1717h-344v99z" />
<glyph unicode="^" horiz-adv-x="1583" d="M369 659l366 734h125l354 -734h-143l-274 592h-2l-283 -592h-143z" />
<glyph unicode="_" horiz-adv-x="1060" d="M-8 -188h1077v-115h-1077v115z" />
<glyph unicode="`" horiz-adv-x="921" d="M260 1393h193l192 -263h-115z" />
<glyph unicode="a" horiz-adv-x="1001" d="M92 272q0 117 68 185q76 74 268 106l242 45q20 4 28.5 7t14.5 14.5t6 32.5v30q0 104 -55.5 154.5t-182.5 50.5q-121 0 -185.5 -60.5t-64.5 -170.5l-112 26q-2 141 101.5 223t266.5 82q166 0 256.5 -67.5t90.5 -239.5v-485q0 -68 14 -97.5t63 -29.5q43 0 74 18v-94 q-41 -23 -104 -22q-74 0 -117 39.5t-41 117.5h-2q-31 -66 -111 -114t-198 -48q-150 0 -235 79t-85 218zM219 274q0 -96 58.5 -146t158.5 -50q119 0 201 73.5t82 192.5v180q-41 -14 -103 -24l-161 -31q-59 -12 -92 -21.5t-71 -31t-55.5 -56.5t-17.5 -86z" />
<glyph unicode="b" horiz-adv-x="1103" d="M162 0v1393h121v-592q37 86 120.5 141t196.5 55q186 0 299 -136t113 -378q0 -240 -112 -374t-296 -134q-117 0 -201 55.5t-120 143.5v-174h-121zM279 485q0 -195 80.5 -300t222.5 -105q145 0 224 106.5t79 301t-82 300t-225 105.5q-139 0 -219 -105.5t-80 -302.5z" />
<glyph unicode="c" horiz-adv-x="968" d="M92 483q0 236 121 375t322 139q281 0 378 -254l-104 -61q-76 213 -274 213q-145 0 -230.5 -109.5t-85.5 -300.5q0 -188 86 -296.5t230 -108.5q190 0 282 186l96 -59q-113 -231 -378 -232q-205 0 -324 137.5t-119 370.5z" />
<glyph unicode="d" horiz-adv-x="1103" d="M92 483q0 240 113.5 377t298.5 137q113 0 196.5 -55t120.5 -141v592h121v-1393h-121v174q-88 -199 -323 -199q-184 0 -295 133t-111 375zM219 487.5q0 -194.5 79 -301t224 -106.5q141 0 222 105.5t81 299.5q0 197 -79.5 302.5t-219.5 105.5q-143 0 -225 -105.5t-82 -300z " />
<glyph unicode="e" horiz-adv-x="1062" d="M92 494q0 223 122 363t318 140q205 0 315.5 -140t110.5 -365v-17h-741v-14q0 -182 93 -280.5t237 -98.5q223 0 327 217l93 -59q-131 -264 -424 -265q-209 0 -330 136.5t-121 382.5zM221 573h606q0 127 -80.5 225.5t-214 98.5t-216.5 -87t-95 -237z" />
<glyph unicode="f" horiz-adv-x="620" d="M16 881v94h222v221q0 109 45 160q53 61 172 61q61 0 125 -18v-111q-66 20 -117 21q-47 0 -74 -23q-31 -29 -31 -106v-205h222v-94h-222v-881h-120v881h-222z" />
<glyph unicode="g" horiz-adv-x="1103" d="M92 491.5q0 233.5 113.5 369.5t298.5 136q113 0 194.5 -50t122.5 -132v160h121v-936q0 -229 -101.5 -337t-318.5 -108q-375 0 -393 322l117 33q23 -252 276 -252q96 0 158.5 28.5t91.5 87t39 119t10 150.5v100q-86 -193 -319 -192q-188 0 -299 134t-111 367.5zM219 495.5 q0 -190.5 79 -294t224 -103.5q141 0 222 103.5t81 292.5q0 193 -79.5 296t-219.5 103q-143 0 -225 -103.5t-82 -294z" />
<glyph unicode="h" horiz-adv-x="1064" d="M158 0v1393h121v-580q31 78 111.5 131t197.5 53q156 0 241 -94q49 -55 67.5 -125.5t18.5 -226.5v-551h-120v524q0 233 -62 299q-57 63 -174 64q-125 0 -199 -80q-82 -84 -81 -227v-580h-121z" />
<glyph unicode="i" horiz-adv-x="436" d="M158 0v975h121v-975h-121zM158 1192v201h121v-201h-121z" />
<glyph unicode="j" horiz-adv-x="428" d="M-92 -248q84 -55 153.5 -55t85.5 53q10 31 11 326v899h121v-993q0 -170 -8.5 -231.5t-39.5 -102.5q-47 -61 -157 -62q-90 0 -166 41v125zM158 1192v201h121v-201h-121z" />
<glyph unicode="k" horiz-adv-x="1019" d="M158 0v1393h121v-928l546 510h162l-393 -361l418 -614h-150l-358 532l-225 -206v-326h-121z" />
<glyph unicode="l" horiz-adv-x="436" d="M158 0v1393h121v-1393h-121z" />
<glyph unicode="m" horiz-adv-x="1566" d="M158 0v975h121v-164q31 88 110.5 137t177.5 49q96 0 171 -51t87 -151q35 92 117 147t191 55q119 0 194 -67q53 -49 71.5 -122t18.5 -218v-590h-121v528q0 92 -2 134.5t-12 88.5t-31 74q-47 61 -143 62q-123 0 -191.5 -97.5t-68.5 -269.5v-520h-121v528q0 92 -2 134.5 t-12.5 88.5t-30.5 74q-47 61 -143 62q-123 0 -191.5 -96.5t-68.5 -270.5v-520h-121z" />
<glyph unicode="n" horiz-adv-x="1064" d="M158 0v975h121v-162q31 78 111.5 131t197.5 53q156 0 241 -94q49 -55 67.5 -125.5t18.5 -226.5v-551h-120v524q0 233 -62 299q-57 63 -174 64q-125 0 -199 -80q-82 -84 -81 -227v-580h-121z" />
<glyph unicode="o" horiz-adv-x="1069" d="M92 483q0 233 119 373.5t323.5 140.5t323.5 -140t119 -374q0 -231 -119 -369.5t-323.5 -138.5t-323.5 138.5t-119 369.5zM219 485q0 -188 86 -296.5t229.5 -108.5t229.5 109.5t86 295.5q0 190 -85 300t-230.5 110t-230.5 -110t-85 -300z" />
<glyph unicode="p" horiz-adv-x="1103" d="M162 -389v1364h121v-174q37 86 120.5 141t196.5 55q186 0 299 -136t113 -378q0 -240 -112 -374t-296 -134q-117 0 -201 55.5t-120 143.5v-563h-121zM279 485q0 -195 80.5 -300t222.5 -105q145 0 224 106.5t79 301t-82 300t-225 105.5q-139 0 -219 -105.5t-80 -302.5z" />
<glyph unicode="q" horiz-adv-x="1103" d="M92 483.5q0 237.5 113.5 375.5t298.5 138q113 0 196.5 -55t120.5 -141v174h121v-1364h-121v563q-88 -199 -323 -199q-182 0 -294 135.5t-112 373zM219 487.5q0 -194.5 79 -301t224 -106.5q141 0 222 105.5t81 299.5q0 197 -79.5 302.5t-219.5 105.5q-143 0 -225 -105.5 t-82 -300z" />
<glyph unicode="r" horiz-adv-x="651" d="M158 0v975h121v-189q27 90 107.5 151.5t186.5 61.5q33 0 66 -6v-121q-33 6 -68 7q-129 0 -210.5 -91.5t-81.5 -236.5v-551h-121z" />
<glyph unicode="s" horiz-adv-x="903" d="M51 178l99 70q104 -168 317 -168q119 2 180.5 50t61.5 130q0 74 -50.5 107.5t-154.5 60.5l-135 33q-141 33 -208 90t-67 172q0 127 97.5 200.5t242.5 73.5q221 0 354 -159l-92 -78q-98 135 -264 135q-94 0 -154.5 -40t-60.5 -118q0 -74 46 -109.5t149 -58.5l129 -30 q141 -31 215.5 -90.5t74.5 -180.5q0 -139 -104 -215t-274 -78q-137 0 -244 59.5t-158 143.5z" />
<glyph unicode="t" horiz-adv-x="600" d="M12 881v94h197v364l121 27v-391h233v-94h-233v-660q0 -82 18 -106q20 -27 76 -27q78 0 139 33v-109q-70 -33 -176 -32q-98 0 -139 47q-39 45 -39 149v705h-197z" />
<glyph unicode="u" horiz-adv-x="1062" d="M152 365v610h120v-557q0 -195 62 -266q57 -63 174 -64q139 0 207.5 92t68.5 215v580h121v-975h-121v160q-31 -78 -109.5 -131.5t-195.5 -53.5q-156 0 -241 95q-86 96 -86 295z" />
<glyph unicode="v" horiz-adv-x="854" d="M12 975h127l219 -637l56 -164h2q16 53 61 170l244 631h121l-381 -975h-107z" />
<glyph unicode="w" horiz-adv-x="1335" d="M16 975h129l174 -580l64 -217h2q47 172 61 219l177 578h110l178 -580l62 -219h2l63 225l160 574h121l-291 -975h-113l-188 641q-23 72 -49 180h-2q-10 -41 -51 -182l-189 -639h-114z" />
<glyph unicode="x" horiz-adv-x="907" d="M25 0l358 506l-330 469h148l260 -381l266 381h135l-338 -471l359 -504h-146l-286 416l-295 -416h-131z" />
<glyph unicode="y" horiz-adv-x="874" d="M8 975h131l232 -649l55 -162h2l61 168l248 643h125l-436 -1108q-51 -133 -82 -184q-59 -96 -178 -97q-72 0 -127 33v121q61 -41 123 -41q59 0 88 43q23 31 53 115l53 143z" />
<glyph unicode="z" horiz-adv-x="806" d="M53 0v82l529 792h-502v101h657v-80l-530 -793h559v-102h-713z" />
<glyph unicode="{" horiz-adv-x="458" d="M20 504v80q92 23 116 78t24 167v332q0 137 55 184.5t182 47.5h41v-88q-100 0 -127.5 -40t-27.5 -169v-273q0 -135 -34 -196.5t-128 -81.5v-2q94 -20 128 -82t34 -197v-291q0 -129 27.5 -169t127.5 -40v-88h-41q-127 0 -182 47.5t-55 184.5v350q0 57 -3 88t-15.5 68 t-42.5 57.5t-79 32.5z" />
<glyph unicode="|" horiz-adv-x="448" d="M164 -324v1717h121v-1717h-121z" />
<glyph unicode="}" horiz-adv-x="458" d="M20 -236q100 0 128 40t28 169v291q0 135 34 196.5t128 82.5v2q-94 20 -128 81.5t-34 196.5v273q0 129 -27.5 169t-128.5 40v88h41q127 0 182.5 -47.5t55.5 -184.5v-332q0 -57 3 -87.5t15.5 -67.5t42 -57.5t78.5 -32.5v-80q-92 -23 -115.5 -78t-23.5 -168v-350 q0 -137 -55.5 -184.5t-182.5 -47.5h-41v88z" />
<glyph unicode="~" horiz-adv-x="1583" d="M324 563q106 166 249 166q74 0 201 -57l96 -45q94 -43 136 -43q94 0 198 129l60 -101q-127 -158 -258 -157q-76 0 -201 61l-84 41q-86 39 -148 39q-55 0 -87.5 -25.5t-98.5 -103.5z" />
<glyph unicode="&#xa1;" horiz-adv-x="479" d="M162 739v234h155v-234h-155zM174 244l19 368h92l20 -368v-670h-131v670z" />
<glyph unicode="&#xa2;" d="M174 483q0 217 104.5 354.5t282.5 155.5v195h107v-195q242 -20 327 -250l-104 -61q-68 184 -223 209v-809q152 20 231 184l96 -59q-100 -205 -327 -230v-208h-107v211q-180 18 -283.5 152t-103.5 351zM301 485q0 -170 69.5 -275.5t190.5 -125.5v805q-121 -20 -190.5 -127 t-69.5 -277z" />
<glyph unicode="&#xa3;" d="M90 637v117h209q-8 143 -8 247q0 186 95 300t286 114q184 0 277 -95t95 -247l-118 -39q0 119 -60.5 195t-193.5 76q-252 0 -252 -326q0 -127 10 -225h311v-117h-305q0 -16 3 -56t4 -75t1 -57q0 -131 -26.5 -212t-100.5 -124v-2q86 4 199 4h500v-115h-920v106 q127 10 174 79t47 266q0 68 -10 186h-217z" />
<glyph unicode="&#xa4;" horiz-adv-x="1079" d="M92 231l127 127q-72 96 -72 234q0 133 74 235l-129 129l86 86l127 -129q102 74 235.5 74t233.5 -74l127 127l86 -86l-127 -127q76 -104 76 -235q0 -133 -74 -236l125 -123l-86 -86l-125 125q-102 -74 -235 -73q-135 0 -236 73l-127 -127zM264 592q0 -117 80 -199t197 -82 q119 0 198.5 82t79.5 199q0 119 -78.5 200.5t-199.5 81.5q-119 0 -198 -80.5t-79 -201.5z" />
<glyph unicode="&#xa5;" d="M76 1391h139l399 -691l379 691h142l-398 -695h332v-114h-397v-168h397v-113h-397v-301h-129v301h-404v113h404v168h-404v114h334z" />
<glyph unicode="&#xa6;" horiz-adv-x="448" d="M164 -324v662h121v-662h-121zM164 731v662h121v-662h-121z" />
<glyph unicode="&#xa7;" horiz-adv-x="1017" d="M72 41l98 68q47 -86 129 -136.5t182 -50.5q121 0 183.5 50.5t62.5 127.5q0 76 -64.5 123t-177.5 92l-104 41q-127 49 -199.5 116t-72.5 185q0 184 194 267q-154 74 -153 229q0 123 96 193.5t241 70.5q115 0 209.5 -48t147.5 -124l-96 -71q-96 141 -263 141 q-92 0 -153.5 -41t-61.5 -113q0 -76 56.5 -115.5t173.5 -82.5q16 -4 24 -9l97 -36q121 -45 192.5 -112t71.5 -175q0 -186 -187 -287q150 -84 150 -229q0 -139 -102.5 -218t-268.5 -79q-141 0 -249.5 64.5t-155.5 158.5zM238 674q0 -78 53 -125t164 -92l139 -56 q80 33 124 87.5t44 121.5q0 147 -240 224l-110 38q-84 -25 -129 -77.5t-45 -120.5z" />
<glyph unicode="&#xa8;" horiz-adv-x="921" d="M199 1159v187h127v-187h-127zM582 1159v187h127v-187h-127z" />
<glyph unicode="&#xa9;" horiz-adv-x="1619" d="M113 717q0 297 200.5 498.5t495.5 201.5q297 0 497.5 -201.5t200.5 -498.5q0 -295 -200.5 -497t-497.5 -202q-295 0 -495.5 202t-200.5 497zM231 717q0 -244 167 -417t411 -173q246 0 414 172t168 418q0 248 -168 422t-414 174q-244 0 -411 -174t-167 -422zM440 711 q0 199 99.5 317.5t269.5 118.5q238 0 328 -223l-101 -60q-55 180 -227 180q-113 0 -182.5 -89t-69.5 -242q0 -152 69.5 -238t182.5 -86q170 0 233 154l95 -60q-102 -203 -328 -202q-170 0 -269.5 116.5t-99.5 313.5z" />
<glyph unicode="&#xaa;" horiz-adv-x="643" d="M35 956q0 86 52 126t163 61l160 28q23 2 22 25v16q0 123 -139 123q-156 0 -156 -149l-86 20q-2 98 66.5 153.5t181.5 55.5q104 0 163.5 -45t59.5 -160v-301q0 -25 2 -37t11.5 -22t27.5 -10q27 0 55 14v-74q-33 -18 -73 -18q-90 0 -109 84q-61 -88 -186 -88 q-96 0 -155.5 52t-59.5 146zM133 956q0 -57 35 -87.5t92 -30.5q72 0 122 45t50 114v105q-20 -6 -158 -33q-43 -8 -69.5 -16.5t-49 -33t-22.5 -63.5z" />
<glyph unicode="&#xab;" horiz-adv-x="772" d="M90 516v150l275 280v-151l-209 -201l209 -205v-160zM416 516v150l274 280v-151l-209 -201l209 -205v-160z" />
<glyph unicode="&#xac;" horiz-adv-x="1583" d="M356 821v109h811v-477h-120v368h-691z" />
<glyph unicode="&#xad;" horiz-adv-x="731" d="M82 489v121h567v-121h-567z" />
<glyph unicode="&#xae;" horiz-adv-x="1619" d="M113 717q0 297 200.5 498.5t495.5 201.5q297 0 497.5 -201.5t200.5 -498.5q0 -295 -200.5 -497t-497.5 -202q-295 0 -495.5 202t-200.5 497zM231 717q0 -244 167 -417t411 -173q246 0 414 172t168 418q0 248 -168 422t-414 174q-244 0 -411 -174t-167 -422zM528 307v815 h334q135 0 211 -53q88 -63 88 -180q0 -98 -64.5 -161.5t-154.5 -76.5l246 -344h-133l-248 342h-174v-342h-105zM633 750h203q98 0 141 20q70 31 70 119q0 84 -70 115q-43 18 -141 18h-203v-272z" />
<glyph unicode="&#xaf;" horiz-adv-x="921" d="M184 1186v108h555v-108h-555z" />
<glyph unicode="&#xb0;" horiz-adv-x="757" d="M72 1110q0 127 90 217t217 90t217 -90t90 -217t-90 -217t-217 -90t-217 90t-90 217zM190 1110q0 -84 53.5 -139.5t135.5 -55.5t135 55.5t53 139.5t-53 139.5t-135 55.5t-135.5 -55.5t-53.5 -139.5z" />
<glyph unicode="&#xb1;" horiz-adv-x="1583" d="M78 0v117h1200v-117h-1200zM78 662v114h543v438h116v-438h541v-114h-541v-443h-116v443h-543z" />
<glyph unicode="&#xb2;" horiz-adv-x="737" d="M84 1151q0 109 76 185.5t205 76.5q137 0 210.5 -78t73.5 -198q0 -84 -39 -160t-81 -118t-117 -103q-61 -49 -156 -111h393v-96h-553v88q115 74 244 182q109 90 155 156.5t46 155t-51.5 139.5t-129.5 51q-84 0 -128 -49t-44 -123q0 -76 45 -152l-122 27q-27 59 -27 127z " />
<glyph unicode="&#xb3;" horiz-adv-x="737" d="M72 784l104 35q12 -193 182 -192q84 0 134.5 45t50.5 125q0 96 -78 135q-43 20 -176 20h-58v90h48q106 0 161 21q84 33 84 127q0 61 -41 97t-121 36q-84 0 -129 -49t-49 -123l-94 35q0 80 74 152.5t198 72.5q131 0 199 -60.5t68 -154.5q0 -141 -127 -192 q63 -20 106 -73.5t43 -135.5q0 -117 -81 -187.5t-214 -70.5q-123 0 -201.5 66t-82.5 181z" />
<glyph unicode="&#xb4;" horiz-adv-x="921" d="M256 1130l193 263h192l-270 -263h-115z" />
<glyph unicode="&#xb5;" horiz-adv-x="1069" d="M158 -387v1362h121v-557q0 -195 61 -266q57 -63 174 -64q139 0 208 92t69 215v580h120v-975h-120v160q-31 -78 -109 -131.5t-193 -53.5q-66 0 -124 28t-86 73v-463h-121z" />
<glyph unicode="&#xb6;" horiz-adv-x="1138" d="M66 1024q0 184 124 285q106 84 320 84h600v-90h-162v-1565h-104v1565h-213v-1565h-105v917h-16q-213 0 -320 84q-124 101 -124 285z" />
<glyph unicode="&#xb7;" horiz-adv-x="344" d="M92 539v233h160v-233h-160z" />
<glyph unicode="&#xb8;" horiz-adv-x="921" d="M324 -129l84 119h77l-59 -82q10 2 33 2q72 0 117 -36t45 -103q0 -82 -57.5 -124t-141.5 -42q-47 0 -92 16l18 55q31 -10 68 -10q47 0 76.5 23.5t29.5 64.5q0 43 -29.5 64.5t-74.5 21.5q-41 0 -70 -14z" />
<glyph unicode="&#xb9;" horiz-adv-x="737" d="M160 1135v90h35q92 0 129 30q49 43 53 138h94v-854h-102v626q-47 -33 -150 -32q-43 0 -59 2z" />
<glyph unicode="&#xba;" horiz-adv-x="731" d="M78 1083.5q0 149.5 80 240.5t209 91q127 0 205.5 -91t78.5 -240.5t-77.5 -237.5t-206.5 -88q-131 0 -210 88t-79 237.5zM180 1083q0 -113 50.5 -175t136.5 -62q84 0 134 62.5t50 174.5q0 117 -49 181.5t-135 64.5t-136.5 -65.5t-50.5 -180.5z" />
<glyph unicode="&#xbb;" horiz-adv-x="772" d="M82 229v160l207 205l-207 201v151l272 -280v-150zM408 229v160l206 205l-206 201v151l272 -280v-150z" />
<glyph unicode="&#xbc;" horiz-adv-x="1521" d="M78 1135v90h35q92 0 129 30q49 43 53 138h94v-854h-102v626q-47 -33 -150 -32q-43 0 -59 2zM287 0l731 1393h115l-727 -1393h-119zM766 219v70l399 565h99v-539h155v-96h-155v-219h-101v219h-397zM895 315h268v387h-4q-37 -66 -82 -127l-73 -106q-12 -18 -109 -150v-4z " />
<glyph unicode="&#xbd;" horiz-adv-x="1669" d="M78 1135v90h35q92 0 129 30q49 43 53 138h94v-854h-102v626q-47 -33 -150 -32q-43 0 -59 2zM287 0l731 1393h115l-727 -1393h-119zM967 602q0 109 75.5 185.5t204.5 76.5q137 0 211 -77.5t74 -198.5q0 -84 -39 -160t-81 -118t-118 -103q-61 -49 -155 -111h393v-96h-553 v88q115 74 244 182q109 90 154.5 157t45.5 155t-51 139t-129 51q-84 0 -128 -49t-44 -123q0 -76 45 -151l-123 26q-26 59 -26 127z" />
<glyph unicode="&#xbe;" horiz-adv-x="1712" d="M82 784l104 35q12 -193 183 -192q84 0 134 45t50 125q0 96 -78 135q-43 20 -176 20h-57v90h47q106 0 162 21q84 33 84 127q0 61 -41 97t-121 36q-84 0 -129 -49t-49 -123l-95 35q0 80 74 152.5t199 72.5q131 0 198.5 -60.5t67.5 -154.5q0 -141 -127 -192 q63 -20 106.5 -73.5t43.5 -135.5q0 -117 -81 -187.5t-214 -70.5q-123 0 -202 66t-83 181zM477 0l729 1393h115l-725 -1393h-119zM956 219v70l400 565h98v-539h156v-96h-156v-219h-100v219h-398zM1085 315h269v387h-4q-37 -66 -82 -127l-74 -106q-12 -18 -109 -150v-4z" />
<glyph unicode="&#xbf;" horiz-adv-x="884" d="M25 -63q0 119 48 204.5t142 171.5l47 41q92 84 113.5 123t21.5 133v60h121v-80q0 -90 -24.5 -145.5t-118.5 -137.5l-76 -67q-150 -137 -149 -297q0 -117 74.5 -195t203.5 -78q127 0 198.5 81t71.5 198q0 86 -51 192l141 -28q31 -92 31 -170q0 -168 -107.5 -273.5 t-287.5 -105.5q-184 0 -291.5 105.5t-107.5 267.5zM375 760v213h162v-213h-162z" />
<glyph unicode="&#xc0;" horiz-adv-x="1196" d="M6 0l531 1393h127l526 -1393h-139l-156 420h-600l-152 -420h-137zM307 1821h197l209 -279h-115zM338 539h512l-195 512q-37 90 -59 170h-2q-33 -102 -62 -172z" />
<glyph unicode="&#xc1;" horiz-adv-x="1196" d="M6 0l531 1393h127l526 -1393h-139l-156 420h-600l-152 -420h-137zM338 539h512l-195 512q-37 90 -59 170h-2q-33 -102 -62 -172zM541 1542l209 279h196l-291 -279h-114z" />
<glyph unicode="&#xc2;" horiz-adv-x="1196" d="M6 0l531 1393h127l526 -1393h-139l-156 420h-600l-152 -420h-137zM307 1542l244 279h86l244 -279h-125l-162 166l-162 -166h-125zM338 539h512l-195 512q-37 90 -59 170h-2q-33 -102 -62 -172z" />
<glyph unicode="&#xc3;" horiz-adv-x="1196" d="M6 0l531 1393h127l526 -1393h-139l-156 420h-600l-152 -420h-137zM303 1593q74 184 197 185q47 0 137 -45q94 -47 127 -47q70 0 100 92l84 -21q-20 -43 -32.5 -65.5t-37 -55t-55 -48t-67.5 -15.5q-55 0 -158 53q-90 45 -113 45q-68 0 -96 -96zM338 539h512l-195 512 q-37 90 -59 170h-2q-33 -102 -62 -172z" />
<glyph unicode="&#xc4;" horiz-adv-x="1196" d="M6 0l531 1393h127l526 -1393h-139l-156 420h-600l-152 -420h-137zM338 539h512l-195 512q-37 90 -59 170h-2q-33 -102 -62 -172zM354 1573v186h127v-186h-127zM737 1573v186h127v-186h-127z" />
<glyph unicode="&#xc5;" horiz-adv-x="1196" d="M6 0l531 1393h127l526 -1393h-139l-156 420h-600l-152 -420h-137zM338 539h512l-195 512q-37 90 -59 170h-2q-33 -102 -62 -172zM426 1677.5q0 69.5 49 117.5t119 48t119 -48t49 -117.5t-49 -118t-119 -48.5t-119 48.5t-49 118zM504 1677q0 -37 26.5 -62.5t61.5 -25.5 t61.5 25.5t26.5 62.5t-26.5 62.5t-61.5 25.5t-61.5 -25.5t-26.5 -62.5z" />
<glyph unicode="&#xc6;" horiz-adv-x="1853" d="M-51 0l872 1393h918v-115h-746v-502h674v-114h-674v-547h787v-115h-918v418h-508l-260 -418h-145zM430 535h432v450q0 84 2 154.5t4 97.5v27h-2q-57 -127 -157 -283z" />
<glyph unicode="&#xc7;" horiz-adv-x="1282" d="M98 696q0 330 158 525.5t432 195.5q201 0 328 -96t188 -240l-112 -73q-53 131 -153.5 213t-250.5 82q-209 0 -332 -167t-123 -439.5t123 -439.5t332 -167q158 0 259.5 83t148.5 216l114 -61q-150 -338 -491 -353l-49 -67q10 2 32 2q72 0 117 -36t45 -103q0 -82 -57 -124 t-141 -42q-47 0 -93 16l19 55q31 -10 67 -10q47 0 77 23.5t30 64.5q0 43 -29.5 64.5t-74.5 21.5q-41 0 -70 -14l-25 45l76 106q-258 16 -401.5 208t-143.5 511z" />
<glyph unicode="&#xc8;" horiz-adv-x="1196" d="M168 0v1393h913v-115h-784v-504h711v-117h-711v-542h825v-115h-954zM338 1821h197l208 -279h-114z" />
<glyph unicode="&#xc9;" horiz-adv-x="1196" d="M168 0v1393h913v-115h-784v-504h711v-117h-711v-542h825v-115h-954zM514 1542l209 279h197l-291 -279h-115z" />
<glyph unicode="&#xca;" horiz-adv-x="1196" d="M168 0v1393h913v-115h-784v-504h711v-117h-711v-542h825v-115h-954zM328 1542l243 279h86l244 -279h-125l-162 166l-161 -166h-125z" />
<glyph unicode="&#xcb;" horiz-adv-x="1196" d="M168 0v1393h913v-115h-784v-504h711v-117h-711v-542h825v-115h-954zM365 1573v186h127v-186h-127zM748 1573v186h126v-186h-126z" />
<glyph unicode="&#xcc;" horiz-adv-x="464" d="M-80 1821h197l209 -279h-115zM168 0v1393h129v-1393h-129z" />
<glyph unicode="&#xcd;" horiz-adv-x="464" d="M152 1542l208 279h197l-291 -279h-114zM168 0v1393h129v-1393h-129z" />
<glyph unicode="&#xce;" horiz-adv-x="464" d="M-53 1542l243 279h86l244 -279h-125l-162 166l-161 -166h-125zM168 0v1393h129v-1393h-129z" />
<glyph unicode="&#xcf;" horiz-adv-x="464" d="M-23 1573v186h127v-186h-127zM168 0v1393h129v-1393h-129zM360 1573v186h127v-186h-127z" />
<glyph unicode="&#xd0;" horiz-adv-x="1355" d="M-20 686v119h188v588h360q160 0 254.5 -13.5t173.5 -56.5q150 -80 225.5 -250t75.5 -373q0 -360 -202 -557q-100 -98 -214 -120.5t-356 -22.5h-317v686h-188zM297 115h223q119 0 175.5 3t126 25.5t120.5 67.5q78 68 128 197t50 286q0 152 -46 281t-132 203 q-76 68 -171 84t-298 16h-176v-473h440v-119h-440v-571z" />
<glyph unicode="&#xd1;" horiz-adv-x="1413" d="M168 0v1393h129l709 -1012q98 -137 114 -188h2q-6 74 -6 202v998h129v-1393h-129l-706 1012q-102 145 -119 192h-2q8 -98 8 -205v-999h-129zM399 1593q74 184 197 185q47 0 137 -45q94 -47 127 -47q70 0 101 92l83 -21q-20 -43 -32.5 -65.5t-37 -55t-55 -48t-67.5 -15.5 q-55 0 -158 53q-90 45 -112 45q-68 0 -97 -96z" />
<glyph unicode="&#xd2;" horiz-adv-x="1380" d="M98 696q0 330 159 525.5t433.5 195.5t433 -195.5t158.5 -525.5q0 -328 -158.5 -524.5t-433 -196.5t-433.5 196.5t-159 524.5zM236 696.5q0 -272.5 124.5 -440.5t329.5 -168t330 168t125 440.5t-124 440.5t-331 168t-330.5 -168t-123.5 -440.5zM428 1821h197l209 -279 h-115z" />
<glyph unicode="&#xd3;" horiz-adv-x="1380" d="M98 696q0 330 159 525.5t433.5 195.5t433 -195.5t158.5 -525.5q0 -328 -158.5 -524.5t-433 -196.5t-433.5 196.5t-159 524.5zM236 696.5q0 -272.5 124.5 -440.5t329.5 -168t330 168t125 440.5t-124 440.5t-331 168t-330.5 -168t-123.5 -440.5zM575 1542l209 279h197 l-291 -279h-115z" />
<glyph unicode="&#xd4;" horiz-adv-x="1380" d="M98 696q0 330 159 525.5t433.5 195.5t433 -195.5t158.5 -525.5q0 -328 -158.5 -524.5t-433 -196.5t-433.5 196.5t-159 524.5zM236 696.5q0 -272.5 124.5 -440.5t329.5 -168t330 168t125 440.5t-124 440.5t-331 168t-330.5 -168t-123.5 -440.5zM403 1542l244 279h86 l244 -279h-125l-162 166l-162 -166h-125z" />
<glyph unicode="&#xd5;" horiz-adv-x="1347" d="M98 676q0 322 154 511t422 189t421.5 -189.5t153.5 -510.5q0 -317 -153.5 -509t-421.5 -192q-266 0 -421 192t-155 509zM233 676q0 -264 121 -427t319.5 -163t319.5 163t121 427t-120 427t-320.5 163t-320.5 -163t-120 -427zM346 1593q74 184 197 185q47 0 137 -45 q94 -47 127 -47q70 0 100 92l84 -21q-20 -43 -32.5 -65.5t-37 -55t-55 -48t-67.5 -15.5q-55 0 -158 53q-90 45 -113 45q-68 0 -96 -96z" />
<glyph unicode="&#xd6;" horiz-adv-x="1380" d="M98 696q0 330 159 525.5t433.5 195.5t433 -195.5t158.5 -525.5q0 -328 -158.5 -524.5t-433 -196.5t-433.5 196.5t-159 524.5zM236 696.5q0 -272.5 124.5 -440.5t329.5 -168t330 168t125 440.5t-124 440.5t-331 168t-330.5 -168t-123.5 -440.5zM442 1573v186h127v-186 h-127zM825 1573v186h127v-186h-127z" />
<glyph unicode="&#xd7;" horiz-adv-x="1583" d="M176 135l467 467l-467 467l82 82l467 -467l467 467l82 -82l-467 -467l467 -467l-82 -82l-467 467l-467 -467z" />
<glyph unicode="&#xd8;" horiz-adv-x="1380" d="M45 53l166 185q-113 182 -113 458q0 330 159 525.5t433 195.5q262 0 422 -182l154 172l88 -80l-172 -192q100 -178 100 -439q0 -328 -158.5 -524.5t-433.5 -196.5q-248 0 -403 162l-148 -164zM236 696q0 -199 71 -352l713 791q-123 168 -330 168t-330.5 -167.5 t-123.5 -439.5zM375 238q121 -147 315 -148q205 0 330 168t125 438q0 184 -62 330z" />
<glyph unicode="&#xd9;" horiz-adv-x="1353" d="M154 573q0 -168 18 -245q41 -174 173 -264.5t333 -90.5t333 90.5t173 264.5q16 82 16 245v818h-129v-828q0 -199 -39 -284q-84 -190 -354 -191q-272 0 -356 191q-39 86 -39 284v828h-129v-818zM434 1821h197l209 -279h-115z" />
<glyph unicode="&#xda;" horiz-adv-x="1353" d="M154 573v818h129v-828q0 -199 39 -284q84 -190 356 -191q270 0 354 191q39 86 39 284v828h129v-818q0 -164 -16 -245q-41 -174 -173 -264.5t-333 -90.5t-333 90.5t-173 264.5q-18 77 -18 245zM543 1542l209 279h196l-291 -279h-114z" />
<glyph unicode="&#xdb;" horiz-adv-x="1353" d="M154 573q0 -168 18 -245q41 -174 173 -264.5t333 -90.5t333 90.5t173 264.5q16 82 16 245v818h-129v-828q0 -199 -39 -284q-84 -190 -354 -191q-272 0 -356 191q-39 86 -39 284v828h-129v-818zM399 1542l244 279h86l244 -279h-125l-162 166l-162 -166h-125z" />
<glyph unicode="&#xdc;" horiz-adv-x="1353" d="M154 573v818h129v-828q0 -199 39 -284q84 -190 356 -191q270 0 354 191q39 86 39 284v828h129v-818q0 -164 -16 -245q-41 -174 -173 -264.5t-333 -90.5t-333 90.5t-173 264.5q-18 77 -18 245zM424 1573v186h127v-186h-127zM807 1573v186h127v-186h-127z" />
<glyph unicode="&#xdd;" horiz-adv-x="1124" d="M-16 1391h155l418 -689l432 689h152l-527 -820v-571h-129v571zM449 1542l208 279h197l-291 -279h-114z" />
<glyph unicode="&#xde;" horiz-adv-x="1222" d="M168 0v1393h129v-238h371q215 0 325 -70q168 -102 168 -309q0 -205 -168 -307q-111 -70 -325 -70h-371v-399h-129zM297 514h342q164 0 248 37q139 66 139 227q0 160 -139 226q-84 37 -248 36h-342v-526z" />
<glyph unicode="&#xdf;" horiz-adv-x="976" d="M147 0v938q0 231 48 319q76 160 301 160q164 0 243.5 -87t79.5 -228q0 -219 -168 -271q47 -10 81 -29.5t70 -61.5t54 -121.5t18 -194.5q0 -438 -292 -438q-78 0 -129.5 25.5t-76 74.5t-32.5 100.5t-8 124.5v86h98v-80q0 -111 26.5 -170t114.5 -59q98 0 137.5 78t39.5 260 q0 115 -17.5 183.5t-68.5 109.5q-59 51 -232 51h-98v100h84q129 0 174 25q104 49 104 203q0 94 -51 155.5t-153 61.5q-152 0 -201 -117q-25 -80 -25 -254v-944h-121z" />
<glyph unicode="&#xe0;" horiz-adv-x="1001" d="M92 272q0 117 68 185q76 74 268 106l242 45q20 4 28.5 7t14.5 14.5t6 32.5v30q0 104 -55.5 154.5t-182.5 50.5q-121 0 -185.5 -60.5t-64.5 -170.5l-112 26q-2 141 101.5 223t266.5 82q166 0 256.5 -67.5t90.5 -239.5v-485q0 -68 14 -97.5t63 -29.5q43 0 74 18v-94 q-41 -23 -104 -22q-74 0 -117 39.5t-41 117.5h-2q-31 -66 -111 -114t-198 -48q-150 0 -235 79t-85 218zM219 274q0 -96 58.5 -146t158.5 -50q119 0 201 73.5t82 192.5v180q-41 -14 -103 -24l-161 -31q-59 -12 -92 -21.5t-71 -31t-55.5 -56.5t-17.5 -86zM233 1393h193 l192 -263h-114z" />
<glyph unicode="&#xe1;" horiz-adv-x="1001" d="M92 272q0 117 68 185q76 74 268 106l242 45q20 4 28.5 7t14.5 14.5t6 32.5v30q0 104 -55.5 154.5t-182.5 50.5q-121 0 -185.5 -60.5t-64.5 -170.5l-112 26q-2 141 101.5 223t266.5 82q166 0 256.5 -67.5t90.5 -239.5v-485q0 -68 14 -97.5t63 -29.5q43 0 74 18v-94 q-41 -23 -104 -22q-74 0 -117 39.5t-41 117.5h-2q-31 -66 -111 -114t-198 -48q-150 0 -235 79t-85 218zM219 274q0 -96 58.5 -146t158.5 -50q119 0 201 73.5t82 192.5v180q-41 -14 -103 -24l-161 -31q-59 -12 -92 -21.5t-71 -31t-55.5 -56.5t-17.5 -86zM381 1130l192 263 h193l-270 -263h-115z" />
<glyph unicode="&#xe2;" horiz-adv-x="1001" d="M92 272q0 117 68 185q76 74 268 106l242 45q20 4 28.5 7t14.5 14.5t6 32.5v30q0 104 -55.5 154.5t-182.5 50.5q-121 0 -185.5 -60.5t-64.5 -170.5l-112 26q-2 141 101.5 223t266.5 82q166 0 256.5 -67.5t90.5 -239.5v-485q0 -68 14 -97.5t63 -29.5q43 0 74 18v-94 q-41 -23 -104 -22q-74 0 -117 39.5t-41 117.5h-2q-31 -66 -111 -114t-198 -48q-150 0 -235 79t-85 218zM211 1130l231 263h86l232 -263h-129l-144 154l-147 -154h-129zM219 274q0 -96 58.5 -146t158.5 -50q119 0 201 73.5t82 192.5v180q-41 -14 -103 -24l-161 -31 q-59 -12 -92 -21.5t-71 -31t-55.5 -56.5t-17.5 -86z" />
<glyph unicode="&#xe3;" horiz-adv-x="1001" d="M92 272q0 117 68 185q76 74 268 106l242 45q20 4 28.5 7t14.5 14.5t6 32.5v30q0 104 -55.5 154.5t-182.5 50.5q-121 0 -185.5 -60.5t-64.5 -170.5l-112 26q-2 141 101.5 223t266.5 82q166 0 256.5 -67.5t90.5 -239.5v-485q0 -68 14 -97.5t63 -29.5q43 0 74 18v-94 q-41 -23 -104 -22q-74 0 -117 39.5t-41 117.5h-2q-31 -66 -111 -114t-198 -48q-150 0 -235 79t-85 218zM184 1206q74 184 197 185q47 0 137 -45q94 -47 127 -48q70 0 100 93l84 -21q-20 -43 -32.5 -65.5t-37 -55t-55 -48t-67.5 -15.5q-55 0 -158 53q-90 45 -112 45 q-68 0 -97 -96zM219 274q0 -96 58.5 -146t158.5 -50q119 0 201 73.5t82 192.5v180q-41 -14 -103 -24l-161 -31q-59 -12 -92 -21.5t-71 -31t-55.5 -56.5t-17.5 -86z" />
<glyph unicode="&#xe4;" horiz-adv-x="1001" d="M92 272q0 117 68 185q76 74 268 106l242 45q20 4 28.5 7t14.5 14.5t6 32.5v30q0 104 -55.5 154.5t-182.5 50.5q-121 0 -185.5 -60.5t-64.5 -170.5l-112 26q-2 141 101.5 223t266.5 82q166 0 256.5 -67.5t90.5 -239.5v-485q0 -68 14 -97.5t63 -29.5q43 0 74 18v-94 q-41 -23 -104 -22q-74 0 -117 39.5t-41 117.5h-2q-31 -66 -111 -114t-198 -48q-150 0 -235 79t-85 218zM219 274q0 -96 58.5 -146t158.5 -50q119 0 201 73.5t82 192.5v180q-41 -14 -103 -24l-161 -31q-59 -12 -92 -21.5t-71 -31t-55.5 -56.5t-17.5 -86zM238 1186v186h127 v-186h-127zM621 1186v186h127v-186h-127z" />
<glyph unicode="&#xe5;" horiz-adv-x="1001" d="M92 272q0 117 68 185q76 74 268 106l242 45q20 4 28.5 7t14.5 14.5t6 32.5v30q0 104 -55.5 154.5t-182.5 50.5q-121 0 -185.5 -60.5t-64.5 -170.5l-112 26q-2 141 101.5 223t266.5 82q166 0 256.5 -67.5t90.5 -239.5v-485q0 -68 14 -97.5t63 -29.5q43 0 74 18v-94 q-41 -23 -104 -22q-74 0 -117 39.5t-41 117.5h-2q-31 -66 -111 -114t-198 -48q-150 0 -235 79t-85 218zM219 274q0 -96 58.5 -146t158.5 -50q119 0 201 73.5t82 192.5v180q-41 -14 -103 -24l-161 -31q-59 -12 -92 -21.5t-71 -31t-55.5 -56.5t-17.5 -86zM322 1265.5 q0 69.5 49 118t118.5 48.5t118.5 -48.5t49 -118t-49 -117.5t-118.5 -48t-118.5 48t-49 117.5zM399 1266q0 -37 27 -62.5t61.5 -25.5t61 25.5t26.5 62.5t-26.5 62.5t-61 25.5t-61.5 -25.5t-27 -62.5z" />
<glyph unicode="&#xe6;" horiz-adv-x="1671" d="M92 276q0 131 83 193.5t253 93.5l242 45q20 4 28.5 7t14.5 14.5t6 32.5v30q0 104 -55.5 154.5t-182.5 50.5q-121 0 -185.5 -60.5t-64.5 -170.5l-112 26q-2 141 101.5 223t266.5 82q213 0 291 -102q18 -25 31 -57q123 160 332 159q201 0 313.5 -139t112.5 -362v-17h-742 v-16q0 -182 93.5 -281.5t236.5 -99.5q225 0 328 223l92 -65q-129 -264 -424 -265q-256 0 -375 201q-41 -78 -129 -139.5t-231 -61.5q-147 0 -235.5 80t-88.5 221zM219 274q0 -94 59.5 -145t157.5 -51q119 0 201 74.5t82 193.5v178q-41 -14 -103 -24l-161 -31 q-59 -12 -92 -21.5t-71 -31t-55.5 -56.5t-17.5 -86zM829 578h607q-4 125 -84 222t-211 97t-213.5 -84.5t-98.5 -234.5z" />
<glyph unicode="&#xe7;" horiz-adv-x="968" d="M92 483q0 236 121 375t322 139q281 0 378 -254l-104 -61q-76 213 -274 213q-145 0 -230.5 -109.5t-85.5 -300.5q0 -188 86 -296.5t230 -108.5q190 0 282 186l96 -59q-104 -217 -350 -230l-49 -69q10 2 33 2q72 0 117 -36t45 -103q0 -82 -57.5 -124t-141.5 -42 q-47 0 -92 16l18 55q31 -10 68 -10q47 0 76.5 23.5t29.5 64.5q0 43 -29.5 64.5t-74.5 21.5q-41 0 -70 -14l-24 45l75 106q-184 16 -289.5 151.5t-105.5 354.5z" />
<glyph unicode="&#xe8;" horiz-adv-x="1062" d="M92 494q0 223 122 363t318 140q205 0 315.5 -140t110.5 -365v-17h-741v-14q0 -182 93 -280.5t237 -98.5q223 0 327 217l93 -59q-131 -264 -424 -265q-209 0 -330 136.5t-121 382.5zM221 573h606q0 127 -80.5 225.5t-214 98.5t-216.5 -87t-95 -237zM274 1393h193l192 -263 h-114z" />
<glyph unicode="&#xe9;" horiz-adv-x="1062" d="M92 494q0 223 122 363t318 140q205 0 315.5 -140t110.5 -365v-17h-741v-14q0 -182 93 -280.5t237 -98.5q223 0 327 217l93 -59q-131 -264 -424 -265q-209 0 -330 136.5t-121 382.5zM221 573h606q0 127 -80.5 225.5t-214 98.5t-216.5 -87t-95 -237zM440 1130l193 263h192 l-270 -263h-115z" />
<glyph unicode="&#xea;" horiz-adv-x="1062" d="M92 494q0 223 122 363t318 140q205 0 315.5 -140t110.5 -365v-17h-741v-14q0 -182 93 -280.5t237 -98.5q223 0 327 217l93 -59q-131 -264 -424 -265q-209 0 -330 136.5t-121 382.5zM221 573h606q0 127 -80.5 225.5t-214 98.5t-216.5 -87t-95 -237zM270 1130l232 263h86 l231 -263h-129l-143 154l-148 -154h-129z" />
<glyph unicode="&#xeb;" horiz-adv-x="1062" d="M92 494q0 223 122 363t318 140q205 0 315.5 -140t110.5 -365v-17h-741v-14q0 -182 93 -280.5t237 -98.5q223 0 327 217l93 -59q-131 -264 -424 -265q-209 0 -330 136.5t-121 382.5zM221 573h606q0 127 -80.5 225.5t-214 98.5t-216.5 -87t-95 -237zM279 1186v186h127v-186 h-127zM662 1186v186h126v-186h-126z" />
<glyph unicode="&#xec;" horiz-adv-x="436" d="M-86 1393h192l193 -263h-115zM158 0v973h121v-973h-121z" />
<glyph unicode="&#xed;" horiz-adv-x="436" d="M133 1130l193 263h192l-270 -263h-115zM158 0v973h121v-973h-121z" />
<glyph unicode="&#xee;" horiz-adv-x="436" d="M-59 1130l231 263h86l231 -263h-129l-143 154l-147 -154h-129zM158 0v973h121v-973h-121z" />
<glyph unicode="&#xef;" horiz-adv-x="436" d="M-39 1186v186h127v-186h-127zM158 0v973h121v-973h-121zM344 1186v186h127v-186h-127z" />
<glyph unicode="&#xf0;" horiz-adv-x="1073" d="M92 483.5q0 233.5 121 373.5t319 140q80 0 161 -34.5t126 -104.5h2q-41 160 -141 320l-328 -107l-26 76l307 98q-63 86 -123 150l94 41q86 -94 131 -158l215 70l27 -74l-195 -64q197 -319 197 -678q0 -252 -110.5 -404.5t-333.5 -152.5q-203 0 -323 137.5t-120 371z M219 485q0 -188 86 -296.5t229.5 -108.5t229.5 109.5t86 295.5q0 190 -85 300t-230.5 110t-230.5 -110t-85 -300z" />
<glyph unicode="&#xf1;" horiz-adv-x="1064" d="M158 0v975h121v-162q31 78 111.5 131t197.5 53q156 0 241 -94q49 -55 67.5 -125.5t18.5 -226.5v-551h-120v524q0 233 -62 299q-57 63 -174 64q-125 0 -199 -80q-82 -84 -81 -227v-580h-121zM240 1206q74 184 196 185q47 0 137 -45q94 -47 127 -48q70 0 101 93l84 -21 q-20 -43 -32.5 -65.5t-37 -55t-55.5 -48t-68 -15.5q-55 0 -157 53q-90 45 -113 45q-68 0 -96 -96z" />
<glyph unicode="&#xf2;" horiz-adv-x="1069" d="M92 483q0 236 121 375t321.5 139t321.5 -139t121 -375q0 -233 -120 -370.5t-322.5 -137.5t-322.5 137.5t-120 370.5zM219 485q0 -188 86 -296.5t229.5 -108.5t229.5 109.5t86 295.5q0 190 -85 300t-230.5 110t-230.5 -110t-85 -300zM295 1393h192l193 -263h-115z" />
<glyph unicode="&#xf3;" horiz-adv-x="1069" d="M92 483q0 236 121 375t321.5 139t321.5 -139t121 -375q0 -233 -120 -370.5t-322.5 -137.5t-322.5 137.5t-120 370.5zM219 485q0 -188 86 -296.5t229.5 -108.5t229.5 109.5t86 295.5q0 190 -85 300t-230.5 110t-230.5 -110t-85 -300zM430 1130l193 263h192l-270 -263h-115 z" />
<glyph unicode="&#xf4;" horiz-adv-x="1069" d="M92 483q0 236 121 375t321.5 139t321.5 -139t121 -375q0 -233 -120 -370.5t-322.5 -137.5t-322.5 137.5t-120 370.5zM219 485q0 -188 86 -296.5t229.5 -108.5t229.5 109.5t86 295.5q0 190 -85 300t-230.5 110t-230.5 -110t-85 -300zM270 1130l232 263h86l231 -263h-129 l-143 154l-148 -154h-129z" />
<glyph unicode="&#xf5;" horiz-adv-x="1069" d="M92 483q0 236 121 375t321.5 139t321.5 -139t121 -375q0 -233 -120 -370.5t-322.5 -137.5t-322.5 137.5t-120 370.5zM209 1206q74 184 197 185q47 0 137 -45q94 -47 127 -48q70 0 100 93l84 -21q-20 -43 -32.5 -65.5t-37 -55t-55.5 -48t-67 -15.5q-55 0 -158 53 q-90 45 -113 45q-68 0 -96 -96zM219 485q0 -188 86 -296.5t229.5 -108.5t229.5 109.5t86 295.5q0 190 -85 300t-230.5 110t-230.5 -110t-85 -300z" />
<glyph unicode="&#xf6;" horiz-adv-x="1069" d="M92 483q0 236 121 375t321.5 139t321.5 -139t121 -375q0 -233 -120 -370.5t-322.5 -137.5t-322.5 137.5t-120 370.5zM219 485q0 -188 86 -296.5t229.5 -108.5t229.5 109.5t86 295.5q0 190 -85 300t-230.5 110t-230.5 -110t-85 -300zM285 1186v186h127v-186h-127z M668 1186v186h127v-186h-127z" />
<glyph unicode="&#xf7;" horiz-adv-x="1583" d="M102 430v117h1379v-117h-1379zM711 0v207h159v-207h-159zM711 770v205h159v-205h-159z" />
<glyph unicode="&#xf8;" horiz-adv-x="1069" d="M92 483q0 236 121 375t322 139q160 0 270 -92l100 131l90 -65l-112 -148q94 -137 94 -340q0 -233 -120 -370.5t-322 -137.5q-145 0 -252 72l-97 -125l-86 68l103 133q-111 133 -111 360zM219 485q0 -162 62 -262l456 594q-82 78 -202 78q-145 0 -230.5 -110t-85.5 -300z M354 139q76 -59 181 -59q143 0 229 109.5t86 295.5q0 137 -47 236z" />
<glyph unicode="&#xf9;" horiz-adv-x="1062" d="M152 365v610h120v-557q0 -195 62 -266q57 -63 174 -64q139 0 207.5 92t68.5 215v580h121v-975h-121v160q-31 -78 -109.5 -131.5t-195.5 -53.5q-156 0 -241 95q-86 96 -86 295zM293 1393h192l193 -263h-115z" />
<glyph unicode="&#xfa;" horiz-adv-x="1062" d="M152 365v610h120v-557q0 -195 62 -266q57 -63 174 -64q139 0 207.5 92t68.5 215v580h121v-975h-121v160q-31 -78 -109.5 -131.5t-195.5 -53.5q-156 0 -241 95q-86 96 -86 295zM420 1130l192 263h193l-270 -263h-115z" />
<glyph unicode="&#xfb;" horiz-adv-x="1062" d="M152 365v610h120v-557q0 -195 62 -266q57 -63 174 -64q139 0 207.5 92t68.5 215v580h121v-975h-121v160q-31 -78 -109.5 -131.5t-195.5 -53.5q-156 0 -241 95q-86 96 -86 295zM256 1130l231 263h86l232 -263h-129l-144 154l-147 -154h-129z" />
<glyph unicode="&#xfc;" horiz-adv-x="1062" d="M152 365v610h120v-557q0 -195 62 -266q57 -63 174 -64q139 0 207.5 92t68.5 215v580h121v-975h-121v160q-31 -78 -109.5 -131.5t-195.5 -53.5q-156 0 -241 95q-86 96 -86 295zM285 1186v186h127v-186h-127zM668 1186v186h127v-186h-127z" />
<glyph unicode="&#xfd;" horiz-adv-x="874" d="M8 975h131l232 -649l55 -162h2l61 168l248 643h125l-436 -1108q-51 -133 -82 -184q-59 -96 -178 -97q-72 0 -127 33v121q61 -41 123 -41q59 0 88 43q23 31 53 115l53 143zM344 1130l193 263h192l-270 -263h-115z" />
<glyph unicode="&#xfe;" horiz-adv-x="1103" d="M162 -389v1782h121v-592q37 86 120.5 141t196.5 55q186 0 299 -137t113 -377q0 -236 -112 -372t-296 -136q-117 0 -201 55.5t-120 143.5v-563h-121zM279 485q0 -195 80.5 -300t222.5 -105q145 0 224 106.5t79 301t-82 300t-225 105.5q-139 0 -219 -105.5t-80 -302.5z" />
<glyph unicode="&#xff;" horiz-adv-x="874" d="M8 975h131l232 -649l55 -162h2l61 168l248 643h125l-436 -1108q-51 -133 -82 -184q-59 -96 -178 -97q-72 0 -127 33v121q61 -41 123 -41q59 0 88 43q23 31 53 115l53 143zM193 1186v186h126v-186h-126zM575 1186v186h127v-186h-127z" />
<glyph unicode="&#x152;" horiz-adv-x="2037" d="M98 692q0 338 188.5 532.5t510.5 194.5q84 0 231 -26h895v-115h-784v-506h710v-117h-710v-540h825v-115h-936q-133 -25 -233 -25q-326 0 -511.5 185.5t-185.5 531.5zM233 692q0 -287 160 -446.5t408 -159.5q113 0 209 31v1161q-100 23 -213 22q-260 0 -412 -154.5 t-152 -453.5z" />
<glyph unicode="&#x153;" horiz-adv-x="1796" d="M92 483q0 236 118 375t318 139q244 0 365 -217q55 102 152.5 159.5t220.5 57.5q205 0 315.5 -140t110.5 -365v-17h-742v-14q0 -182 93.5 -280.5t236.5 -98.5q223 0 328 217l92 -59q-131 -264 -424 -265q-268 0 -383 213q-119 -213 -365 -213q-203 0 -319.5 137.5 t-116.5 370.5zM219 485q0 -188 84 -296.5t225.5 -108.5t225.5 108.5t84 296.5q0 193 -82 301.5t-228 108.5q-143 0 -226 -110t-83 -300zM954 573h607q0 127 -81 225.5t-214 98.5t-216.5 -87t-95.5 -237z" />
<glyph unicode="&#x178;" horiz-adv-x="1124" d="M-23 1393h156l420 -691l434 691h152l-529 -822v-571h-129v571zM303 1573v186h127v-186h-127zM686 1573v186h127v-186h-127z" />
<glyph unicode="&#x2c6;" horiz-adv-x="921" d="M186 1130l232 263h86l231 -263h-129l-143 154l-148 -154h-129z" />
<glyph unicode="&#x2dc;" horiz-adv-x="921" d="M137 1180q74 184 197 184q47 0 137 -45q94 -47 127 -47q70 0 100 92l84 -21q-20 -43 -32.5 -65.5t-37 -55t-55 -48t-67.5 -15.5q-55 0 -158 53q-90 45 -113 45q-68 0 -96 -96z" />
<glyph unicode="&#x2013;" horiz-adv-x="1327" d="M143 496v114h1041v-114h-1041z" />
<glyph unicode="&#x2014;" horiz-adv-x="1579" d="M74 496v114h1431v-114h-1431z" />
<glyph unicode="&#x2018;" horiz-adv-x="348" d="M86 895v217q0 109 31 180q45 98 145 125v-88q-88 -33 -88 -182v-19h80v-233h-168z" />
<glyph unicode="&#x2019;" horiz-adv-x="348" d="M86 870v88q88 33 88 183v18h-80v234h168v-217q0 -111 -31 -181q-45 -98 -145 -125z" />
<glyph unicode="&#x201a;" horiz-adv-x="632" d="M88 -201q88 33 88 183v18h-80v233h168v-217q0 -111 -31 -180q-45 -98 -145 -125v88zM358 -201q88 33 88 183v18h-79v233h168v-217q0 -111 -31 -180q-45 -98 -146 -125v88z" />
<glyph unicode="&#x201c;" horiz-adv-x="620" d="M94 895v217q0 109 31 180q45 98 145 125v-88q-88 -33 -88 -182v-19h80v-233h-168zM365 895v217q0 109 30 180q45 98 146 125v-88q-88 -33 -88 -182v-19h79v-233h-167z" />
<glyph unicode="&#x201d;" horiz-adv-x="620" d="M84 870v88q88 33 88 183v18h-80v234h168v-217q0 -111 -31 -181q-45 -98 -145 -125zM354 870v88q88 33 88 183v18h-80v234h168v-217q0 -111 -30 -181q-46 -98 -146 -125z" />
<glyph unicode="&#x201e;" horiz-adv-x="360" d="M86 -201q88 33 88 183v18h-80v233h168v-217q0 -111 -31 -180q-45 -98 -145 -125v88z" />
<glyph unicode="&#x2022;" horiz-adv-x="663" d="M92 702.5q0 100.5 69.5 170t170 69.5t170 -69.5t69.5 -170t-69.5 -170t-170 -69.5t-170 69.5t-69.5 170z" />
<glyph unicode="&#x2026;" horiz-adv-x="2023" d="M246 0v233h160v-233h-160zM932 0v233h160v-233h-160zM1618 0v233h160v-233h-160z" />
<glyph unicode="&#x2039;" horiz-adv-x="446" d="M90 516v150l275 280v-155l-205 -197l205 -201v-164z" />
<glyph unicode="&#x203a;" horiz-adv-x="448" d="M82 229v164l205 201l-205 197v155l274 -280v-150z" />
<glyph unicode="&#x20ac;" d="M53 485l37 115h107q-2 27 -2 92q0 59 2 86h-144l37 115h115q35 238 161 379t330 141q158 0 270.5 -87t163.5 -236l-110 -74q-92 289 -324 289q-145 0 -234 -112t-118 -300h537l-37 -115h-510q-4 -25 -4 -82q0 -70 4 -96h457l-37 -115h-410q57 -399 352 -399 q242 0 328 276l111 -51q-115 -336 -439 -336q-213 0 -334.5 142.5t-156.5 367.5h-152z" />
<glyph unicode="&#x2122;" horiz-adv-x="1742" d="M37 1296v97h668v-97h-283v-798h-103v798h-282zM782 496v897h158l225 -652l35 -108l11 44q9 36 20 64l211 652h162v-897h-103v659q0 117 2 156l-35 -115l-227 -700h-88l-235 675q-18 49 -35 123q2 -33 2 -139v-659h-103z" />
<glyph unicode="&#xe000;" horiz-adv-x="975" d="M0 975h975v-975h-975v975z" />
<glyph unicode="&#xfb01;" horiz-adv-x="1062" d="M16 881v94h222v221q0 109 45 160q53 61 172 61q61 0 125 -18v-111q-66 20 -117 21q-47 0 -74 -23q-31 -29 -31 -106v-205h222v-94h-222v-881h-120v881h-222zM784 0v973h121v-973h-121zM784 1192v201h121v-201h-121z" />
<glyph unicode="&#xfb02;" horiz-adv-x="1062" d="M16 881v94h222v221q0 109 45 160q53 61 172 61q61 0 125 -18v-111q-66 20 -117 21q-47 0 -74 -23q-31 -29 -31 -106v-205h222v-94h-222v-881h-120v881h-222zM784 0v1393h121v-1393h-121z" />
<glyph unicode="&#xfb03;" horiz-adv-x="1677" d="M16 881v94h222v221q0 109 45 160q53 61 172 61q61 0 125 -18v-111q-66 20 -117 21q-47 0 -74 -23q-31 -29 -31 -106v-205h222v-94h-222v-881h-120v881h-222zM637 881v94h221v221q0 109 45 160q53 61 172 61q61 0 125 -18v-111q-66 20 -117 21q-47 0 -73 -23 q-31 -29 -31 -106v-205h221v-94h-221v-881h-121v881h-221zM1399 0v975h121v-975h-121zM1399 1192v201h121v-201h-121z" />
<glyph unicode="&#xfb04;" horiz-adv-x="1677" d="M16 881v94h222v221q0 109 45 160q53 61 172 61q61 0 125 -18v-111q-66 20 -117 21q-47 0 -74 -23q-31 -29 -31 -106v-205h222v-94h-222v-881h-120v881h-222zM637 881v94h221v221q0 109 45 160q53 61 172 61q61 0 125 -18v-111q-66 20 -117 21q-47 0 -73 -23 q-31 -29 -31 -106v-205h221v-94h-221v-881h-121v881h-221zM1399 0v1393h121v-1393h-121z" />
</font>
</defs>
</svg>
